<?xml version="1.0" encoding="utf-8"?>
<!-- Generator: Adobe Illustrator 23.0.6, SVG Export Plug-In . SVG Version: 6.00 Build 0)  -->
<svg version="1.1" xmlns="http://www.w3.org/2000/svg" xmlns:xlink="http://www.w3.org/1999/xlink" x="0px" y="0px"
	 viewBox="0 0 140 140" style="enable-background:new 0 0 140 140;" xml:space="preserve">
<style type="text/css">
	.st0{fill:#BE6D20;}
	.st1{fill:#BB513B;}
	.st2{fill:#7F3318;}
	.st3{fill:#C41A3B;}
	.st4{fill:#871A4F;}
	.st5{fill:#623284;}
	.st6{fill:#292C51;}
	.st7{fill:#4D5CA3;}
	.st8{fill:#5C95C9;}
	.st9{fill:#005460;}
	.st10{fill:#3BA08D;}
	.st11{fill:#74AC40;}
	.st12{fill:#497A3C;}
	.st13{fill:#B7CA47;}
	.st14{fill:#939054;}
	.st15{fill:#FFFFFF;stroke:#9EC37D;stroke-width:4.3502;stroke-miterlimit:10;}
	.st16{fill:#DCDCDC;}
	.st17{fill:#497B3C;stroke:#497B3C;stroke-width:0.522;stroke-miterlimit:10;}
	.st18{fill:#DB9825;}
	.st19{fill:#CA4D26;}
	.st20{fill:#6E4953;}
	.st21{fill:#4F3541;}
	.st22{fill:#932E1E;stroke:#932E1E;stroke-width:4.7249;stroke-miterlimit:10;}
	.st23{fill:#FFFFFF;}
	.st24{fill:#4A1917;}
	.st25{fill:#F9F9F9;}
	.st26{fill:#BA7B6A;}
	.st27{fill:none;stroke:#371C16;stroke-width:2.6204;stroke-linecap:round;stroke-linejoin:round;stroke-miterlimit:10;}
	.st28{fill:#FFFFFF;stroke:#FFFFFF;stroke-width:0.1754;stroke-miterlimit:10;}
	.st29{fill:#561827;}
	.st30{fill:#B48995;}
	.st31{fill:#30151C;}
	.st32{fill:#7B5568;}
	.st33{fill:none;stroke:#24121B;stroke-width:3.8462;stroke-linecap:round;stroke-linejoin:round;stroke-miterlimit:10;}
	.st34{fill:none;stroke:#F9F9F9;stroke-width:3.4966;stroke-linecap:round;stroke-linejoin:round;stroke-miterlimit:10;}
	.st35{fill:#24121B;stroke:#24121B;stroke-width:0.3497;stroke-miterlimit:10;}
	.st36{fill:none;stroke:#24121B;stroke-width:2.6224;stroke-linecap:round;stroke-linejoin:round;stroke-miterlimit:10;}
	.st37{fill:#FFFFFF;stroke:url(#);stroke-width:0.1743;stroke-miterlimit:10;}
	.st38{fill:#1B2A37;}
	.st39{fill:#85C1D2;}
	.st40{fill:none;stroke:#1C3236;stroke-width:2.9702;stroke-linecap:round;stroke-linejoin:round;stroke-miterlimit:10;}
	.st41{fill:#72B4E6;}
	.st42{fill:#1C3236;}
	.st43{fill:#B1CDEE;}
	.st44{fill:#C3DFE7;}
	.st45{fill:#2E4D44;}
	.st46{fill:#DEC34A;}
	.st47{fill:#6E5A21;}
	.st48{fill:#4C3E1D;}
	.st49{fill:none;stroke:#FFFFFF;stroke-width:2.8139;stroke-miterlimit:10;}
	.st50{fill:#FFFFFF;stroke:#FFFFFF;stroke-width:2.8139;stroke-miterlimit:10;}
	.st51{fill:#E4B3CB;}
	.st52{fill:#8E1135;}
	.st53{fill:#372C71;stroke:#372C71;stroke-width:0.175;stroke-miterlimit:10;}
	.st54{fill:#2E151D;}
	.st55{fill:#CB4A7C;}
	.st56{fill:#371529;}
	.st57{fill:#E2ADCC;}
	.st58{fill:#611740;}
	.st59{fill:none;stroke:#FFFFFF;stroke-width:3.4966;stroke-miterlimit:10;}
	.st60{fill:#FFFFFF;stroke:#FFFFFF;stroke-width:3.4966;stroke-miterlimit:10;}
	.st61{fill:#6B267F;}
	.st62{fill:#BFC5C5;}
	.st63{fill:#713787;}
	.st64{fill:#331E40;}
	.st65{fill:#545F2C;}
	.st66{fill:#212E20;}
	.st67{fill:#9FAD35;}
	.st68{fill:#D3DC7E;}
	.st69{fill:#3E3D21;}
	.st70{fill:#281C3B;}
	.st71{fill:#AA98C6;}
	.st72{fill:#FFFFFF;stroke:#292D50;stroke-width:4.3695;stroke-miterlimit:10;}
	.st73{fill:#FFFFFF;stroke:#2A4125;stroke-width:4.3017;stroke-miterlimit:10;}
	.st74{fill:#2A4027;stroke:#2A4027;stroke-width:0.5162;stroke-miterlimit:10;}
	.st75{fill:#FFFFFF;stroke:#4E5DA3;stroke-width:4.382;stroke-miterlimit:10;}
	.st76{fill:none;stroke:#1C3236;stroke-width:2.9682;stroke-linecap:round;stroke-linejoin:round;stroke-miterlimit:10;}
	.st77{fill:#FFFFFF;stroke:#DC9927;stroke-width:2.409;stroke-miterlimit:10;}
	.st78{fill:#A36F24;}
	.st79{fill:#EDC7A4;stroke:#EDC7A4;stroke-width:2.2749;stroke-miterlimit:10;}
	.st80{fill:#932E1E;stroke:#932E1E;stroke-width:2.0999;stroke-miterlimit:10;}
	.st81{fill:#932E1E;stroke:#932E1E;stroke-width:2.2749;stroke-miterlimit:10;}
	.st82{fill:#DC9359;stroke:#DC9359;stroke-width:2.2749;stroke-miterlimit:10;}
	.st83{fill:#A37025;stroke:#A37025;stroke-width:2.2369;stroke-miterlimit:10;}
	.st84{fill:#DC9359;stroke:#DC9359;stroke-width:2.2369;stroke-miterlimit:10;}
	.st85{fill:#FFFFFF;stroke:#FFFFFF;stroke-width:2.2369;stroke-miterlimit:10;}
	.st86{fill:#456131;}
	.st87{fill:none;stroke:#1C3236;stroke-width:2.9311;stroke-linecap:round;stroke-linejoin:round;stroke-miterlimit:10;}
	.st88{fill:#FFFFFF;stroke:#FFFFFF;stroke-width:3.2693;stroke-miterlimit:10;}
	.st89{fill:#878888;}
	.st90{fill:none;stroke:#30151C;stroke-width:4.6663;stroke-miterlimit:10;}
	.st91{fill:none;stroke:#331E40;stroke-width:4.84;stroke-miterlimit:10;}
	.st92{fill:#FFFFFF;stroke:#FFFFFF;stroke-width:3.2843;stroke-miterlimit:10;}
	.st93{fill:none;stroke:#331E40;stroke-width:5.197;stroke-miterlimit:10;}
	.st94{fill:#FFFFFF;stroke:#FFFFFF;stroke-width:3.2914;stroke-miterlimit:10;}
	.st95{fill:none;stroke:#1E333F;stroke-width:5.2381;stroke-miterlimit:10;}
	.st96{fill:#FFFFFF;stroke:#FFFFFF;stroke-width:3.3174;stroke-miterlimit:10;}
	.st97{fill:#FFFFFF;stroke:#FFFFFF;stroke-width:3.2837;stroke-miterlimit:10;}
	.st98{fill:#5C7487;}
	.st99{fill:none;stroke:#24121B;stroke-width:3.7855;stroke-linecap:round;stroke-linejoin:round;stroke-miterlimit:10;}
	.st100{fill:none;stroke:#24121B;stroke-width:2.581;stroke-linecap:round;stroke-linejoin:round;stroke-miterlimit:10;}
	.st101{fill:#24121B;stroke:#24121B;stroke-width:0.3441;stroke-miterlimit:10;}
	.st102{fill:none;stroke:#F9F9F9;stroke-width:3.4414;stroke-linecap:round;stroke-linejoin:round;stroke-miterlimit:10;}
	.st103{fill:none;stroke:#30151C;stroke-width:4.6459;stroke-miterlimit:10;}
	.st104{fill:none;stroke:#1E333F;stroke-width:5.1724;stroke-miterlimit:10;}
	.st105{fill:#FFFFFF;stroke:#FFFFFF;stroke-width:3.2759;stroke-miterlimit:10;}
	.st106{fill:none;stroke:#1E333F;stroke-width:5.1621;stroke-miterlimit:10;}
	.st107{fill:none;stroke:#30151C;stroke-width:4.6905;stroke-miterlimit:10;}
	.st108{fill:#FFFFFF;stroke:#FFFFFF;stroke-width:3.3007;stroke-miterlimit:10;}
</style>
<g id="Capa_1">
	<rect x="0.1" y="-0.5" class="st10" width="140" height="140.9"/>
</g>
<g id="Capa_2">
	<g>
		<g>
			<g>
				<g>
					<path class="st44" d="M93.6,77.5h5.7c7.5,0,13.6-6.1,13.6-13.6c0-6.6-4.7-12.1-10.9-13.3c0-0.1,0-0.2,0-0.3
						c0-7.5-6.1-13.6-13.6-13.6c-1.4,0-2.7,0.2-4,0.6c-1.9-6.5-8-11.3-15.1-11.3s-13.2,4.8-15.1,11.3c-1.3-0.4-2.6-0.6-4-0.6
						c-7.5,0-13.6,6.1-13.6,13.6c0,0.1,0,0.2,0,0.3c-6.2,1.3-10.8,6.8-10.8,13.3c0,7.5,6.1,13.6,13.6,13.6h45.1H93.6z"/>
				</g>
			</g>
		</g>
		<g>
			<g>
				<g>
					<path class="st44" d="M99.3,79H39.4c-8.3,0-15.1-6.8-15.1-15.1c0-6.7,4.5-12.6,10.9-14.5c0.5-7.9,7-14.2,15.1-14.2
						c1,0,2,0.1,3,0.3c2.6-6.5,9-11,16.1-11c7.1,0,13.5,4.5,16.1,11c1-0.2,2-0.3,3-0.3c8,0,14.6,6.3,15.1,14.2
						c6.4,1.9,10.9,7.8,10.9,14.5C114.4,72.3,107.6,79,99.3,79z M50.2,38.2c-6.7,0-12.1,5.4-12.1,12.1c0,0,0,0.1,0,0.1l0,0.1
						c0,0.7-0.5,1.3-1.2,1.5c-5.6,1.2-9.7,6.2-9.7,11.9c0,6.7,5.4,12.1,12.1,12.1h59.9c6.7,0,12.1-5.4,12.1-12.1
						c0-5.7-4.1-10.7-9.7-11.9c-0.7-0.1-1.2-0.8-1.2-1.5l0-0.1c0,0,0-0.1,0-0.1c0-6.7-5.4-12.1-12.1-12.1c-1.2,0-2.4,0.2-3.5,0.5
						c-0.4,0.1-0.8,0.1-1.1-0.1c-0.3-0.2-0.6-0.5-0.7-0.9c-1.8-6-7.4-10.2-13.7-10.2c-6.3,0-11.9,4.2-13.7,10.2
						c-0.1,0.4-0.4,0.7-0.7,0.9c-0.3,0.2-0.8,0.2-1.1,0.1C52.6,38.3,51.4,38.2,50.2,38.2z"/>
				</g>
			</g>
		</g>
	</g>
	<g id="XMLID_137_">
		<g id="XMLID_138_">
			<polygon id="XMLID_149_" class="st45" points="89,63.2 72.5,76.3 44.6,62.6 50.4,58 			"/>
			<polygon id="XMLID_148_" class="st45" points="97.1,73.4 80.6,86.5 87.5,116.8 93.3,112.2 			"/>
			<g id="XMLID_145_">
				<path id="XMLID_146_" class="st45" d="M103.9,69L77.2,90.1c-6,4.7-12.7,8.4-19.8,10.9l-3.4,1.2c-1,0.3-2,0-2.6-0.7
					c-0.6-0.8-0.7-1.9-0.1-2.7l1.8-2.8c4.2-6.6,9.4-12.4,15.5-17.2l26.5-21c3-2.4,10.7-4.6,13.3-1.4C110.9,59.6,106.9,66.6,103.9,69
					z"/>
			</g>
			<g id="XMLID_143_">
				<polygon id="XMLID_144_" class="st45" points="51.5,99.3 39.6,91 44.9,86.8 58.7,88.6 58.5,89.8 45.2,88 41.6,90.9 52.2,98.3 
									"/>
			</g>
			<g id="XMLID_141_">
				<polygon id="XMLID_142_" class="st45" points="64.1,111.1 58.8,115.3 53.4,101.8 54.5,101.4 59.3,113.3 63,110.5 64.3,97.2 
					65.5,97.3 				"/>
			</g>
			<polygon id="XMLID_140_" class="st45" points="66.1,89.5 52.5,96.2 39.4,91.1 44.1,88.8 			"/>
			<polygon id="XMLID_139_" class="st45" points="62.9,90.9 57.1,100.7 62,112 64,108.6 			"/>
			
				<rect x="56.3" y="100.7" transform="matrix(0.9239 -0.3825 0.3825 0.9239 -36.4854 30.4747)" class="st45" width="4.1" height="12.6"/>
			
				<rect x="49.2" y="83.4" transform="matrix(0.1268 -0.9919 0.9919 0.1268 -44.7024 128.5952)" class="st45" width="3.1" height="12.6"/>
			<rect x="48.1" y="88.9" transform="matrix(0.5 -0.866 0.866 0.5 -57.5954 90.5796)" class="st45" width="3.1" height="12.6"/>
			
				<rect x="60" y="96" transform="matrix(0.9978 6.667868e-02 -6.667868e-02 0.9978 6.9625 -3.9116)" class="st45" width="4.1" height="12.6"/>
		</g>
	</g>
	<g>
		<g>
			<g id="XMLID_47_">
				<path id="XMLID_50_" class="st88" d="M49.2,54.4H32.1c-0.6,0-1-0.5-1-1V38.1h19.2v15.3C50.2,54,49.8,54.4,49.2,54.4z"/>
				<g id="XMLID_48_">
					<path id="XMLID_49_" class="st88" d="M47.5,37.9h-0.5v-3c0-3.6-2.9-6.4-6.4-6.4c-3.6,0-6.4,2.9-6.4,6.4v3h-0.5v-3
						c0-3.8,3.1-6.9,6.9-6.9c3.8,0,6.9,3.1,6.9,6.9V37.9z"/>
				</g>
			</g>
			<g>
				<g id="XMLID_43_">
					<path id="XMLID_46_" class="st88" d="M49.7,55.1H31.8c-0.6,0-1.1-0.5-1.1-1.1V37.9h20.1V54C50.8,54.6,50.3,55.1,49.7,55.1z"/>
					<g id="XMLID_44_">
						<path id="XMLID_45_" class="st88" d="M48,37.7h-0.5v-3.1c0-3.7-3-6.7-6.7-6.7c-3.7,0-6.7,3-6.7,6.7v3.1h-0.5v-3.1
							c0-4,3.2-7.2,7.2-7.2s7.2,3.2,7.2,7.2V37.7z"/>
					</g>
				</g>
				<g>
					<g>
						<path class="st89" d="M44.5,39.4v9c0,2.7-1.4,4.9-3.1,4.9h5.1c1.7,0,2.9-2.2,2.9-4.9v-9H44.5z"/>
					</g>
				</g>
				<rect x="45.2" y="42.8" class="st89" width="4.1" height="10.5"/>
			</g>
		</g>
		<g>
			<g id="XMLID_39_">
				<path id="XMLID_42_" class="st106" d="M49.9,54.2H32c-0.6,0-1.1-0.5-1.1-1.1V37.1H51v16.1C51,53.8,50.5,54.2,49.9,54.2z"/>
				<g id="XMLID_40_">
					<path id="XMLID_41_" class="st106" d="M48.2,36.9h-0.5v-3.1c0-3.7-3-6.7-6.7-6.7c-3.7,0-6.7,3-6.7,6.7v3.1h-0.5v-3.1
						c0-4,3.2-7.2,7.2-7.2c4,0,7.2,3.2,7.2,7.2V36.9z"/>
				</g>
			</g>
			<g>
				<g>
					<path class="st106" d="M44.7,38.6v9c0,2.7-1.4,4.9-3.1,4.9h5.1c1.7,0,2.9-2.2,2.9-4.9v-9H44.7z"/>
				</g>
			</g>
			<rect x="45.4" y="42" class="st106" width="4.1" height="10.5"/>
		</g>
		<g>
			<g id="XMLID_35_">
				<path id="XMLID_38_" class="st88" d="M48.5,53.4H31.4c-0.6,0-1-0.5-1-1V37.1h19.2v15.3C49.5,53,49.1,53.4,48.5,53.4z"/>
				<g id="XMLID_36_">
					<path id="XMLID_37_" class="st88" d="M46.9,36.9h-0.5v-3c0-3.6-2.9-6.4-6.4-6.4c-3.6,0-6.4,2.9-6.4,6.4v3h-0.5v-3
						c0-3.8,3.1-6.9,6.9-6.9c3.8,0,6.9,3.1,6.9,6.9V36.9z"/>
				</g>
			</g>
			<g>
				<g id="XMLID_31_">
					<path id="XMLID_34_" class="st88" d="M49.1,54.1H31.2c-0.6,0-1.1-0.5-1.1-1.1V36.9h20.1V53C50.2,53.6,49.7,54.1,49.1,54.1z"/>
					<g id="XMLID_32_">
						<path id="XMLID_33_" class="st88" d="M47.4,36.7h-0.5v-3.1c0-3.7-3-6.7-6.7-6.7s-6.7,3-6.7,6.7v3.1h-0.5v-3.1
							c0-4,3.2-7.2,7.2-7.2c4,0,7.2,3.2,7.2,7.2V36.7z"/>
					</g>
				</g>
				<g>
					<g>
						<path class="st89" d="M43.8,38.4v9c0,2.7-1.4,4.9-3.1,4.9h5.1c1.7,0,2.9-2.2,2.9-4.9v-9H43.8z"/>
					</g>
				</g>
				<rect x="44.5" y="41.8" class="st89" width="4.1" height="10.5"/>
			</g>
		</g>
	</g>
</g>
<g id="Capa_3">
</g>
</svg>
