<?xml version="1.0" encoding="utf-8"?>
<!-- Generator: Adobe Illustrator 23.0.6, SVG Export Plug-In . SVG Version: 6.00 Build 0)  -->
<svg version="1.1" xmlns="http://www.w3.org/2000/svg" xmlns:xlink="http://www.w3.org/1999/xlink" x="0px" y="0px"
	 viewBox="0 0 140 140" style="enable-background:new 0 0 140 140;" xml:space="preserve">
<style type="text/css">
	.st0{fill:#BE6D20;}
	.st1{fill:#BB513B;}
	.st2{fill:#7F3318;}
	.st3{fill:#C41A3B;}
	.st4{fill:#871A4F;}
	.st5{fill:#623284;}
	.st6{fill:#292C51;}
	.st7{fill:#4D5CA3;}
	.st8{fill:#5C95C9;}
	.st9{fill:#005460;}
	.st10{fill:#3BA08D;}
	.st11{fill:#74AC40;}
	.st12{fill:#497A3C;}
	.st13{fill:#B7CA47;}
	.st14{fill:#939054;}
	.st15{fill:#FFFFFF;stroke:#9EC37D;stroke-width:4.3502;stroke-miterlimit:10;}
	.st16{fill:#DCDCDC;}
	.st17{fill:#497B3C;stroke:#497B3C;stroke-width:0.522;stroke-miterlimit:10;}
	.st18{fill:#DB9825;}
	.st19{fill:#CA4D26;}
	.st20{fill:#6E4953;}
	.st21{fill:#4F3541;}
	.st22{fill:#932E1E;stroke:#932E1E;stroke-width:4.7249;stroke-miterlimit:10;}
	.st23{fill:#FFFFFF;}
	.st24{fill:#4A1917;}
	.st25{fill:#F9F9F9;}
	.st26{fill:#BA7B6A;}
	.st27{fill:none;stroke:#371C16;stroke-width:2.6204;stroke-linecap:round;stroke-linejoin:round;stroke-miterlimit:10;}
	.st28{fill:#FFFFFF;stroke:#FFFFFF;stroke-width:0.1754;stroke-miterlimit:10;}
	.st29{fill:#561827;}
	.st30{fill:#B48995;}
	.st31{fill:#30151C;}
	.st32{fill:#7B5568;}
	.st33{fill:none;stroke:#24121B;stroke-width:3.8462;stroke-linecap:round;stroke-linejoin:round;stroke-miterlimit:10;}
	.st34{fill:none;stroke:#F9F9F9;stroke-width:3.4966;stroke-linecap:round;stroke-linejoin:round;stroke-miterlimit:10;}
	.st35{fill:#24121B;stroke:#24121B;stroke-width:0.3497;stroke-miterlimit:10;}
	.st36{fill:none;stroke:#24121B;stroke-width:2.6224;stroke-linecap:round;stroke-linejoin:round;stroke-miterlimit:10;}
	.st37{fill:#FFFFFF;stroke:url(#);stroke-width:0.1743;stroke-miterlimit:10;}
	.st38{fill:#1B2A37;}
	.st39{fill:#85C1D2;}
	.st40{fill:none;stroke:#1C3236;stroke-width:2.9702;stroke-linecap:round;stroke-linejoin:round;stroke-miterlimit:10;}
	.st41{fill:#72B4E6;}
	.st42{fill:#1C3236;}
	.st43{fill:#B1CDEE;}
	.st44{fill:#C3DFE7;}
	.st45{fill:#2E4D44;}
	.st46{fill:#DEC34A;}
	.st47{fill:#6E5A21;}
	.st48{fill:#4C3E1D;}
	.st49{fill:none;stroke:#FFFFFF;stroke-width:2.8139;stroke-miterlimit:10;}
	.st50{fill:#FFFFFF;stroke:#FFFFFF;stroke-width:2.8139;stroke-miterlimit:10;}
	.st51{fill:#E4B3CB;}
	.st52{fill:#8E1135;}
	.st53{fill:#372C71;stroke:#372C71;stroke-width:0.175;stroke-miterlimit:10;}
	.st54{fill:#2E151D;}
	.st55{fill:#CB4A7C;}
	.st56{fill:#371529;}
	.st57{fill:#E2ADCC;}
	.st58{fill:#611740;}
	.st59{fill:none;stroke:#FFFFFF;stroke-width:3.4966;stroke-miterlimit:10;}
	.st60{fill:#FFFFFF;stroke:#FFFFFF;stroke-width:3.4966;stroke-miterlimit:10;}
	.st61{fill:#6B267F;}
	.st62{fill:#BFC5C5;}
	.st63{fill:#713787;}
	.st64{fill:#331E40;}
	.st65{fill:#545F2C;}
	.st66{fill:#212E20;}
	.st67{fill:#9FAD35;}
	.st68{fill:#D3DC7E;}
	.st69{fill:#3E3D21;}
	.st70{fill:#281C3B;}
	.st71{fill:#AA98C6;}
	.st72{fill:#FFFFFF;stroke:#292D50;stroke-width:4.3695;stroke-miterlimit:10;}
	.st73{fill:#FFFFFF;stroke:#2A4125;stroke-width:4.3017;stroke-miterlimit:10;}
	.st74{fill:#2A4027;stroke:#2A4027;stroke-width:0.5162;stroke-miterlimit:10;}
	.st75{fill:#FFFFFF;stroke:#4E5DA3;stroke-width:4.382;stroke-miterlimit:10;}
	.st76{fill:none;stroke:#1C3236;stroke-width:2.9682;stroke-linecap:round;stroke-linejoin:round;stroke-miterlimit:10;}
	.st77{fill:#FFFFFF;stroke:#DC9927;stroke-width:2.409;stroke-miterlimit:10;}
	.st78{fill:#A36F24;}
	.st79{fill:#EDC7A4;stroke:#EDC7A4;stroke-width:2.2749;stroke-miterlimit:10;}
	.st80{fill:#932E1E;stroke:#932E1E;stroke-width:2.0999;stroke-miterlimit:10;}
	.st81{fill:#932E1E;stroke:#932E1E;stroke-width:2.2749;stroke-miterlimit:10;}
	.st82{fill:#DC9359;stroke:#DC9359;stroke-width:2.2749;stroke-miterlimit:10;}
	.st83{fill:#A37025;stroke:#A37025;stroke-width:2.2369;stroke-miterlimit:10;}
	.st84{fill:#DC9359;stroke:#DC9359;stroke-width:2.2369;stroke-miterlimit:10;}
	.st85{fill:#FFFFFF;stroke:#FFFFFF;stroke-width:2.2369;stroke-miterlimit:10;}
	.st86{fill:#456131;}
	.st87{fill:none;stroke:#1C3236;stroke-width:2.9311;stroke-linecap:round;stroke-linejoin:round;stroke-miterlimit:10;}
	.st88{fill:#FFFFFF;stroke:#FFFFFF;stroke-width:3.2693;stroke-miterlimit:10;}
	.st89{fill:#878888;}
	.st90{fill:none;stroke:#30151C;stroke-width:4.6663;stroke-miterlimit:10;}
	.st91{fill:none;stroke:#331E40;stroke-width:4.84;stroke-miterlimit:10;}
	.st92{fill:#FFFFFF;stroke:#FFFFFF;stroke-width:3.2843;stroke-miterlimit:10;}
	.st93{fill:none;stroke:#331E40;stroke-width:5.197;stroke-miterlimit:10;}
	.st94{fill:#FFFFFF;stroke:#FFFFFF;stroke-width:3.2914;stroke-miterlimit:10;}
	.st95{fill:none;stroke:#1E333F;stroke-width:5.2381;stroke-miterlimit:10;}
	.st96{fill:#FFFFFF;stroke:#FFFFFF;stroke-width:3.3174;stroke-miterlimit:10;}
	.st97{fill:#FFFFFF;stroke:#FFFFFF;stroke-width:3.2837;stroke-miterlimit:10;}
	.st98{fill:#5C7487;}
	.st99{fill:none;stroke:#24121B;stroke-width:3.7855;stroke-linecap:round;stroke-linejoin:round;stroke-miterlimit:10;}
	.st100{fill:none;stroke:#24121B;stroke-width:2.581;stroke-linecap:round;stroke-linejoin:round;stroke-miterlimit:10;}
	.st101{fill:#24121B;stroke:#24121B;stroke-width:0.3441;stroke-miterlimit:10;}
	.st102{fill:none;stroke:#F9F9F9;stroke-width:3.4414;stroke-linecap:round;stroke-linejoin:round;stroke-miterlimit:10;}
	.st103{fill:none;stroke:#30151C;stroke-width:4.6459;stroke-miterlimit:10;}
	.st104{fill:none;stroke:#1E333F;stroke-width:5.1724;stroke-miterlimit:10;}
	.st105{fill:#FFFFFF;stroke:#FFFFFF;stroke-width:3.2759;stroke-miterlimit:10;}
	.st106{fill:none;stroke:#1E333F;stroke-width:5.1621;stroke-miterlimit:10;}
	.st107{fill:none;stroke:#30151C;stroke-width:4.6905;stroke-miterlimit:10;}
	.st108{fill:#FFFFFF;stroke:#FFFFFF;stroke-width:3.3007;stroke-miterlimit:10;}
</style>
<g id="Capa_1">
</g>
<g id="Capa_2">
	<g>
		<rect y="0.1" class="st61" width="140" height="140"/>
		<g>
			<g>
				<path class="st62" d="M111.5,46.3v30.4c0-3.2-2.5-5.7-5.7-5.7H69.7L63.8,65c-1.1-1.1-2.5-1.7-4-1.7H33.6c-3.2,0-5.7,2.5-5.7,5.7
					V53.9c0-3.2,2.5-5.7,5.7-5.7h36.1l5.9-5.9c1.1-1.1,2.5-1.7,4-1.7h26.2C109,40.6,111.5,43.1,111.5,46.3z"/>
			</g>
			<g>
				<path class="st25" d="M103.9,50.1v3.8c0,1-0.9,1.9-1.9,1.9h-7.8l-1.3-7.6h9.1C103.1,48.2,103.9,49,103.9,50.1z"/>
			</g>
			<g>
				<path class="st25" d="M96.9,71H69.7L63.8,65c-1.1-1.1-2.5-1.7-4-1.7H41.5l-4.1-23.2c-0.4-2.1,1-4,3.1-4.4L78,29.1l13.5,11.1
					L96.9,71z"/>
			</g>
			<g>
				<path class="st62" d="M91.5,40.3L84,41.6c-2.1,0.4-4-1-4.4-3.1L78,29.1L91.5,40.3z"/>
			</g>
			<g>
				<g>
					
						<ellipse transform="matrix(6.511100e-02 -0.9979 0.9979 6.511100e-02 6.8831 119.5941)" class="st63" cx="67.3" cy="56.1" rx="15.2" ry="15.2"/>
				</g>
			</g>
			<g>
				<path class="st25" d="M111.5,76.7v30.4c0,3.2-2.5,5.7-5.7,5.7H33.6c-3.2,0-5.7-2.5-5.7-5.7v-38c0-3.2,2.5-5.7,5.7-5.7h26.2
					c1.5,0,3,0.6,4,1.7l5.9,5.9h36.1C109,71,111.5,73.5,111.5,76.7z"/>
			</g>
			<path class="st64" d="M105.8,38.6H92.5l-13.4-11c-0.5-0.4-1.1-0.5-1.7-0.4l-37.2,6.6c-3.1,0.6-5.2,3.5-4.6,6.6l1,5.8h-3
				c-4.2,0-7.6,3.4-7.6,7.6c0,18.3,0,33.6,0,53.2c0,4.2,3.4,7.6,7.6,7.6h72.2c4.2,0,7.6-3.4,7.6-7.6c0-21.6,0-39.3,0-60.8
				C113.4,42.1,110,38.6,105.8,38.6z M105.8,42.5c2.1,0,3.8,1.7,3.8,3.8v23.8c-2.3-1.3-3.5-1-11.1-1l-2-11.4h5.5
				c2.1,0,3.8-1.7,3.8-3.8v-3.8c0-2.1-1.7-3.8-3.8-3.8h-7.5l-0.7-3.8H105.8z M95.2,50.1h6.8v3.8h-6.2L95.2,50.1z M86.5,38.6
				L86.5,38.6l0.6,0.5l-3.4,0.6c-0.9,0.1-1.7-0.3-2-1.1c-0.2-0.3-0.1-0.1-0.9-4.8L86.5,38.6z M39.3,39.8c-0.2-1,0.5-2,1.5-2.2
				l35.6-6.3l1.3,7.5c0,0,0,0.1,0,0.1c0.5,2.8,3,4.6,5.6,4.6c0.7,0,0.9-0.1,6.6-1.1c1.6,8.9-1.2-6.5,4.7,26.6H70.5l-5.4-5.4
				c-1.4-1.4-3.4-2.2-5.4-2.2H43.1C40,43.6,40.8,48.3,39.3,39.8z M29.8,53.9c0-2.1,1.7-3.8,3.8-3.8h3.7l2,11.4c-5.7,0-7.2-0.3-9.5,1
				V53.9z M109.6,107.1c0,2.1-1.7,3.8-3.8,3.8H33.6c-2.1,0-3.8-1.7-3.8-3.8c0-13.2,0-24.8,0-38c0-2.1,1.7-3.8,3.8-3.8
				c5.4,0,17.9,0,26.2,0c1,0,2,0.4,2.7,1.1l5.9,5.9c0.4,0.3,0.8,0.6,1.3,0.6h36.1c2.1,0,3.8,1.7,3.8,3.8
				C109.6,85.7,109.6,97.9,109.6,107.1z"/>
			<g>
				<rect x="35.5" y="72.9" class="st62" width="3.8" height="3.8"/>
			</g>
			<g>
				<rect x="43.1" y="72.9" class="st62" width="3.8" height="3.8"/>
			</g>
			<g>
				<rect x="50.7" y="72.9" class="st62" width="3.8" height="3.8"/>
			</g>
			<g>
				<path class="st62" d="M103.3,107.1H81.7c-0.3,0-0.6-0.3-0.6-0.6V96.3c0-0.3,0.3-0.6,0.6-0.6h21.6c0.3,0,0.6,0.3,0.6,0.6v10.2
					C103.9,106.8,103.6,107.1,103.3,107.1z"/>
			</g>
		</g>
	</g>
</g>
<g id="Capa_3">
</g>
</svg>
