<?xml version="1.0" encoding="utf-8"?>
<!-- Generator: Adobe Illustrator 23.0.6, SVG Export Plug-In . SVG Version: 6.00 Build 0)  -->
<svg version="1.1" xmlns="http://www.w3.org/2000/svg" xmlns:xlink="http://www.w3.org/1999/xlink" x="0px" y="0px"
	 viewBox="0 0 140 140" style="enable-background:new 0 0 140 140;" xml:space="preserve">
<style type="text/css">
	.st0{fill:#BE6D20;}
	.st1{fill:#BB513B;}
	.st2{fill:#7F3318;}
	.st3{fill:#C41A3B;}
	.st4{fill:#871A4F;}
	.st5{fill:#623284;}
	.st6{fill:#292C51;}
	.st7{fill:#4D5CA3;}
	.st8{fill:#5C95C9;}
	.st9{fill:#005460;}
	.st10{fill:#3BA08D;}
	.st11{fill:#74AC40;}
	.st12{fill:#497A3C;}
	.st13{fill:#B7CA47;}
	.st14{fill:#939054;}
	.st15{fill:#FFFFFF;stroke:#9EC37D;stroke-width:4.3502;stroke-miterlimit:10;}
	.st16{fill:#DCDCDC;}
	.st17{fill:#497B3C;stroke:#497B3C;stroke-width:0.522;stroke-miterlimit:10;}
	.st18{fill:#DB9825;}
	.st19{fill:#CA4D26;}
	.st20{fill:#6E4953;}
	.st21{fill:#4F3541;}
	.st22{fill:#932E1E;stroke:#932E1E;stroke-width:4.7249;stroke-miterlimit:10;}
	.st23{fill:#FFFFFF;}
	.st24{fill:#4A1917;}
	.st25{fill:#F9F9F9;}
	.st26{fill:#BA7B6A;}
	.st27{fill:none;stroke:#371C16;stroke-width:2.6204;stroke-linecap:round;stroke-linejoin:round;stroke-miterlimit:10;}
	.st28{fill:#FFFFFF;stroke:#FFFFFF;stroke-width:0.1754;stroke-miterlimit:10;}
	.st29{fill:#561827;}
	.st30{fill:#B48995;}
	.st31{fill:#30151C;}
	.st32{fill:#7B5568;}
	.st33{fill:none;stroke:#24121B;stroke-width:3.8462;stroke-linecap:round;stroke-linejoin:round;stroke-miterlimit:10;}
	.st34{fill:none;stroke:#F9F9F9;stroke-width:3.4966;stroke-linecap:round;stroke-linejoin:round;stroke-miterlimit:10;}
	.st35{fill:#24121B;stroke:#24121B;stroke-width:0.3497;stroke-miterlimit:10;}
	.st36{fill:none;stroke:#24121B;stroke-width:2.6224;stroke-linecap:round;stroke-linejoin:round;stroke-miterlimit:10;}
	.st37{fill:#FFFFFF;stroke:url(#);stroke-width:0.1743;stroke-miterlimit:10;}
	.st38{fill:#1B2A37;}
	.st39{fill:#85C1D2;}
	.st40{fill:none;stroke:#1C3236;stroke-width:2.9702;stroke-linecap:round;stroke-linejoin:round;stroke-miterlimit:10;}
	.st41{fill:#72B4E6;}
	.st42{fill:#1C3236;}
	.st43{fill:#B1CDEE;}
	.st44{fill:#C3DFE7;}
	.st45{fill:#2E4D44;}
	.st46{fill:#DEC34A;}
	.st47{fill:#6E5A21;}
	.st48{fill:#4C3E1D;}
	.st49{fill:none;stroke:#FFFFFF;stroke-width:2.8139;stroke-miterlimit:10;}
	.st50{fill:#FFFFFF;stroke:#FFFFFF;stroke-width:2.8139;stroke-miterlimit:10;}
	.st51{fill:#E4B3CB;}
	.st52{fill:#8E1135;}
	.st53{fill:#372C71;stroke:#372C71;stroke-width:0.175;stroke-miterlimit:10;}
	.st54{fill:#2E151D;}
	.st55{fill:#CB4A7C;}
	.st56{fill:#371529;}
	.st57{fill:#E2ADCC;}
	.st58{fill:#611740;}
	.st59{fill:none;stroke:#FFFFFF;stroke-width:3.4966;stroke-miterlimit:10;}
	.st60{fill:#FFFFFF;stroke:#FFFFFF;stroke-width:3.4966;stroke-miterlimit:10;}
	.st61{fill:#6B267F;}
	.st62{fill:#BFC5C5;}
	.st63{fill:#713787;}
	.st64{fill:#331E40;}
	.st65{fill:#545F2C;}
	.st66{fill:#212E20;}
	.st67{fill:#9FAD35;}
	.st68{fill:#D3DC7E;}
	.st69{fill:#3E3D21;}
	.st70{fill:#281C3B;}
	.st71{fill:#AA98C6;}
	.st72{fill:#FFFFFF;stroke:#292D50;stroke-width:4.3695;stroke-miterlimit:10;}
	.st73{fill:#FFFFFF;stroke:#2A4125;stroke-width:4.3017;stroke-miterlimit:10;}
	.st74{fill:#2A4027;stroke:#2A4027;stroke-width:0.5162;stroke-miterlimit:10;}
	.st75{fill:#FFFFFF;stroke:#4E5DA3;stroke-width:4.382;stroke-miterlimit:10;}
	.st76{fill:none;stroke:#1C3236;stroke-width:2.9682;stroke-linecap:round;stroke-linejoin:round;stroke-miterlimit:10;}
	.st77{fill:#FFFFFF;stroke:#DC9927;stroke-width:2.409;stroke-miterlimit:10;}
	.st78{fill:#A36F24;}
	.st79{fill:#EDC7A4;stroke:#EDC7A4;stroke-width:2.2749;stroke-miterlimit:10;}
	.st80{fill:#932E1E;stroke:#932E1E;stroke-width:2.0999;stroke-miterlimit:10;}
	.st81{fill:#932E1E;stroke:#932E1E;stroke-width:2.2749;stroke-miterlimit:10;}
	.st82{fill:#DC9359;stroke:#DC9359;stroke-width:2.2749;stroke-miterlimit:10;}
	.st83{fill:#A37025;stroke:#A37025;stroke-width:2.2369;stroke-miterlimit:10;}
	.st84{fill:#DC9359;stroke:#DC9359;stroke-width:2.2369;stroke-miterlimit:10;}
	.st85{fill:#FFFFFF;stroke:#FFFFFF;stroke-width:2.2369;stroke-miterlimit:10;}
	.st86{fill:#456131;}
	.st87{fill:none;stroke:#1C3236;stroke-width:2.9311;stroke-linecap:round;stroke-linejoin:round;stroke-miterlimit:10;}
	.st88{fill:#FFFFFF;stroke:#FFFFFF;stroke-width:3.2693;stroke-miterlimit:10;}
	.st89{fill:#878888;}
	.st90{fill:none;stroke:#30151C;stroke-width:4.6663;stroke-miterlimit:10;}
	.st91{fill:none;stroke:#331E40;stroke-width:4.84;stroke-miterlimit:10;}
	.st92{fill:#FFFFFF;stroke:#FFFFFF;stroke-width:3.2843;stroke-miterlimit:10;}
	.st93{fill:none;stroke:#331E40;stroke-width:5.197;stroke-miterlimit:10;}
	.st94{fill:#FFFFFF;stroke:#FFFFFF;stroke-width:3.2914;stroke-miterlimit:10;}
	.st95{fill:none;stroke:#1E333F;stroke-width:5.2381;stroke-miterlimit:10;}
	.st96{fill:#FFFFFF;stroke:#FFFFFF;stroke-width:3.3174;stroke-miterlimit:10;}
	.st97{fill:#FFFFFF;stroke:#FFFFFF;stroke-width:3.2837;stroke-miterlimit:10;}
	.st98{fill:#5C7487;}
	.st99{fill:none;stroke:#24121B;stroke-width:3.7855;stroke-linecap:round;stroke-linejoin:round;stroke-miterlimit:10;}
	.st100{fill:none;stroke:#24121B;stroke-width:2.581;stroke-linecap:round;stroke-linejoin:round;stroke-miterlimit:10;}
	.st101{fill:#24121B;stroke:#24121B;stroke-width:0.3441;stroke-miterlimit:10;}
	.st102{fill:none;stroke:#F9F9F9;stroke-width:3.4414;stroke-linecap:round;stroke-linejoin:round;stroke-miterlimit:10;}
	.st103{fill:none;stroke:#30151C;stroke-width:4.6459;stroke-miterlimit:10;}
	.st104{fill:none;stroke:#1E333F;stroke-width:5.1724;stroke-miterlimit:10;}
	.st105{fill:#FFFFFF;stroke:#FFFFFF;stroke-width:3.2759;stroke-miterlimit:10;}
	.st106{fill:none;stroke:#1E333F;stroke-width:5.1621;stroke-miterlimit:10;}
	.st107{fill:none;stroke:#30151C;stroke-width:4.6905;stroke-miterlimit:10;}
	.st108{fill:#FFFFFF;stroke:#FFFFFF;stroke-width:3.3007;stroke-miterlimit:10;}
</style>
<g id="Capa_1">
	<rect class="st13" width="140" height="140.3"/>
	<rect x="92.1" y="89.9" class="st16" width="10.1" height="23.6"/>
</g>
<g id="Capa_2">
	<g id="XMLID_169_">
		<path id="XMLID_241_" class="st65" d="M98.2,108.8L98.2,108.8c0.4,0,0.8-0.2,1.2-0.5l18.1-17.1c0.3-0.3,0.5-0.8,0.5-1.2
			c0.2-0.3,0.3-0.6,0.3-1V25.7c0-3.9-3.2-7.2-7.2-7.2H50.9c-3.9,0-7.1,3.2-7.1,7.2v76.4c0,3.9,3.2,7.2,7.1,7.2H97
			C97.5,109.3,97.9,109.1,98.2,108.8z M99.9,103.2v-6.6c0-2.7,2.2-4.9,4.9-4.9h7.3L99.9,103.2z"/>
		<path id="XMLID_238_" class="st23" d="M59.2,45h43.7c1.1,0,2-0.9,2-2v-3.6c0-1.1-0.9-2-2-2H59.2c-1.1,0-2,0.9-2,2V43
			C57.2,44.1,58.1,45,59.2,45z M59.6,39.8h42.9v2.8H59.6V39.8z"/>
		<path id="XMLID_199_" class="st23" d="M59.2,57.4h43.7c1.1,0,2-0.9,2-2v-3.6c0-1.1-0.9-2-2-2H59.2c-1.1,0-2,0.9-2,2v3.6
			C57.2,56.5,58.1,57.4,59.2,57.4z M59.6,52.3h42.9V55H59.6V52.3z"/>
		<path id="XMLID_170_" class="st23" d="M104.9,67.9v-3.6c0-1.1-0.9-2-2-2H59.2c-1.1,0-2,0.9-2,2v3.6c0,1.1,0.9,2,2,2h43.7
			C104,69.9,104.9,69,104.9,67.9z M102.5,67.5H59.6v-2.8h42.9V67.5z"/>
	</g>
	<g>
		<g>
			<path class="st66" d="M38.7,121.6c-6.8,0-12.4-5.6-12.4-12.4c0-6.8,5.6-12.3,12.4-12.3c5.3,0,10,3.4,11.7,8.4h48.3
				c2.2,0,4,1.8,4,4c0,2.3-1.7,4-4,4h-1.4v4.8c0,1.9-1.6,3.5-3.5,3.5c-1.9,0-3.5-1.6-3.5-3.5v-4.8h-2.6v4.8c0,1.9-1.6,3.5-3.5,3.5
				s-3.5-1.6-3.5-3.5v-4.8H50.4c-0.8,2.3-2.2,4.3-4.1,5.8C44.1,120.7,41.5,121.6,38.7,121.6z"/>
		</g>
	</g>
	<path class="st23" d="M44.7,109.1c0,3.5-2.9,6.4-6.4,6.4c-3.5,0-6.4-2.9-6.4-6.4c0-3.5,2.9-6.4,6.4-6.4
		C41.8,102.7,44.7,105.6,44.7,109.1z"/>
	<g>
		<g>
			<path class="st67" d="M48.2,46.2h-8.8c-2,0-3.7-1.6-3.7-3.7l0,0c0-2,1.6-3.7,3.7-3.7h8.8c2,0,3.7,1.6,3.7,3.7l0,0
				C51.9,44.5,50.2,46.2,48.2,46.2z"/>
		</g>
	</g>
	<g>
		<g>
			<rect x="39.4" y="46.2" class="st67" width="8.8" height="7.8"/>
		</g>
	</g>
	<g>
		<g>
			<path class="st66" d="M48.2,47.6h-8.8c-2.8,0-5.1-2.3-5.1-5.1c0-2.8,2.3-5.1,5.1-5.1h8.8c2.8,0,5.1,2.3,5.1,5.1
				C53.3,45.3,51,47.6,48.2,47.6z M39.4,40.2c-1.2,0-2.3,1-2.3,2.3s1,2.3,2.3,2.3h8.8c1.2,0,2.3-1,2.3-2.3s-1-2.3-2.3-2.3H39.4z"/>
		</g>
	</g>
	<g>
		<g>
			<path class="st66" d="M48.2,55.4h-8.8c-0.8,0-1.4-0.6-1.4-1.4v-7.8c0-0.8,0.6-1.4,1.4-1.4h8.8c0.8,0,1.4,0.6,1.4,1.4V54
				C49.6,54.7,49,55.4,48.2,55.4z M40.8,52.6h6v-5h-6V52.6z"/>
		</g>
	</g>
	<g>
		<g>
			<path class="st68" d="M64.2,71.8c0,11.3-9.2,20.6-20.6,20.6c-11.4,0-20.6-9.2-20.6-20.6c0-11.3,9.2-20.6,20.6-20.6
				C55,51.2,64.2,60.4,64.2,71.8z"/>
		</g>
	</g>
	<g>
		<g>
			<path class="st67" d="M43.7,51.2c-0.9,0-1.8,0.1-2.7,0.2c10.1,1.3,17.8,9.9,17.8,20.4c0,10.4-7.8,19-17.8,20.4
				c0.9,0.1,1.8,0.2,2.7,0.2c11.3,0,20.6-9.2,20.6-20.6S55,51.2,43.7,51.2z"/>
		</g>
	</g>
	<g>
		<g>
			
				<ellipse transform="matrix(0.2898 -0.9571 0.9571 0.2898 -37.6894 92.7715)" class="st23" cx="43.7" cy="71.8" rx="15.1" ry="15.1"/>
		</g>
	</g>
	<g>
		<g>
			<path class="st66" d="M43.8,73.2c-0.8,0-1.4-0.6-1.4-1.4V61.1c0-0.8,0.6-1.4,1.4-1.4c0.8,0,1.4,0.6,1.4,1.4v10.7
				C45.2,72.6,44.6,73.2,43.8,73.2z"/>
		</g>
	</g>
	<g>
		<g>
			<path class="st66" d="M43.7,93.7c-12.1,0-22-9.8-22-22c0-12.1,9.8-22,22-22c12.1,0,22,9.8,22,22C65.6,83.9,55.8,93.7,43.7,93.7z
				 M43.7,52.6c-10.6,0-19.1,8.6-19.1,19.1c0,10.6,8.6,19.1,19.1,19.1c10.6,0,19.1-8.6,19.1-19.1C62.8,61.2,54.2,52.6,43.7,52.6z"/>
		</g>
	</g>
	<g>
		<g>
			<path class="st66" d="M43.7,88.2c-9.1,0-16.5-7.4-16.5-16.5c0-9.1,7.4-16.5,16.5-16.5c9.1,0,16.5,7.4,16.5,16.5
				C60.1,80.9,52.7,88.2,43.7,88.2z M43.7,58.1c-7.5,0-13.7,6.1-13.7,13.7c0,7.5,6.1,13.7,13.7,13.7c7.5,0,13.7-6.1,13.7-13.7
				C57.3,64.2,51.2,58.1,43.7,58.1z"/>
		</g>
	</g>
</g>
<g id="Capa_3">
</g>
</svg>
