<?xml version="1.0" encoding="utf-8"?>
<!-- Generator: Adobe Illustrator 24.0.2, SVG Export Plug-In . SVG Version: 6.00 Build 0)  -->
<svg version="1.1" xmlns="http://www.w3.org/2000/svg" xmlns:xlink="http://www.w3.org/1999/xlink" x="0px" y="0px"
	 viewBox="0 0 800 800" style="enable-background:new 0 0 800 800;" xml:space="preserve">
<style type="text/css">
	.st0{fill:#E9C43B;}
	.st1{fill:#D65037;}
	.st2{fill:#92300E;}
	.st3{fill:#E5133A;}
	.st4{fill:#A70933;}
	.st5{fill:#794852;}
	.st6{fill:#9F134F;}
	.st7{fill:#56323F;}
	.st8{fill:#7B2182;}
	.st9{fill:#702E88;}
	.st10{fill:#222851;}
	.st11{fill:#445CA7;}
	.st12{fill:#2D97CD;}
	.st13{fill:#005461;}
	.st14{fill:#00A18E;}
	.st15{fill:#B0CC36;}
	.st16{fill:#959150;}
	.st17{fill:#F09A04;}
	.st18{fill:#E84B1E;}
	.st19{fill:#A71737;}
	.st20{fill:#4DBCC0;}
	.st21{fill:#AA2A17;stroke:#AA2A17;stroke-width:27;stroke-miterlimit:10;}
	.st22{fill:#FFFFFF;}
	.st23{fill:#54120F;}
	.st24{fill:#F9FAFA;}
	.st25{fill:#CE7C6A;}
	.st26{fill:none;stroke:#3C160E;stroke-width:2;stroke-linecap:round;stroke-linejoin:round;stroke-miterlimit:10;}
	.st27{fill:#FFFFFF;stroke:#FFFFFF;stroke-miterlimit:10;}
	.st28{fill:#631123;}
	.st29{fill:#392874;stroke:#392874;stroke-miterlimit:10;}
	.st30{fill:#310D17;}
	.st31{fill:#C48A97;}
	.st32{fill:#340D16;}
	.st33{fill:none;stroke:#240914;stroke-width:2;stroke-linecap:round;stroke-linejoin:round;stroke-miterlimit:10;}
	.st34{fill:none;stroke:#F9FAFA;stroke-width:2;stroke-linecap:round;stroke-linejoin:round;stroke-miterlimit:10;}
	.st35{fill:#240914;stroke:#240914;stroke-width:0.5;stroke-miterlimit:10;}
	.st36{fill:#F9FAFA;stroke:#240914;stroke-miterlimit:10;}
	.st37{fill:#875569;}
	.st38{fill:none;stroke:#240914;stroke-linecap:round;stroke-linejoin:round;stroke-miterlimit:10;}
	.st39{fill:#FFFFFF;stroke:url(#);stroke-miterlimit:10;}
	.st40{fill:#072634;}
	.st41{fill:#61C3D4;}
	.st42{fill:none;stroke:#002E33;stroke-width:2;stroke-linecap:round;stroke-linejoin:round;stroke-miterlimit:10;}
	.st43{fill:#3FB6E9;}
	.st44{fill:#002E33;}
	.st45{fill:#A5CFF0;}
	.st46{fill:#B8E0E8;}
	.st47{fill:#094C42;}
	.st48{fill:#755A14;}
	.st49{fill:#503C14;}
	.st50{fill:none;stroke:#FFFFFF;stroke-width:16;stroke-miterlimit:10;}
	.st51{fill:#FFFFFF;stroke:#FFFFFF;stroke-width:16;stroke-miterlimit:10;}
	.st52{fill:#F5B4CD;}
	.st53{fill:#E9487F;}
	.st54{fill:#3C0D26;}
	.st55{fill:#F4AFCF;}
	.st56{fill:#721040;}
	.st57{fill:none;stroke:#FFFFFF;stroke-width:2;stroke-miterlimit:10;}
	.st58{fill:#FFFFFF;stroke:#FFFFFF;stroke-width:2;stroke-miterlimit:10;}
	.st59{fill:#BFC6C7;}
	.st60{fill:#81338B;}
	.st61{fill:#36183F;}
	.st62{fill:#4E5F23;}
	.st63{fill:#122A19;}
	.st64{fill:#9AAF20;}
	.st65{fill:#D1DD78;}
	.st66{fill:#3C3A19;}
	.st67{fill:#281639;}
	.st68{fill:#B299C9;}
	.st69{fill:#FFFFFF;stroke:#222950;stroke-width:3;stroke-miterlimit:10;}
	.st70{fill:#DDDDDD;}
	.st71{fill:#FFFFFF;stroke:#455DA7;stroke-width:3;stroke-miterlimit:10;}
	.st72{fill:none;stroke:#002E33;stroke-width:17;stroke-linecap:round;stroke-linejoin:round;stroke-miterlimit:10;}
	.st73{fill:#FFFFFF;stroke:#F19B09;stroke-width:14;stroke-miterlimit:10;}
	.st74{fill:#B57015;}
	.st75{fill:#FAC8A4;stroke:#FAC8A4;stroke-width:13;stroke-miterlimit:10;}
	.st76{fill:#AA2A17;stroke:#AA2A17;stroke-width:12;stroke-miterlimit:10;}
	.st77{fill:#AA2A17;stroke:#AA2A17;stroke-width:13;stroke-miterlimit:10;}
	.st78{fill:#F39454;stroke:#F39454;stroke-width:13;stroke-miterlimit:10;}
	.st79{fill:#B57016;stroke:#B57016;stroke-width:13;stroke-miterlimit:10;}
	.st80{fill:#FFFFFF;stroke:#FFFFFF;stroke-width:13;stroke-miterlimit:10;}
	.st81{fill:#326129;}
	.st82{fill:none;stroke:#36183F;stroke-width:30;stroke-miterlimit:10;}
	.st83{fill:none;stroke:#36183F;stroke-width:28;stroke-miterlimit:10;}
	.st84{fill:#FFFFFF;stroke:#FFFFFF;stroke-width:19;stroke-miterlimit:10;}
	.st85{fill:#888989;}
	.st86{fill:#4F7589;}
	.st87{fill:none;stroke:#240914;stroke-width:22;stroke-linecap:round;stroke-linejoin:round;stroke-miterlimit:10;}
	.st88{fill:none;stroke:#240914;stroke-width:15;stroke-linecap:round;stroke-linejoin:round;stroke-miterlimit:10;}
	.st89{fill:#240914;stroke:#240914;stroke-width:2;stroke-miterlimit:10;}
	.st90{fill:none;stroke:#F9FAFA;stroke-width:20;stroke-linecap:round;stroke-linejoin:round;stroke-miterlimit:10;}
	.st91{fill:none;stroke:#340D16;stroke-width:27;stroke-miterlimit:10;}
	.st92{fill:none;stroke:#04303D;stroke-width:30;stroke-miterlimit:10;}
	.st93{fill:#D56D0D;}
	.st94{fill:#50AE32;}
	.st95{fill:#FFFFFF;stroke:#153E20;stroke-width:3;stroke-miterlimit:10;}
	.st96{fill:#1A7B34;}
	.st97{fill:#FFFFFF;stroke:#8EC479;stroke-width:3;stroke-miterlimit:10;}
	.st98{fill:#300F18;}
	.st99{fill:#E72F73;}
	.st100{fill:#024444;}
	.st101{fill:#EA4F93;}
	.st102{fill:#BCE2EB;}
</style>
<g id="Capa_1">
	<rect x="-9.82" y="-15.98" class="st20" width="823.9" height="823.9"/>
</g>
<g id="Capa_2">
	<path id="XMLID_43_" class="st29" d="M346.89,460.58c-0.03-4.05-2.13-6.94-6.26-8.63v16.89l0.73-0.31
		C345.08,466.65,346.9,464,346.89,460.58z"/>
	<path class="st22" d="M695.05,487.33c-2.08-2.87-5.41-4.57-8.97-4.57c-30.66,0-51.45-16.45-75.53-35.5
		c-5.22-4.13-10.49-8.3-15.92-12.33c-22.02-16.4-49.94-33.17-89.99-33.17c-16.98,0-30.7,0.17-41.58,0.52h-47.77
		c-0.01-0.26-0.02-0.52-0.03-0.78c-1.83,4.62-3.95,9.15-5.92,13.69c-2.11,4.86-3.55,9.9-4.77,15c0,0.2,0.01,0.41,0.01,0.61
		c0.12,13.21,0.11,28.19-3.48,41.66h55.71c10.68,2.31,18.34,12.46,18.34,24.5c0,8.66-4.17,16.66-10.98,21.2
		c-3.46,0.98-11.16,3.16-21.31,6.02l-7.93,2.24c-9.83,2.52-20.03,5.4-30.09,8.5l-1.99,0.56c-43.31,12.21-70.85,19.9-78.23,21.83
		c-2.3,0.09-4.42,0-6.18-0.27l-20.05-13.86c2.38-0.26,4.75-0.6,7.11-1c-0.79-0.4-1.55-0.89-2.27-1.45
		c-22.11-17.48-48.43-28.43-71.78-44.04c-1.17,7.17-8.95,13.4-15.94,15.86c-5.9,2.08-12.65,2.21-19.11,0.77
		c-2.12,6.14-3.85,12.44-5.66,18.47c-0.01,0.05-0.03,0.1-0.04,0.15c1.05,16.84,0.73,33.45-7.38,48.42
		c-1.09,2.02-2.55,3.33-4.17,4.05l147.31,113.88c1,0.78,2.09,1.35,3.22,1.74l1.56,0.65c0.2,0.09,0.41,0.16,0.61,0.24
		c9.91,3.64,18.97,4.26,28.62,2.25c0.22-0.05,0.44-0.1,0.66-0.16l0.97-0.27c90.16-24.48,210-56.9,268.98-72.4
		c0.45-0.12,0.89-0.27,1.33-0.44l3.99-1.57c21.99-5.87,39.55-9.1,49.49-9.1c6.13,0,11.1-4.97,11.1-11.1v-8.11
		c0.13-0.69,0.19-1.38,0.17-2.09L697,495.81C697.53,492.85,696.85,489.79,695.05,487.33z"/>
	<path class="st22" d="M198.55,455.24l169.47,133.28c24.41,19.2,28.64,54.56,9.44,78.97l0,0c-19.2,24.41-54.56,28.64-78.97,9.44
		L129.02,543.65c-24.41-19.2-28.64-54.56-9.44-78.97l0,0C138.78,440.27,174.14,436.04,198.55,455.24z"/>
	<g id="XMLID_19_">
		<path id="XMLID_76_" class="st100" d="M377.35,483.98c14.85,0,26.96-12.05,27.01-26.92l0.49-149.29
			c0.05-14.89-12.03-27.05-26.92-27.1l-245.27-0.8c-0.03,0-0.06,0-0.09,0c-14.85,0-26.97,12.06-27.02,26.92l-0.48,149.3
			c-0.02,7.22,2.76,14.01,7.84,19.13c5.09,5.12,11.86,7.95,19.07,7.97l245.27,0.8C377.28,483.98,377.32,483.98,377.35,483.98z"/>
		<path id="XMLID_49_" class="st20" d="M363.45,303.52h-56.87c-1.57,0-2.84,1.27-2.84,2.84v75.56c0,1.57,1.27,2.84,2.84,2.84h56.87
			c1.57,0,2.84-1.28,2.84-2.84v-75.56C366.29,304.79,365.02,303.52,363.45,303.52z"/>
		<path id="XMLID_48_" class="st20" d="M151.63,406.23h88.14c3.14,0,5.69-2.55,5.69-5.68c0-3.14-2.54-5.69-5.69-5.69h-88.14
			c-3.14,0-5.69,2.55-5.69,5.69C145.94,403.68,148.48,406.23,151.63,406.23z"/>
		<path id="XMLID_20_" class="st20" d="M280.99,427.56H151.63c-3.14,0-5.69,2.54-5.69,5.68c0,3.14,2.54,5.69,5.69,5.69h129.37
			c3.14,0,5.69-2.54,5.69-5.69C286.68,430.1,284.13,427.56,280.99,427.56z"/>
	</g>
	<g>
		<path class="st102" d="M612.55,379.41H459.2c-25.02,0-45.48-20.47-45.48-45.48V143.65c0-25.02,20.47-45.48,45.48-45.48h153.35
			c25.02,0,45.48,20.47,45.48,45.48v190.27C658.03,358.94,637.57,379.41,612.55,379.41z"/>
		<rect x="451.14" y="147.27" class="st20" width="164.94" height="56.6"/>
		<rect x="451.14" y="218.81" class="st20" width="47.06" height="26.46"/>
		<rect x="509.24" y="218.81" class="st20" width="47.06" height="26.46"/>
		<rect x="566.7" y="218.81" class="st20" width="47.06" height="67.85"/>
		<rect x="450.68" y="260.21" class="st20" width="47.06" height="26.46"/>
		<rect x="508.79" y="260.21" class="st20" width="47.06" height="26.46"/>
		<rect x="450.68" y="298.04" class="st20" width="47.06" height="26.46"/>
		<rect x="508.79" y="298.04" class="st20" width="47.06" height="26.46"/>
		<rect x="566.24" y="298.04" class="st20" width="47.06" height="26.46"/>
		<g>
			<g>
				<g>
					<path class="st100" d="M584.34,157.19c1.07,0,1.92,0.85,1.92,1.92v0.98c2.64,0.31,4.88,1.16,6.93,2.46
						c0.72,0.4,1.34,1.07,1.34,2.15c0,1.39-1.12,2.46-2.51,2.46c-0.45,0-0.89-0.13-1.34-0.4c-1.57-0.94-3.09-1.61-4.61-1.97v8.59
						c6.8,1.7,9.71,4.43,9.71,9.21c0,4.92-3.85,8.19-9.53,8.72V194c0,1.07-0.85,1.92-1.92,1.92c-1.07,0-1.97-0.85-1.97-1.92v-2.77
						c-3.35-0.36-6.44-1.57-9.17-3.49c-0.76-0.49-1.21-1.21-1.21-2.15c0-1.39,1.07-2.46,2.46-2.46c0.54,0,1.07,0.18,1.48,0.49
						c2.1,1.52,4.16,2.55,6.62,3v-8.81c-6.53-1.7-9.57-4.16-9.57-9.21c0-4.79,3.8-8.1,9.39-8.54v-0.94
						C582.37,158.04,583.27,157.19,584.34,157.19z M582.55,172.44v-7.92c-2.86,0.27-4.29,1.79-4.29,3.76
						C578.26,170.16,579.11,171.33,582.55,172.44z M586.09,178.66v8.14c2.86-0.31,4.43-1.74,4.43-3.89
						C590.52,180.94,589.53,179.73,586.09,178.66z"/>
				</g>
			</g>
		</g>
		<g>
			<g>
				<g>
					<path class="st100" d="M550.8,157.19c1.07,0,1.92,0.85,1.92,1.92v0.98c2.64,0.31,4.88,1.16,6.93,2.46
						c0.72,0.4,1.34,1.07,1.34,2.15c0,1.39-1.12,2.46-2.51,2.46c-0.45,0-0.89-0.13-1.34-0.4c-1.57-0.94-3.09-1.61-4.61-1.97v8.59
						c6.8,1.7,9.71,4.43,9.71,9.21c0,4.92-3.85,8.19-9.53,8.72V194c0,1.07-0.85,1.92-1.92,1.92c-1.07,0-1.97-0.85-1.97-1.92v-2.77
						c-3.35-0.36-6.44-1.57-9.17-3.49c-0.76-0.49-1.21-1.21-1.21-2.15c0-1.39,1.07-2.46,2.46-2.46c0.54,0,1.07,0.18,1.48,0.49
						c2.1,1.52,4.16,2.55,6.62,3v-8.81c-6.53-1.7-9.57-4.16-9.57-9.21c0-4.79,3.8-8.1,9.39-8.54v-0.94
						C548.83,158.04,549.72,157.19,550.8,157.19z M549.01,172.44v-7.92c-2.86,0.27-4.29,1.79-4.29,3.76
						C544.71,170.16,545.56,171.33,549.01,172.44z M552.54,178.66v8.14c2.86-0.31,4.43-1.74,4.43-3.89
						C556.97,180.94,555.98,179.73,552.54,178.66z"/>
				</g>
			</g>
		</g>
		<g>
			<g>
				<g>
					<path class="st100" d="M515.17,156.98c1.07,0,1.92,0.85,1.92,1.92v0.98c2.64,0.31,4.88,1.16,6.93,2.46
						c0.72,0.4,1.34,1.07,1.34,2.15c0,1.39-1.12,2.46-2.51,2.46c-0.45,0-0.89-0.13-1.34-0.4c-1.57-0.94-3.09-1.61-4.61-1.97v8.59
						c6.8,1.7,9.71,4.43,9.71,9.21c0,4.92-3.85,8.19-9.53,8.72v2.68c0,1.07-0.85,1.92-1.92,1.92c-1.07,0-1.97-0.85-1.97-1.92v-2.77
						c-3.35-0.36-6.44-1.57-9.17-3.49c-0.76-0.49-1.21-1.21-1.21-2.15c0-1.39,1.07-2.46,2.46-2.46c0.54,0,1.07,0.18,1.48,0.49
						c2.1,1.52,4.16,2.55,6.62,3v-8.81c-6.53-1.7-9.57-4.16-9.57-9.21c0-4.79,3.8-8.1,9.39-8.54v-0.94
						C513.2,157.83,514.09,156.98,515.17,156.98z M513.38,172.23v-7.92c-2.86,0.27-4.29,1.79-4.29,3.76
						C509.08,169.95,509.93,171.11,513.38,172.23z M516.91,178.45v8.14c2.86-0.31,4.43-1.74,4.43-3.89
						C521.34,180.73,520.36,179.52,516.91,178.45z"/>
				</g>
			</g>
		</g>
	</g>
	<path class="st22" d="M322.79,402.59h181.85c4.24,0,7.68,3.44,7.68,7.68v55.31c0,4.24-3.44,7.68-7.68,7.68H322.79
		c-4.24,0-7.68-3.44-7.68-7.68v-55.31C315.12,406.03,318.55,402.59,322.79,402.59z"/>
</g>
<g id="Capa_3">
</g>
</svg>
