<?xml version="1.0" encoding="utf-8"?>
<!-- Generator: Adobe Illustrator 23.0.6, SVG Export Plug-In . SVG Version: 6.00 Build 0)  -->
<svg version="1.1" xmlns="http://www.w3.org/2000/svg" xmlns:xlink="http://www.w3.org/1999/xlink" x="0px" y="0px"
	 viewBox="0 0 140 140" style="enable-background:new 0 0 140 140;" xml:space="preserve">
<style type="text/css">
	.st0{fill:#BE6D20;}
	.st1{fill:#BB513B;}
	.st2{fill:#7F3318;}
	.st3{fill:#C41A3B;}
	.st4{fill:#871A4F;}
	.st5{fill:#623284;}
	.st6{fill:#292C51;}
	.st7{fill:#4D5CA3;}
	.st8{fill:#5C95C9;}
	.st9{fill:#005460;}
	.st10{fill:#3BA08D;}
	.st11{fill:#74AC40;}
	.st12{fill:#497A3C;}
	.st13{fill:#B7CA47;}
	.st14{fill:#939054;}
	.st15{fill:#FFFFFF;stroke:#9EC37D;stroke-width:4.3502;stroke-miterlimit:10;}
	.st16{fill:#DCDCDC;}
	.st17{fill:#497B3C;stroke:#497B3C;stroke-width:0.522;stroke-miterlimit:10;}
	.st18{fill:#DB9825;}
	.st19{fill:#CA4D26;}
	.st20{fill:#6E4953;}
	.st21{fill:#4F3541;}
	.st22{fill:#932E1E;stroke:#932E1E;stroke-width:4.7249;stroke-miterlimit:10;}
	.st23{fill:#FFFFFF;}
	.st24{fill:#4A1917;}
	.st25{fill:#F9F9F9;}
	.st26{fill:#BA7B6A;}
	.st27{fill:none;stroke:#371C16;stroke-width:2.6204;stroke-linecap:round;stroke-linejoin:round;stroke-miterlimit:10;}
	.st28{fill:#FFFFFF;stroke:#FFFFFF;stroke-width:0.1754;stroke-miterlimit:10;}
	.st29{fill:#561827;}
	.st30{fill:#B48995;}
	.st31{fill:#30151C;}
	.st32{fill:#7B5568;}
	.st33{fill:none;stroke:#24121B;stroke-width:3.8462;stroke-linecap:round;stroke-linejoin:round;stroke-miterlimit:10;}
	.st34{fill:none;stroke:#F9F9F9;stroke-width:3.4966;stroke-linecap:round;stroke-linejoin:round;stroke-miterlimit:10;}
	.st35{fill:#24121B;stroke:#24121B;stroke-width:0.3497;stroke-miterlimit:10;}
	.st36{fill:none;stroke:#24121B;stroke-width:2.6224;stroke-linecap:round;stroke-linejoin:round;stroke-miterlimit:10;}
	.st37{fill:#FFFFFF;stroke:url(#);stroke-width:0.1743;stroke-miterlimit:10;}
	.st38{fill:#1B2A37;}
	.st39{fill:#85C1D2;}
	.st40{fill:none;stroke:#1C3236;stroke-width:2.9702;stroke-linecap:round;stroke-linejoin:round;stroke-miterlimit:10;}
	.st41{fill:#72B4E6;}
	.st42{fill:#1C3236;}
	.st43{fill:#B1CDEE;}
	.st44{fill:#C3DFE7;}
	.st45{fill:#2E4D44;}
	.st46{fill:#DEC34A;}
	.st47{fill:#6E5A21;}
	.st48{fill:#4C3E1D;}
	.st49{fill:none;stroke:#FFFFFF;stroke-width:2.8139;stroke-miterlimit:10;}
	.st50{fill:#FFFFFF;stroke:#FFFFFF;stroke-width:2.8139;stroke-miterlimit:10;}
	.st51{fill:#E4B3CB;}
	.st52{fill:#8E1135;}
	.st53{fill:#372C71;stroke:#372C71;stroke-width:0.175;stroke-miterlimit:10;}
	.st54{fill:#2E151D;}
	.st55{fill:#CB4A7C;}
	.st56{fill:#371529;}
	.st57{fill:#E2ADCC;}
	.st58{fill:#611740;}
	.st59{fill:none;stroke:#FFFFFF;stroke-width:3.4966;stroke-miterlimit:10;}
	.st60{fill:#FFFFFF;stroke:#FFFFFF;stroke-width:3.4966;stroke-miterlimit:10;}
	.st61{fill:#6B267F;}
	.st62{fill:#BFC5C5;}
	.st63{fill:#713787;}
	.st64{fill:#331E40;}
	.st65{fill:#545F2C;}
	.st66{fill:#212E20;}
	.st67{fill:#9FAD35;}
	.st68{fill:#D3DC7E;}
	.st69{fill:#3E3D21;}
	.st70{fill:#281C3B;}
	.st71{fill:#AA98C6;}
	.st72{fill:#FFFFFF;stroke:#292D50;stroke-width:4.3695;stroke-miterlimit:10;}
	.st73{fill:#FFFFFF;stroke:#2A4125;stroke-width:4.3017;stroke-miterlimit:10;}
	.st74{fill:#2A4027;stroke:#2A4027;stroke-width:0.5162;stroke-miterlimit:10;}
	.st75{fill:#FFFFFF;stroke:#4E5DA3;stroke-width:4.382;stroke-miterlimit:10;}
	.st76{fill:none;stroke:#1C3236;stroke-width:2.9682;stroke-linecap:round;stroke-linejoin:round;stroke-miterlimit:10;}
	.st77{fill:#FFFFFF;stroke:#DC9927;stroke-width:2.409;stroke-miterlimit:10;}
	.st78{fill:#A36F24;}
	.st79{fill:#EDC7A4;stroke:#EDC7A4;stroke-width:2.2749;stroke-miterlimit:10;}
	.st80{fill:#932E1E;stroke:#932E1E;stroke-width:2.0999;stroke-miterlimit:10;}
	.st81{fill:#932E1E;stroke:#932E1E;stroke-width:2.2749;stroke-miterlimit:10;}
	.st82{fill:#DC9359;stroke:#DC9359;stroke-width:2.2749;stroke-miterlimit:10;}
	.st83{fill:#A37025;stroke:#A37025;stroke-width:2.2369;stroke-miterlimit:10;}
	.st84{fill:#DC9359;stroke:#DC9359;stroke-width:2.2369;stroke-miterlimit:10;}
	.st85{fill:#FFFFFF;stroke:#FFFFFF;stroke-width:2.2369;stroke-miterlimit:10;}
	.st86{fill:#456131;}
	.st87{fill:none;stroke:#1C3236;stroke-width:2.9311;stroke-linecap:round;stroke-linejoin:round;stroke-miterlimit:10;}
	.st88{fill:#FFFFFF;stroke:#FFFFFF;stroke-width:3.2693;stroke-miterlimit:10;}
	.st89{fill:#878888;}
	.st90{fill:none;stroke:#30151C;stroke-width:4.6663;stroke-miterlimit:10;}
	.st91{fill:none;stroke:#331E40;stroke-width:4.84;stroke-miterlimit:10;}
	.st92{fill:#FFFFFF;stroke:#FFFFFF;stroke-width:3.2843;stroke-miterlimit:10;}
	.st93{fill:none;stroke:#331E40;stroke-width:5.197;stroke-miterlimit:10;}
	.st94{fill:#FFFFFF;stroke:#FFFFFF;stroke-width:3.2914;stroke-miterlimit:10;}
	.st95{fill:none;stroke:#1E333F;stroke-width:5.2381;stroke-miterlimit:10;}
	.st96{fill:#FFFFFF;stroke:#FFFFFF;stroke-width:3.3174;stroke-miterlimit:10;}
	.st97{fill:#FFFFFF;stroke:#FFFFFF;stroke-width:3.2837;stroke-miterlimit:10;}
	.st98{fill:#5C7487;}
	.st99{fill:none;stroke:#24121B;stroke-width:3.7855;stroke-linecap:round;stroke-linejoin:round;stroke-miterlimit:10;}
	.st100{fill:none;stroke:#24121B;stroke-width:2.581;stroke-linecap:round;stroke-linejoin:round;stroke-miterlimit:10;}
	.st101{fill:#24121B;stroke:#24121B;stroke-width:0.3441;stroke-miterlimit:10;}
	.st102{fill:none;stroke:#F9F9F9;stroke-width:3.4414;stroke-linecap:round;stroke-linejoin:round;stroke-miterlimit:10;}
	.st103{fill:none;stroke:#30151C;stroke-width:4.6459;stroke-miterlimit:10;}
	.st104{fill:none;stroke:#1E333F;stroke-width:5.1724;stroke-miterlimit:10;}
	.st105{fill:#FFFFFF;stroke:#FFFFFF;stroke-width:3.2759;stroke-miterlimit:10;}
	.st106{fill:none;stroke:#1E333F;stroke-width:5.1621;stroke-miterlimit:10;}
	.st107{fill:none;stroke:#30151C;stroke-width:4.6905;stroke-miterlimit:10;}
	.st108{fill:#FFFFFF;stroke:#FFFFFF;stroke-width:3.3007;stroke-miterlimit:10;}
</style>
<g id="Capa_1">
</g>
<g id="Capa_2">
	<g>
		<rect x="0" class="st61" width="140.1" height="140.1"/>
		<g>
			<g>
				<path class="st62" d="M111.1,47.2v30.1c0-3.1-2.5-5.6-5.6-5.6H69.7l-5.9-5.9c-1.1-1.1-2.5-1.7-4-1.7H34c-3.1,0-5.6,2.5-5.6,5.6
					V54.8c0-3.1,2.5-5.6,5.6-5.6h35.8l5.9-5.9c1.1-1.1,2.5-1.7,4-1.7h25.9C108.6,41.6,111.1,44.1,111.1,47.2z"/>
			</g>
			<g>
				<path class="st25" d="M103.6,51v3.8c0,1-0.8,1.9-1.9,1.9H94l-1.3-7.5h9C102.8,49.1,103.6,50,103.6,51z"/>
			</g>
			<g>
				<path class="st25" d="M96.7,71.7h-27l-5.9-5.9c-1.1-1.1-2.5-1.7-4-1.7h-18l-4-23c-0.4-2,1-4,3-4.4l37.1-6.5l13.4,11L96.7,71.7z"
					/>
			</g>
			<g>
				<path class="st62" d="M91.3,41.3l-7.4,1.3c-2,0.4-4-1-4.4-3.1l-1.6-9.3L91.3,41.3z"/>
			</g>
			<g>
				<g>
					
						<ellipse transform="matrix(0.8322 -0.5544 0.5544 0.8322 -20.3175 46.8972)" class="st63" cx="67.3" cy="57" rx="15.1" ry="15.1"/>
				</g>
			</g>
			<g>
				<path class="st25" d="M111.1,77.4v30.1c0,3.1-2.5,5.6-5.6,5.6H34c-3.1,0-5.6-2.5-5.6-5.6V69.8c0-3.1,2.5-5.6,5.6-5.6h25.9
					c1.5,0,2.9,0.6,4,1.7l5.9,5.9h35.8C108.6,71.7,111.1,74.2,111.1,77.4z"/>
			</g>
			<path class="st64" d="M105.5,39.7H92.3L79.1,28.9c-0.5-0.4-1.1-0.5-1.7-0.4L40.5,35c-3.1,0.5-5.1,3.5-4.6,6.5l1,5.7h-3
				c-4.2,0-7.5,3.4-7.5,7.5c0,18.1,0,33.2,0,52.7c0,4.2,3.4,7.5,7.5,7.5h71.5c4.2,0,7.5-3.4,7.5-7.5c0-21.4,0-38.9,0-60.2
				C113,43.1,109.6,39.7,105.5,39.7z M105.5,43.5c2.1,0,3.8,1.7,3.8,3.8v23.6c-2.3-1.3-3.4-1-11-1l-2-11.3h5.5
				c2.1,0,3.8-1.7,3.8-3.8V51c0-2.1-1.7-3.8-3.8-3.8h-7.5l-0.7-3.8H105.5z M94.9,51h6.8v3.8h-6.1L94.9,51z M86.4,39.7L86.4,39.7
				l0.5,0.5l-3.4,0.6c-0.8,0.1-1.7-0.3-2-1.1c-0.2-0.3-0.1-0.1-0.9-4.7L86.4,39.7z M39.6,40.9c-0.2-1,0.5-2,1.5-2.2l35.2-6.2
				l1.3,7.4c0,0,0,0.1,0,0.1c0.5,2.7,2.9,4.6,5.6,4.6c0.7,0,0.8-0.1,6.5-1.1c1.6,8.8-1.1-6.5,4.6,26.3H70.5l-5.3-5.3
				c-1.4-1.4-3.4-2.2-5.3-2.2H43.4C40.3,44.6,41.1,49.3,39.6,40.9z M30.2,54.8c0-2.1,1.7-3.8,3.8-3.8h3.7l2,11.3
				c-5.7,0-7.2-0.3-9.4,1V54.8z M109.3,107.5c0,2.1-1.7,3.8-3.8,3.8H34c-2.1,0-3.8-1.7-3.8-3.8c0-13.1,0-24.6,0-37.6
				c0-2.1,1.7-3.8,3.8-3.8c5.3,0,17.7,0,25.9,0c1,0,2,0.4,2.7,1.1l5.9,5.9c0.4,0.3,0.8,0.5,1.3,0.5h35.8c2.1,0,3.8,1.7,3.8,3.8
				C109.3,86.3,109.3,98.3,109.3,107.5z"/>
			<g>
				<rect x="35.8" y="73.6" class="st62" width="3.8" height="3.8"/>
			</g>
			<g>
				<rect x="43.4" y="73.6" class="st62" width="3.8" height="3.8"/>
			</g>
			<g>
				<rect x="50.9" y="73.6" class="st62" width="3.8" height="3.8"/>
			</g>
			<g>
				<path class="st62" d="M103,107.5H81.6c-0.3,0-0.6-0.3-0.6-0.6V96.8c0-0.3,0.3-0.6,0.6-0.6H103c0.3,0,0.6,0.3,0.6,0.6v10.1
					C103.6,107.2,103.3,107.5,103,107.5z"/>
			</g>
		</g>
		<g>
			<g id="XMLID_129_">
				<path id="XMLID_132_" class="st93" d="M48.5,48.1H31.3c-0.6,0-1-0.5-1-1V31.6h19.3v15.5C49.5,47.7,49.1,48.1,48.5,48.1z"/>
				<g id="XMLID_130_">
					<path id="XMLID_131_" class="st93" d="M46.9,31.4h-0.5v-3c0-3.6-2.9-6.5-6.5-6.5s-6.5,2.9-6.5,6.5v3H33v-3c0-3.8,3.1-7,7-7
						s7,3.1,7,7V31.4z"/>
				</g>
			</g>
			<g>
				<g>
					<path class="st93" d="M43.5,33.1v8.7c0,2.6-1.4,4.7-3,4.7h4.9c1.6,0,2.8-2.1,2.8-4.7v-8.7H43.5z"/>
				</g>
			</g>
			<rect x="44.1" y="36.4" class="st93" width="3.9" height="10.1"/>
		</g>
		<g>
			<g id="XMLID_125_">
				<path id="XMLID_128_" class="st94" d="M47.1,47.3H30.7c-0.5,0-1-0.4-1-1V31.6h18.4v14.8C48.1,46.9,47.7,47.3,47.1,47.3z"/>
				<g id="XMLID_126_">
					<path id="XMLID_127_" class="st94" d="M45.6,31.4h-0.4v-2.8c0-3.4-2.8-6.2-6.2-6.2c-3.4,0-6.2,2.8-6.2,6.2v2.8h-0.4v-2.8
						c0-3.7,3-6.6,6.6-6.6s6.6,3,6.6,6.6V31.4z"/>
				</g>
			</g>
			<g>
				<g id="XMLID_114_">
					<path id="XMLID_124_" class="st94" d="M47.7,47.9H30.5c-0.6,0-1-0.5-1-1V31.4h19.3v15.5C48.7,47.5,48.3,47.9,47.7,47.9z"/>
					<g id="XMLID_115_">
						<path id="XMLID_116_" class="st94" d="M46,31.3h-0.5v-3c0-3.6-2.9-6.5-6.5-6.5s-6.5,2.9-6.5,6.5v3h-0.5v-3c0-3.8,3.1-7,7-7
							s7,3.1,7,7V31.3z"/>
					</g>
				</g>
				<g>
					<g>
						<path class="st89" d="M42.6,32.9v8.7c0,2.6-1.4,4.7-3,4.7h4.9c1.6,0,2.8-2.1,2.8-4.7v-8.7H42.6z"/>
					</g>
				</g>
				<rect x="43.3" y="36.2" class="st89" width="3.9" height="10.1"/>
			</g>
		</g>
	</g>
</g>
<g id="Capa_3">
</g>
</svg>
