<?xml version="1.0" encoding="utf-8"?>
<!-- Generator: Adobe Illustrator 23.0.6, SVG Export Plug-In . SVG Version: 6.00 Build 0)  -->
<svg version="1.1" xmlns="http://www.w3.org/2000/svg" xmlns:xlink="http://www.w3.org/1999/xlink" x="0px" y="0px"
	 viewBox="0 0 140 140" style="enable-background:new 0 0 140 140;" xml:space="preserve">
<style type="text/css">
	.st0{fill:#BE6D20;}
	.st1{fill:#BB513B;}
	.st2{fill:#7F3318;}
	.st3{fill:#C41A3B;}
	.st4{fill:#871A4F;}
	.st5{fill:#623284;}
	.st6{fill:#292C51;}
	.st7{fill:#4D5CA3;}
	.st8{fill:#5C95C9;}
	.st9{fill:#005460;}
	.st10{fill:#3BA08D;}
	.st11{fill:#74AC40;}
	.st12{fill:#497A3C;}
	.st13{fill:#B7CA47;}
	.st14{fill:#939054;}
	.st15{fill:#FFFFFF;stroke:#9EC37D;stroke-width:4.3502;stroke-miterlimit:10;}
	.st16{fill:#DCDCDC;}
	.st17{fill:#497B3C;stroke:#497B3C;stroke-width:0.522;stroke-miterlimit:10;}
	.st18{fill:#DB9825;}
	.st19{fill:#CA4D26;}
	.st20{fill:#6E4953;}
	.st21{fill:#4F3541;}
	.st22{fill:#932E1E;stroke:#932E1E;stroke-width:4.7249;stroke-miterlimit:10;}
	.st23{fill:#FFFFFF;}
	.st24{fill:#4A1917;}
	.st25{fill:#F9F9F9;}
	.st26{fill:#BA7B6A;}
	.st27{fill:none;stroke:#371C16;stroke-width:2.6204;stroke-linecap:round;stroke-linejoin:round;stroke-miterlimit:10;}
	.st28{fill:#FFFFFF;stroke:#FFFFFF;stroke-width:0.1754;stroke-miterlimit:10;}
	.st29{fill:#561827;}
	.st30{fill:#B48995;}
	.st31{fill:#30151C;}
	.st32{fill:#7B5568;}
	.st33{fill:none;stroke:#24121B;stroke-width:3.8462;stroke-linecap:round;stroke-linejoin:round;stroke-miterlimit:10;}
	.st34{fill:none;stroke:#F9F9F9;stroke-width:3.4966;stroke-linecap:round;stroke-linejoin:round;stroke-miterlimit:10;}
	.st35{fill:#24121B;stroke:#24121B;stroke-width:0.3497;stroke-miterlimit:10;}
	.st36{fill:none;stroke:#24121B;stroke-width:2.6224;stroke-linecap:round;stroke-linejoin:round;stroke-miterlimit:10;}
	.st37{fill:#FFFFFF;stroke:url(#);stroke-width:0.1743;stroke-miterlimit:10;}
	.st38{fill:#1B2A37;}
	.st39{fill:#85C1D2;}
	.st40{fill:none;stroke:#1C3236;stroke-width:2.9702;stroke-linecap:round;stroke-linejoin:round;stroke-miterlimit:10;}
	.st41{fill:#72B4E6;}
	.st42{fill:#1C3236;}
	.st43{fill:#B1CDEE;}
	.st44{fill:#C3DFE7;}
	.st45{fill:#2E4D44;}
	.st46{fill:#DEC34A;}
	.st47{fill:#6E5A21;}
	.st48{fill:#4C3E1D;}
	.st49{fill:none;stroke:#FFFFFF;stroke-width:2.8139;stroke-miterlimit:10;}
	.st50{fill:#FFFFFF;stroke:#FFFFFF;stroke-width:2.8139;stroke-miterlimit:10;}
	.st51{fill:#E4B3CB;}
	.st52{fill:#8E1135;}
	.st53{fill:#372C71;stroke:#372C71;stroke-width:0.175;stroke-miterlimit:10;}
	.st54{fill:#2E151D;}
	.st55{fill:#CB4A7C;}
	.st56{fill:#371529;}
	.st57{fill:#E2ADCC;}
	.st58{fill:#611740;}
	.st59{fill:none;stroke:#FFFFFF;stroke-width:3.4966;stroke-miterlimit:10;}
	.st60{fill:#FFFFFF;stroke:#FFFFFF;stroke-width:3.4966;stroke-miterlimit:10;}
	.st61{fill:#6B267F;}
	.st62{fill:#BFC5C5;}
	.st63{fill:#713787;}
	.st64{fill:#331E40;}
	.st65{fill:#545F2C;}
	.st66{fill:#212E20;}
	.st67{fill:#9FAD35;}
	.st68{fill:#D3DC7E;}
	.st69{fill:#3E3D21;}
	.st70{fill:#281C3B;}
	.st71{fill:#AA98C6;}
	.st72{fill:#FFFFFF;stroke:#292D50;stroke-width:4.3695;stroke-miterlimit:10;}
	.st73{fill:#FFFFFF;stroke:#2A4125;stroke-width:4.3017;stroke-miterlimit:10;}
	.st74{fill:#2A4027;stroke:#2A4027;stroke-width:0.5162;stroke-miterlimit:10;}
	.st75{fill:#FFFFFF;stroke:#4E5DA3;stroke-width:4.382;stroke-miterlimit:10;}
	.st76{fill:none;stroke:#1C3236;stroke-width:2.9682;stroke-linecap:round;stroke-linejoin:round;stroke-miterlimit:10;}
	.st77{fill:#FFFFFF;stroke:#DC9927;stroke-width:2.409;stroke-miterlimit:10;}
	.st78{fill:#A36F24;}
	.st79{fill:#EDC7A4;stroke:#EDC7A4;stroke-width:2.2749;stroke-miterlimit:10;}
	.st80{fill:#932E1E;stroke:#932E1E;stroke-width:2.0999;stroke-miterlimit:10;}
	.st81{fill:#932E1E;stroke:#932E1E;stroke-width:2.2749;stroke-miterlimit:10;}
	.st82{fill:#DC9359;stroke:#DC9359;stroke-width:2.2749;stroke-miterlimit:10;}
	.st83{fill:#A37025;stroke:#A37025;stroke-width:2.2369;stroke-miterlimit:10;}
	.st84{fill:#DC9359;stroke:#DC9359;stroke-width:2.2369;stroke-miterlimit:10;}
	.st85{fill:#FFFFFF;stroke:#FFFFFF;stroke-width:2.2369;stroke-miterlimit:10;}
	.st86{fill:#456131;}
	.st87{fill:none;stroke:#1C3236;stroke-width:2.9311;stroke-linecap:round;stroke-linejoin:round;stroke-miterlimit:10;}
	.st88{fill:#FFFFFF;stroke:#FFFFFF;stroke-width:3.2693;stroke-miterlimit:10;}
	.st89{fill:#878888;}
	.st90{fill:none;stroke:#30151C;stroke-width:4.6663;stroke-miterlimit:10;}
	.st91{fill:none;stroke:#331E40;stroke-width:4.84;stroke-miterlimit:10;}
	.st92{fill:#FFFFFF;stroke:#FFFFFF;stroke-width:3.2843;stroke-miterlimit:10;}
	.st93{fill:none;stroke:#331E40;stroke-width:5.197;stroke-miterlimit:10;}
	.st94{fill:#FFFFFF;stroke:#FFFFFF;stroke-width:3.2914;stroke-miterlimit:10;}
	.st95{fill:none;stroke:#1E333F;stroke-width:5.2381;stroke-miterlimit:10;}
	.st96{fill:#FFFFFF;stroke:#FFFFFF;stroke-width:3.3174;stroke-miterlimit:10;}
	.st97{fill:#FFFFFF;stroke:#FFFFFF;stroke-width:3.2837;stroke-miterlimit:10;}
	.st98{fill:#5C7487;}
	.st99{fill:none;stroke:#24121B;stroke-width:3.7855;stroke-linecap:round;stroke-linejoin:round;stroke-miterlimit:10;}
	.st100{fill:none;stroke:#24121B;stroke-width:2.581;stroke-linecap:round;stroke-linejoin:round;stroke-miterlimit:10;}
	.st101{fill:#24121B;stroke:#24121B;stroke-width:0.3441;stroke-miterlimit:10;}
	.st102{fill:none;stroke:#F9F9F9;stroke-width:3.4414;stroke-linecap:round;stroke-linejoin:round;stroke-miterlimit:10;}
	.st103{fill:none;stroke:#30151C;stroke-width:4.6459;stroke-miterlimit:10;}
	.st104{fill:none;stroke:#1E333F;stroke-width:5.1724;stroke-miterlimit:10;}
	.st105{fill:#FFFFFF;stroke:#FFFFFF;stroke-width:3.2759;stroke-miterlimit:10;}
	.st106{fill:none;stroke:#1E333F;stroke-width:5.1621;stroke-miterlimit:10;}
	.st107{fill:none;stroke:#30151C;stroke-width:4.6905;stroke-miterlimit:10;}
	.st108{fill:#FFFFFF;stroke:#FFFFFF;stroke-width:3.3007;stroke-miterlimit:10;}
</style>
<g id="Capa_1">
	<rect class="st14" width="140" height="140"/>
</g>
<g id="Capa_2">
	<g>
		<g>
			<g>
				<g>
					<rect x="60.1" y="84.6" class="st23" width="60.6" height="11.7"/>
				</g>
			</g>
		</g>
		<g>
			<g>
				<g>
					<rect x="60.1" y="84.6" class="st13" width="42.7" height="11.7"/>
				</g>
			</g>
		</g>
		<g>
			<g>
				<g>
					<rect x="99.1" y="84.9" class="st65" width="3.7" height="11.4"/>
				</g>
			</g>
		</g>
		<g>
			<g>
				<g>
					<rect x="116.4" y="84.9" class="st13" width="4.4" height="11.4"/>
				</g>
			</g>
		</g>
		<g>
			<g>
				<g>
					<path class="st69" d="M120.8,97.4H60.1c-0.5,0-1-0.5-1-1.1V84.6c0-0.6,0.4-1.1,1-1.1h60.6c0.5,0,1,0.5,1,1.1v11.7
						C121.7,96.9,121.3,97.4,120.8,97.4z M61.1,95.2h58.7v-9.5H61.1V95.2z"/>
				</g>
			</g>
		</g>
		<g>
			<g>
				<g>
					<path class="st69" d="M102.8,97.4c-0.5,0-1-0.5-1-1.1V84.9c0-0.6,0.4-1.1,1-1.1s1,0.5,1,1.1v11.4
						C103.8,96.9,103.3,97.4,102.8,97.4z"/>
				</g>
			</g>
		</g>
	</g>
	<g>
		<g>
			<g>
				<g>
					<rect x="52.5" y="65" class="st23" width="68.1" height="11.7"/>
				</g>
			</g>
		</g>
		<g>
			<g>
				<g>
					<rect x="52.5" y="65" class="st13" width="58.5" height="11.7"/>
				</g>
			</g>
		</g>
		<g>
			<g>
				<g>
					<rect x="106.1" y="65.3" class="st65" width="4.9" height="11.4"/>
				</g>
			</g>
		</g>
		<g>
			<g>
				<g>
					<rect x="115.7" y="65.3" class="st13" width="4.9" height="11.4"/>
				</g>
			</g>
		</g>
		<g>
			<g>
				<g>
					<path class="st69" d="M120.6,77.8H52.5c-0.6,0-1.1-0.5-1.1-1.1V65c0-0.6,0.5-1.1,1.1-1.1h68.1c0.6,0,1.1,0.5,1.1,1.1v11.7
						C121.7,77.3,121.2,77.8,120.6,77.8z M53.6,75.6h65.9v-9.5H53.6V75.6z"/>
				</g>
			</g>
		</g>
		<g>
			<g>
				<g>
					<path class="st69" d="M111,77.8c-0.6,0-1.1-0.5-1.1-1.1V65.3c0-0.6,0.5-1.1,1.1-1.1c0.6,0,1.1,0.5,1.1,1.1v11.4
						C112.1,77.3,111.6,77.8,111,77.8z"/>
				</g>
			</g>
		</g>
	</g>
	<g>
		<g>
			<g>
				<g>
					<rect x="52.5" y="46.1" class="st23" width="68.1" height="11.7"/>
				</g>
			</g>
		</g>
		<g>
			<g>
				<g>
					<rect x="52.5" y="46.1" class="st13" width="53.6" height="11.7"/>
				</g>
			</g>
		</g>
		<g>
			<g>
				<g>
					<rect x="101.2" y="46.4" class="st65" width="4.9" height="11.4"/>
				</g>
			</g>
		</g>
		<g>
			<g>
				<g>
					<rect x="115.7" y="46.4" class="st13" width="4.9" height="11.4"/>
				</g>
			</g>
		</g>
		<g>
			<g>
				<g>
					<path class="st69" d="M120.6,58.9H52.5c-0.6,0-1.1-0.5-1.1-1.1V46.1c0-0.6,0.5-1.1,1.1-1.1h68.1c0.6,0,1.1,0.5,1.1,1.1v11.7
						C121.7,58.4,121.2,58.9,120.6,58.9z M53.6,56.7h65.9v-9.5H53.6V56.7z"/>
				</g>
			</g>
		</g>
		<g>
			<g>
				<g>
					<path class="st69" d="M106.1,58.9c-0.6,0-1.1-0.5-1.1-1.1V46.4c0-0.6,0.5-1.1,1.1-1.1c0.6,0,1.1,0.5,1.1,1.1v11.4
						C107.2,58.4,106.7,58.9,106.1,58.9z"/>
				</g>
			</g>
		</g>
	</g>
	<g id="XMLID_218_">
		<path id="XMLID_229_" class="st69" d="M72.9,54.8H65H46.3c-13.2,0-23.9-10.7-23.9-23.9H49C62.2,30.9,72.9,41.6,72.9,54.8
			L72.9,54.8z"/>
		<g id="XMLID_222_">
			<path id="XMLID_227_" class="st23" d="M50.7,87.5c-12.7,0-23-10.3-23-23v-8.9c0-8.3,6.7-15,15-15h17.1c7.7,0,13.9,6.2,13.9,13.9
				v10C73.7,77.2,63.4,87.5,50.7,87.5z"/>
		</g>
		<g id="XMLID_219_">
			<path id="XMLID_220_" class="st23" d="M83,113.3H18.3v-0.8c0-6.8,3.5-12.5,10.2-16.5c5.8-3.5,13.7-5.4,22.1-5.4
				c8.4,0,16.3,1.9,22.1,5.4c6.7,4,10.2,9.7,10.2,16.5V113.3z"/>
		</g>
	</g>
</g>
<g id="Capa_3">
</g>
</svg>
