<?xml version="1.0" encoding="utf-8"?>
<!-- Generator: Adobe Illustrator 23.0.6, SVG Export Plug-In . SVG Version: 6.00 Build 0)  -->
<svg version="1.1" xmlns="http://www.w3.org/2000/svg" xmlns:xlink="http://www.w3.org/1999/xlink" x="0px" y="0px"
	 viewBox="0 0 140 140" style="enable-background:new 0 0 140 140;" xml:space="preserve">
<style type="text/css">
	.st0{fill:#BE6D20;}
	.st1{fill:#BB513B;}
	.st2{fill:#7F3318;}
	.st3{fill:#C41A3B;}
	.st4{fill:#871A4F;}
	.st5{fill:#623284;}
	.st6{fill:#292C51;}
	.st7{fill:#4D5CA3;}
	.st8{fill:#5C95C9;}
	.st9{fill:#005460;}
	.st10{fill:#3BA08D;}
	.st11{fill:#74AC40;}
	.st12{fill:#497A3C;}
	.st13{fill:#B7CA47;}
	.st14{fill:#939054;}
	.st15{fill:#FFFFFF;stroke:#9EC37D;stroke-width:4.3502;stroke-miterlimit:10;}
	.st16{fill:#DCDCDC;}
	.st17{fill:#497B3C;stroke:#497B3C;stroke-width:0.522;stroke-miterlimit:10;}
	.st18{fill:#DB9825;}
	.st19{fill:#CA4D26;}
	.st20{fill:#6E4953;}
	.st21{fill:#4F3541;}
	.st22{fill:#932E1E;stroke:#932E1E;stroke-width:4.7249;stroke-miterlimit:10;}
	.st23{fill:#FFFFFF;}
	.st24{fill:#4A1917;}
	.st25{fill:#F9F9F9;}
	.st26{fill:#BA7B6A;}
	.st27{fill:none;stroke:#371C16;stroke-width:2.6204;stroke-linecap:round;stroke-linejoin:round;stroke-miterlimit:10;}
	.st28{fill:#FFFFFF;stroke:#FFFFFF;stroke-width:0.1754;stroke-miterlimit:10;}
	.st29{fill:#561827;}
	.st30{fill:#B48995;}
	.st31{fill:#30151C;}
	.st32{fill:#7B5568;}
	.st33{fill:none;stroke:#24121B;stroke-width:3.8462;stroke-linecap:round;stroke-linejoin:round;stroke-miterlimit:10;}
	.st34{fill:none;stroke:#F9F9F9;stroke-width:3.4966;stroke-linecap:round;stroke-linejoin:round;stroke-miterlimit:10;}
	.st35{fill:#24121B;stroke:#24121B;stroke-width:0.3497;stroke-miterlimit:10;}
	.st36{fill:none;stroke:#24121B;stroke-width:2.6224;stroke-linecap:round;stroke-linejoin:round;stroke-miterlimit:10;}
	.st37{fill:#FFFFFF;stroke:url(#);stroke-width:0.1743;stroke-miterlimit:10;}
	.st38{fill:#1B2A37;}
	.st39{fill:#85C1D2;}
	.st40{fill:none;stroke:#1C3236;stroke-width:2.9702;stroke-linecap:round;stroke-linejoin:round;stroke-miterlimit:10;}
	.st41{fill:#72B4E6;}
	.st42{fill:#1C3236;}
	.st43{fill:#B1CDEE;}
	.st44{fill:#C3DFE7;}
	.st45{fill:#2E4D44;}
	.st46{fill:#DEC34A;}
	.st47{fill:#6E5A21;}
	.st48{fill:#4C3E1D;}
	.st49{fill:none;stroke:#FFFFFF;stroke-width:2.8139;stroke-miterlimit:10;}
	.st50{fill:#FFFFFF;stroke:#FFFFFF;stroke-width:2.8139;stroke-miterlimit:10;}
	.st51{fill:#E4B3CB;}
	.st52{fill:#8E1135;}
	.st53{fill:#372C71;stroke:#372C71;stroke-width:0.175;stroke-miterlimit:10;}
	.st54{fill:#2E151D;}
	.st55{fill:#CB4A7C;}
	.st56{fill:#371529;}
	.st57{fill:#E2ADCC;}
	.st58{fill:#611740;}
	.st59{fill:none;stroke:#FFFFFF;stroke-width:3.4966;stroke-miterlimit:10;}
	.st60{fill:#FFFFFF;stroke:#FFFFFF;stroke-width:3.4966;stroke-miterlimit:10;}
	.st61{fill:#6B267F;}
	.st62{fill:#BFC5C5;}
	.st63{fill:#713787;}
	.st64{fill:#331E40;}
	.st65{fill:#545F2C;}
	.st66{fill:#212E20;}
	.st67{fill:#9FAD35;}
	.st68{fill:#D3DC7E;}
	.st69{fill:#3E3D21;}
	.st70{fill:#281C3B;}
	.st71{fill:#AA98C6;}
	.st72{fill:#FFFFFF;stroke:#292D50;stroke-width:4.3695;stroke-miterlimit:10;}
	.st73{fill:#FFFFFF;stroke:#2A4125;stroke-width:4.3017;stroke-miterlimit:10;}
	.st74{fill:#2A4027;stroke:#2A4027;stroke-width:0.5162;stroke-miterlimit:10;}
	.st75{fill:#FFFFFF;stroke:#4E5DA3;stroke-width:4.382;stroke-miterlimit:10;}
	.st76{fill:none;stroke:#1C3236;stroke-width:2.9682;stroke-linecap:round;stroke-linejoin:round;stroke-miterlimit:10;}
	.st77{fill:#FFFFFF;stroke:#DC9927;stroke-width:2.409;stroke-miterlimit:10;}
	.st78{fill:#A36F24;}
	.st79{fill:#EDC7A4;stroke:#EDC7A4;stroke-width:2.2749;stroke-miterlimit:10;}
	.st80{fill:#932E1E;stroke:#932E1E;stroke-width:2.0999;stroke-miterlimit:10;}
	.st81{fill:#932E1E;stroke:#932E1E;stroke-width:2.2749;stroke-miterlimit:10;}
	.st82{fill:#DC9359;stroke:#DC9359;stroke-width:2.2749;stroke-miterlimit:10;}
	.st83{fill:#A37025;stroke:#A37025;stroke-width:2.2369;stroke-miterlimit:10;}
	.st84{fill:#DC9359;stroke:#DC9359;stroke-width:2.2369;stroke-miterlimit:10;}
	.st85{fill:#FFFFFF;stroke:#FFFFFF;stroke-width:2.2369;stroke-miterlimit:10;}
	.st86{fill:#456131;}
	.st87{fill:none;stroke:#1C3236;stroke-width:2.9311;stroke-linecap:round;stroke-linejoin:round;stroke-miterlimit:10;}
	.st88{fill:#FFFFFF;stroke:#FFFFFF;stroke-width:3.2693;stroke-miterlimit:10;}
	.st89{fill:#878888;}
	.st90{fill:none;stroke:#30151C;stroke-width:4.6663;stroke-miterlimit:10;}
	.st91{fill:none;stroke:#331E40;stroke-width:4.84;stroke-miterlimit:10;}
	.st92{fill:#FFFFFF;stroke:#FFFFFF;stroke-width:3.2843;stroke-miterlimit:10;}
	.st93{fill:none;stroke:#331E40;stroke-width:5.197;stroke-miterlimit:10;}
	.st94{fill:#FFFFFF;stroke:#FFFFFF;stroke-width:3.2914;stroke-miterlimit:10;}
	.st95{fill:none;stroke:#1E333F;stroke-width:5.2381;stroke-miterlimit:10;}
	.st96{fill:#FFFFFF;stroke:#FFFFFF;stroke-width:3.3174;stroke-miterlimit:10;}
	.st97{fill:#FFFFFF;stroke:#FFFFFF;stroke-width:3.2837;stroke-miterlimit:10;}
	.st98{fill:#5C7487;}
	.st99{fill:none;stroke:#24121B;stroke-width:3.7855;stroke-linecap:round;stroke-linejoin:round;stroke-miterlimit:10;}
	.st100{fill:none;stroke:#24121B;stroke-width:2.581;stroke-linecap:round;stroke-linejoin:round;stroke-miterlimit:10;}
	.st101{fill:#24121B;stroke:#24121B;stroke-width:0.3441;stroke-miterlimit:10;}
	.st102{fill:none;stroke:#F9F9F9;stroke-width:3.4414;stroke-linecap:round;stroke-linejoin:round;stroke-miterlimit:10;}
	.st103{fill:none;stroke:#30151C;stroke-width:4.6459;stroke-miterlimit:10;}
	.st104{fill:none;stroke:#1E333F;stroke-width:5.1724;stroke-miterlimit:10;}
	.st105{fill:#FFFFFF;stroke:#FFFFFF;stroke-width:3.2759;stroke-miterlimit:10;}
	.st106{fill:none;stroke:#1E333F;stroke-width:5.1621;stroke-miterlimit:10;}
	.st107{fill:none;stroke:#30151C;stroke-width:4.6905;stroke-miterlimit:10;}
	.st108{fill:#FFFFFF;stroke:#FFFFFF;stroke-width:3.3007;stroke-miterlimit:10;}
</style>
<g id="Capa_1">
	<rect x="0.1" y="0.1" class="st4" width="139.9" height="139.9"/>
</g>
<g id="Capa_2">
	<g id="XMLID_86_">
		<path id="XMLID_118_" class="st56" d="M93.9,22.7H45.3c-4.6,0-8.3,3.7-8.3,8.3v79.5c0,4.6,3.7,8.3,8.3,8.3h48.6
			c4.6,0,8.3-3.7,8.3-8.3V31C102.3,26.4,98.5,22.7,93.9,22.7z"/>
		<path id="XMLID_117_" class="st57" d="M69.6,28.5c0.5,0,0.9-0.4,0.9-0.9c0-0.5-0.4-0.9-0.9-0.9s-0.9,0.4-0.9,0.9
			C68.7,28.1,69.1,28.5,69.6,28.5z"/>
		<path id="XMLID_113_" class="st57" d="M66.3,32.1H73c0.5,0,0.9-0.4,0.9-0.9s-0.4-0.9-0.9-0.9h-6.7c-0.5,0-0.9,0.4-0.9,0.9
			S65.8,32.1,66.3,32.1z"/>
		<path id="XMLID_92_" class="st57" d="M63.3,31.9c0.4,0,0.7-0.3,0.7-0.7c0-0.4-0.3-0.7-0.7-0.7c-0.4,0-0.7,0.3-0.7,0.7
			C62.6,31.6,62.9,31.9,63.3,31.9z"/>
		<path id="XMLID_90_" class="st57" d="M69.5,106.4c-2.7,0-4.9,2.2-4.9,4.9c0,2.7,2.2,4.9,4.9,4.9c2.7,0,4.9-2.2,4.9-4.9
			C74.4,108.6,72.2,106.4,69.5,106.4z"/>
		<path id="XMLID_87_" class="st57" d="M92.4,34.1H46.8c-0.5,0-1,0.4-1,1v67.5c0,0.5,0.4,1,1,1h45.6c0.5,0,1-0.4,1-1V35
			C93.4,34.5,93,34.1,92.4,34.1z M91.5,101.6H47.8V36h43.7V101.6z"/>
	</g>
	<rect x="47.8" y="36" class="st23" width="43.7" height="65.6"/>
	<path class="st58" d="M82.7,87H56.2c-0.9,0-1.6-0.7-1.6-1.6V51.8c0-0.9,0.7-1.6,1.6-1.6h26.5c0.9,0,1.6,0.7,1.6,1.6v33.6
		C84.3,86.3,83.6,87,82.7,87z"/>
	<path class="st59" d="M77.9,65.5c0.2,0.7,0.3,1.5,0.3,2.2v4.5c0,3.3-1.8,6.2-4.5,7.7"/>
	<path class="st59" d="M60.4,72.2L60.4,72.2v-4.5c0-4.9,4-8.9,8.9-8.9l0,0c0.8,0,1.5,0.1,2.2,0.3"/>
	<path class="st60" d="M69.3,67.7v3.9c0,3.1-1.7,5.8-4.5,7.2l0,0"/>
</g>
<g id="Capa_3">
</g>
</svg>
