<?xml version="1.0" encoding="utf-8"?>
<!-- Generator: Adobe Illustrator 23.0.6, SVG Export Plug-In . SVG Version: 6.00 Build 0)  -->
<svg version="1.1" xmlns="http://www.w3.org/2000/svg" xmlns:xlink="http://www.w3.org/1999/xlink" x="0px" y="0px"
	 viewBox="0 0 140 140" style="enable-background:new 0 0 140 140;" xml:space="preserve">
<style type="text/css">
	.st0{fill:none;}
	.st1{fill:#FFFFFF;}
	.st2{fill:#382B73;stroke:#382B73;stroke-miterlimit:10;}
	.st3{fill:#BE6D20;}
	.st4{fill:#BB513B;}
	.st5{fill:#7F3318;}
	.st6{fill:#C41A3B;}
	.st7{fill:#871A4F;}
	.st8{fill:#623284;}
	.st9{fill:#292C51;}
	.st10{fill:#4D5CA3;}
	.st11{fill:#5C95C9;}
	.st12{fill:#005460;}
	.st13{fill:#3BA08D;}
	.st14{fill:#74AC40;}
	.st15{fill:#497A3C;}
	.st16{fill:#B7CA47;}
	.st17{fill:#939054;}
	.st18{fill:#FFFFFF;stroke:#9EC37D;stroke-width:4.3502;stroke-miterlimit:10;}
	.st19{fill:#DCDCDC;}
	.st20{fill:#497B3C;stroke:#497B3C;stroke-width:0.522;stroke-miterlimit:10;}
	.st21{fill:#DB9825;}
	.st22{fill:#CA4D26;}
	.st23{fill:#6E4953;}
	.st24{fill:#4F3541;}
	.st25{fill:#932E1E;stroke:#932E1E;stroke-width:4.7249;stroke-miterlimit:10;}
	.st26{fill:#4A1917;}
	.st27{fill:#F9F9F9;}
	.st28{fill:#BA7B6A;}
	.st29{fill:none;stroke:#371C16;stroke-width:2.6204;stroke-linecap:round;stroke-linejoin:round;stroke-miterlimit:10;}
	.st30{fill:#FFFFFF;stroke:#FFFFFF;stroke-width:0.1754;stroke-miterlimit:10;}
	.st31{fill:#561827;}
	.st32{fill:#B48995;}
	.st33{fill:#30151C;}
	.st34{fill:#7B5568;}
	.st35{fill:none;stroke:#24121B;stroke-width:3.8462;stroke-linecap:round;stroke-linejoin:round;stroke-miterlimit:10;}
	.st36{fill:none;stroke:#F9F9F9;stroke-width:3.4966;stroke-linecap:round;stroke-linejoin:round;stroke-miterlimit:10;}
	.st37{fill:#24121B;stroke:#24121B;stroke-width:0.3497;stroke-miterlimit:10;}
	.st38{fill:none;stroke:#24121B;stroke-width:2.6224;stroke-linecap:round;stroke-linejoin:round;stroke-miterlimit:10;}
	.st39{fill:#FFFFFF;stroke:url(#SVGID_1_);stroke-width:0.1743;stroke-miterlimit:10;}
	.st40{fill:#1B2A37;}
	.st41{fill:#85C1D2;}
	.st42{fill:none;stroke:#1C3236;stroke-width:2.9702;stroke-linecap:round;stroke-linejoin:round;stroke-miterlimit:10;}
	.st43{fill:#72B4E6;}
	.st44{fill:#1C3236;}
	.st45{fill:#B1CDEE;}
	.st46{fill:#C3DFE7;}
	.st47{fill:#2E4D44;}
	.st48{fill:#DEC34A;}
	.st49{fill:#6E5A21;}
	.st50{fill:#4C3E1D;}
	.st51{fill:none;stroke:#FFFFFF;stroke-width:2.8139;stroke-miterlimit:10;}
	.st52{fill:#FFFFFF;stroke:#FFFFFF;stroke-width:2.8139;stroke-miterlimit:10;}
	.st53{fill:#E4B3CB;}
	.st54{fill:#8E1135;}
	.st55{fill:#372C71;stroke:#372C71;stroke-width:0.175;stroke-miterlimit:10;}
	.st56{fill:#2E151D;}
	.st57{fill:#CB4A7C;}
	.st58{fill:#371529;}
	.st59{fill:#E2ADCC;}
	.st60{fill:#611740;}
	.st61{fill:none;stroke:#FFFFFF;stroke-width:3.4966;stroke-miterlimit:10;}
	.st62{fill:#FFFFFF;stroke:#FFFFFF;stroke-width:3.4966;stroke-miterlimit:10;}
	.st63{fill:#6B267F;}
	.st64{fill:#BFC5C5;}
	.st65{fill:#713787;}
	.st66{fill:#331E40;}
	.st67{fill:#545F2C;}
	.st68{fill:#212E20;}
	.st69{fill:#9FAD35;}
	.st70{fill:#D3DC7E;}
	.st71{fill:#3E3D21;}
	.st72{fill:#281C3B;}
	.st73{fill:#AA98C6;}
	.st74{fill:#FFFFFF;stroke:#292D50;stroke-width:4.3695;stroke-miterlimit:10;}
	.st75{fill:#FFFFFF;stroke:#2A4125;stroke-width:4.3017;stroke-miterlimit:10;}
	.st76{fill:#2A4027;stroke:#2A4027;stroke-width:0.5162;stroke-miterlimit:10;}
	.st77{fill:#FFFFFF;stroke:#4E5DA3;stroke-width:4.382;stroke-miterlimit:10;}
	.st78{fill:none;stroke:#1C3236;stroke-width:2.9682;stroke-linecap:round;stroke-linejoin:round;stroke-miterlimit:10;}
	.st79{fill:#FFFFFF;stroke:#DC9927;stroke-width:2.409;stroke-miterlimit:10;}
	.st80{fill:#A36F24;}
	.st81{fill:#EDC7A4;stroke:#EDC7A4;stroke-width:2.2749;stroke-miterlimit:10;}
	.st82{fill:#932E1E;stroke:#932E1E;stroke-width:2.0999;stroke-miterlimit:10;}
	.st83{fill:#932E1E;stroke:#932E1E;stroke-width:2.2749;stroke-miterlimit:10;}
	.st84{fill:#DC9359;stroke:#DC9359;stroke-width:2.2749;stroke-miterlimit:10;}
	.st85{fill:#A37025;stroke:#A37025;stroke-width:2.2369;stroke-miterlimit:10;}
	.st86{fill:#DC9359;stroke:#DC9359;stroke-width:2.2369;stroke-miterlimit:10;}
	.st87{fill:#FFFFFF;stroke:#FFFFFF;stroke-width:2.2369;stroke-miterlimit:10;}
	.st88{fill:#456131;}
	.st89{fill:none;stroke:#1C3236;stroke-width:2.9311;stroke-linecap:round;stroke-linejoin:round;stroke-miterlimit:10;}
	.st90{fill:#FFFFFF;stroke:#FFFFFF;stroke-width:3.2693;stroke-miterlimit:10;}
	.st91{fill:#878888;}
	.st92{fill:none;stroke:#30151C;stroke-width:4.6663;stroke-miterlimit:10;}
	.st93{fill:none;stroke:#331E40;stroke-width:4.84;stroke-miterlimit:10;}
	.st94{fill:#FFFFFF;stroke:#FFFFFF;stroke-width:3.2843;stroke-miterlimit:10;}
	.st95{fill:none;stroke:#331E40;stroke-width:5.197;stroke-miterlimit:10;}
	.st96{fill:#FFFFFF;stroke:#FFFFFF;stroke-width:3.2914;stroke-miterlimit:10;}
	.st97{fill:none;stroke:#1E333F;stroke-width:5.2381;stroke-miterlimit:10;}
	.st98{fill:#FFFFFF;stroke:#FFFFFF;stroke-width:3.3174;stroke-miterlimit:10;}
	.st99{fill:#FFFFFF;stroke:#FFFFFF;stroke-width:3.2837;stroke-miterlimit:10;}
	.st100{fill:#5C7487;}
	.st101{fill:none;stroke:#24121B;stroke-width:3.7855;stroke-linecap:round;stroke-linejoin:round;stroke-miterlimit:10;}
	.st102{fill:none;stroke:#24121B;stroke-width:2.581;stroke-linecap:round;stroke-linejoin:round;stroke-miterlimit:10;}
	.st103{fill:#24121B;stroke:#24121B;stroke-width:0.3441;stroke-miterlimit:10;}
	.st104{fill:none;stroke:#F9F9F9;stroke-width:3.4414;stroke-linecap:round;stroke-linejoin:round;stroke-miterlimit:10;}
	.st105{fill:none;stroke:#30151C;stroke-width:4.6459;stroke-miterlimit:10;}
	.st106{fill:none;stroke:#1E333F;stroke-width:5.1724;stroke-miterlimit:10;}
	.st107{fill:#FFFFFF;stroke:#FFFFFF;stroke-width:3.2759;stroke-miterlimit:10;}
	.st108{fill:none;stroke:#1E333F;stroke-width:5.1621;stroke-miterlimit:10;}
	.st109{fill:none;stroke:#30151C;stroke-width:4.6905;stroke-miterlimit:10;}
	.st110{fill:#FFFFFF;stroke:#FFFFFF;stroke-width:3.3007;stroke-miterlimit:10;}
</style>
<pattern  x="742.1" y="-360" width="56.2" height="25.2" patternUnits="userSpaceOnUse" id="Unnamed_Pattern" viewBox="0 -25.2 56.2 25.2" style="overflow:visible;">
	<g>
		<rect x="0" y="-25.2" class="st0" width="56.2" height="25.2"/>
		<g>
			<g>
				<g>
					<path class="st1" d="M18.8-18.7h8.3c0.4,0,0.7,0.1,1,0.4l7.4,5.8l15.6-4.6c1.5-0.4,3.1,0.3,3.7,1.8l0,0
						c0.6,1.4-0.1,3.1-1.4,3.8l-19.1,10c-0.9,0.5-2.1,0.5-3-0.1l-7.5-4.6h-4.9V-18.7z"/>
				</g>
			</g>
		</g>
		<g>
			<g>
				<g>
					<g>
						<path class="st2" d="M19.6-4.4v-16.8c0-0.4-0.3-0.8-0.8-0.8h-4.9c-0.4,0-0.8,0.3-0.8,0.8v16.8c0,0.4,0.3,0.8,0.8,0.8h4.9
							C19.2-3.7,19.6-4,19.6-4.4z M14.7-20.5H18v15.3h-3.4V-20.5z"/>
					</g>
				</g>
			</g>
		</g>
		<g>
			<g>
				<g>
					<g>
						<path class="st2" d="M14.7-4v-17.7c0-1.7-1.3-3-3-3H1.3c-0.4,0-0.8,0.3-0.8,0.8v22.2C0.5-1.3,0.8-1,1.3-1h10.4
							C13.3-1,14.7-2.3,14.7-4z"/>
					</g>
				</g>
			</g>
		</g>
		<g>
			<g>
				<g>
					<path class="st2" d="M34.5-0.9l19.1-10c1.7-0.9,2.5-2.9,1.8-4.7c-0.6-1.4-2-2.4-3.5-2.4c-0.4,0-0.7,0.1-1.1,0.2l-15.2,4.5
						l-7.1-5.5c-0.4-0.3-1-0.5-1.5-0.5h-8.3c-0.4,0-0.8,0.3-0.8,0.8v12.4c0,0.4,0.3,0.8,0.8,0.8h4.6l7.3,4.5c0.6,0.4,1.3,0.6,2,0.6
						C33.4-0.5,34-0.6,34.5-0.9z M19.6-17.9h7.5c0.2,0,0.4,0.1,0.5,0.2l7.4,5.8c0.2,0.2,0.5,0.2,0.7,0.1l15.6-4.6
						c0.2-0.1,0.4-0.1,0.6-0.1c0.9,0,1.8,0.6,2.1,1.4c0.4,1.1,0,2.3-1.1,2.8l-19.1,10c-0.3,0.2-0.7,0.3-1,0.3
						c-0.4,0-0.8-0.1-1.2-0.3l-7.5-4.6C24-7,23.8-7.1,23.7-7.1h-4.1V-17.9z"/>
				</g>
			</g>
		</g>
		<g>
			<g>
				<path class="st2" d="M33.7-8.9c-0.6,0-1.1-0.2-1.6-0.5l-6.4-4.7c-0.3-0.3-0.4-0.7-0.2-1.1c0.3-0.3,0.7-0.4,1.1-0.2l6.4,4.7
					c0.4,0.3,1,0.3,1.4-0.1c0.3-0.2,0.4-0.6,0.4-0.9c0-0.3-0.2-0.7-0.4-0.9l-6.7-5.2c-0.3-0.3-0.4-0.7-0.1-1.1
					c0.3-0.3,0.7-0.4,1.1-0.1l6.7,5.2c0.6,0.5,1,1.2,1,2c0,0.8-0.3,1.6-0.9,2.1C35-9.1,34.3-8.9,33.7-8.9z"/>
			</g>
		</g>
	</g>
</pattern>
<g id="Capa_1">
	<rect x="-0.3" class="st11" width="140.3" height="140.3"/>
</g>
<g id="Capa_2">
	<g>
		<g>
			<g>
				<g>
					<pattern  id="SVGID_1_" xlink:href="#Unnamed_Pattern" patternTransform="matrix(0.1743 0 0 0.1743 -6752.5132 -2989.8472)">
					</pattern>
					<path class="st39" d="M49.6,84.7h14.3c0.6,0,1.3,0.2,1.8,0.6l12.7,10l26.8-8c2.6-0.8,5.3,0.6,6.3,3.1l0,0
						c1,2.5-0.1,5.3-2.4,6.5l-33,17.2c-1.6,0.8-3.6,0.8-5.1-0.2L58,106h-8.4V84.7z"/>
				</g>
			</g>
		</g>
		<g>
			<g>
				<g>
					<g>
						<path class="st40" d="M49.6,110.6h-8.4c-0.7,0-1.3-0.6-1.3-1.3v-29c0-0.7,0.6-1.3,1.3-1.3h8.4c0.7,0,1.3,0.6,1.3,1.3v29
							C50.9,110,50.3,110.6,49.6,110.6z M42.5,107.9h5.8V81.6h-5.8V107.9z"/>
					</g>
				</g>
			</g>
		</g>
		<g>
			<g>
				<g>
					<g>
						<path class="st40" d="M39,115.2H27c-0.5,0-0.9-0.6-0.9-1.3V75.7c0-0.7,0.4-1.3,0.9-1.3h12c1.9,0,3.5,2.3,3.5,5.2V110
							C42.5,112.9,40.9,115.2,39,115.2z"/>
					</g>
				</g>
			</g>
		</g>
		<g>
			<g>
				<g>
					<path class="st40" d="M73.7,116c-1.2,0-2.4-0.3-3.4-1l-12.6-7.7h-8c-0.7,0-1.3-0.6-1.3-1.3V84.7c0-0.7,0.6-1.3,1.3-1.3h14.3
						c0.9,0,1.8,0.3,2.6,0.9l12.2,9.5l26.1-7.8c0.6-0.2,1.2-0.3,1.9-0.3c2.7,0,5.1,1.7,6.1,4.2c1.2,3.1-0.1,6.6-3.1,8.1l-33,17.2
						C75.8,115.8,74.7,116,73.7,116z M51,104.7h7c0.2,0,0.5,0.1,0.7,0.2l13,7.9c0.6,0.4,1.3,0.6,2,0.6c0.6,0,1.2-0.2,1.8-0.4
						l33-17.2c1.8-0.9,2.5-3,1.8-4.8c-0.6-1.5-2-2.5-3.6-2.5c-0.4,0-0.7,0.1-1.1,0.2l-26.8,8c-0.4,0.1-0.9,0-1.2-0.2l-12.7-10
						c-0.3-0.2-0.6-0.3-0.9-0.3H51V104.7z"/>
				</g>
			</g>
		</g>
		<g>
			<g>
				<path class="st40" d="M75.2,101.6c-0.9,0-1.9-0.3-2.7-0.9l-11.1-8.1c-0.6-0.4-0.7-1.3-0.3-1.9c0.4-0.6,1.3-0.7,1.9-0.3L74,98.6
					c0.7,0.5,1.8,0.5,2.5-0.1c0.4-0.4,0.7-1,0.7-1.5c0-0.6-0.3-1.1-0.8-1.5l-11.5-9c-0.6-0.5-0.7-1.3-0.2-1.9
					c0.5-0.6,1.3-0.7,1.9-0.2l11.5,9c1.1,0.8,1.7,2.1,1.8,3.5c0,1.4-0.5,2.7-1.5,3.6C77.4,101.2,76.3,101.6,75.2,101.6z"/>
			</g>
		</g>
	</g>
	<g>
		<g>
			<rect x="61.4" y="27" class="st64" width="40.1" height="16.5"/>
		</g>
		<g>
			<rect x="61.4" y="43.5" class="st27" width="40.1" height="35.4"/>
		</g>
		<g>
			<rect x="65.8" y="31.7" class="st27" width="12.1" height="14.1"/>
		</g>
		<g>
			<path class="st27" d="M81.5,36.4V34c0-3.5,4.7-4.9,6.6-1.8c0.3,0.6,0.2,1.3-0.4,1.6c-0.6,0.3-1.3,0.2-1.6-0.4
				c-0.7-1.1-2.2-0.5-2.2,0.6v2.4c0,1.2,1.6,1.6,2.2,0.6c0.3-0.6,1-0.8,1.6-0.4c0.6,0.3,0.8,1.1,0.4,1.6
				C86.2,41.3,81.5,40,81.5,36.4z"/>
		</g>
		<g>
			<path class="st27" d="M92.8,39.2l-2.9-7.1c-0.3-0.6,0-1.3,0.6-1.5c0.6-0.2,1.3,0,1.5,0.6l1.9,4.5l1.9-4.5
				c0.3-0.6,0.9-0.9,1.5-0.6c0.6,0.3,0.9,0.9,0.6,1.5l-2.9,7.1C94.5,40.2,93.2,40.2,92.8,39.2z"/>
		</g>
		<path class="st40" d="M101.5,25.8H61.4c-0.6,0-1.2,0.5-1.2,1.2v51.9c0,0.6,0.5,1.2,1.2,1.2h40.1c0.6,0,1.2-0.5,1.2-1.2V27
			C102.7,26.3,102.2,25.8,101.5,25.8z M100.3,28.1v14.1H79.1V31.7c0-0.6-0.5-1.2-1.2-1.2H66.1c-0.6,0-1.2,0.5-1.2,1.2v10.6h-2.4
			V28.1H100.3z M77.5,45.2H66.6c0-4.5,0-10.4,0-12.9h10.9C77.5,34.8,77.5,40.6,77.5,45.2z M62.6,77.7v-33H65v1.2
			c0,0.6,0.5,1.2,1.2,1.2h11.8c0.6,0,1.2-0.5,1.2-1.2v-1.2h21.2v33H62.6z"/>
		<g>
			<path class="st64" d="M77.7,55.3H65.2c-0.1,0-0.3-0.1-0.3-0.3v-4.2c0-0.1,0.1-0.3,0.3-0.3h12.5c0.1,0,0.3,0.1,0.3,0.3V55
				C77.9,55.1,77.8,55.3,77.7,55.3z"/>
		</g>
		<g>
			<path class="st64" d="M81.5,75.3c-0.7,0-1.2-0.5-1.2-1.2V50.5c0-0.7,0.5-1.2,1.2-1.2c0.7,0,1.2,0.5,1.2,1.2v23.6
				C82.7,74.8,82.1,75.3,81.5,75.3z"/>
		</g>
		<g>
			<path class="st64" d="M76.8,60H72c-0.7,0-1.2-0.5-1.2-1.2s0.5-1.2,1.2-1.2h4.7c0.7,0,1.2,0.5,1.2,1.2S77.4,60,76.8,60z"/>
		</g>
		<g>
			<path class="st64" d="M77.7,67H65.2c-0.1,0-0.3-0.1-0.3-0.3v-4.2c0-0.1,0.1-0.3,0.3-0.3h12.5c0.1,0,0.3,0.1,0.3,0.3v4.2
				C77.9,66.9,77.8,67,77.7,67z"/>
		</g>
		<g>
			<path class="st64" d="M76.8,71.8H72c-0.7,0-1.2-0.5-1.2-1.2c0-0.7,0.5-1.2,1.2-1.2h4.7c0.7,0,1.2,0.5,1.2,1.2
				C77.9,71.2,77.4,71.8,76.8,71.8z"/>
		</g>
		<g>
			<path class="st64" d="M85.3,57.6h12.5c0.1,0,0.3-0.1,0.3-0.3v-4.2c0-0.1-0.1-0.3-0.3-0.3H85.3c-0.1,0-0.3,0.1-0.3,0.3v4.2
				C85,57.5,85.1,57.6,85.3,57.6z"/>
		</g>
		<g>
			<path class="st64" d="M90.9,62.3h-4.7c-0.7,0-1.2-0.5-1.2-1.2s0.5-1.2,1.2-1.2h4.7c0.7,0,1.2,0.5,1.2,1.2S91.6,62.3,90.9,62.3z"
				/>
		</g>
		<g>
			<path class="st64" d="M85.3,69.4h12.5c0.1,0,0.3-0.1,0.3-0.3v-4.2c0-0.1-0.1-0.3-0.3-0.3H85.3c-0.1,0-0.3,0.1-0.3,0.3v4.2
				C85,69.3,85.1,69.4,85.3,69.4z"/>
		</g>
		<g>
			<path class="st64" d="M90.9,74.1h-4.7c-0.7,0-1.2-0.5-1.2-1.2s0.5-1.2,1.2-1.2h4.7c0.7,0,1.2,0.5,1.2,1.2S91.6,74.1,90.9,74.1z"
				/>
		</g>
	</g>
	<path class="st40" d="M75.3,38.5v3.8L73,41.9v-0.9c-0.3,0.2-0.6,0.3-1,0.3c-0.4,0-0.7-0.1-1-0.3v0.9l-2.3,0.4v-3.8
		c0-1.7,1.4-3.1,3.2-3.1C73.9,35.4,75.3,36.8,75.3,38.5z"/>
	<g id="XMLID_185_">
		<path id="XMLID_186_" class="st64" d="M72.1,41.5H72c-0.6,0-1.1-0.2-1.5-0.6c-0.4-0.4-0.7-0.9-0.7-1.4c0-0.1,0-0.1,0-0.2v-0.9
			c0-0.4,0.1-0.7,0.4-1c0.1-0.1,0.2-0.2,0.4-0.3c0.2-0.1,0.5-0.2,0.8-0.2h1.5c0.8,0,1.5,0.7,1.5,1.5v0.9c0,0.1,0,0.1,0,0.2
			c0,0.6-0.3,1.1-0.7,1.4C73.2,41.3,72.7,41.5,72.1,41.5z"/>
	</g>
	<g id="XMLID_182_">
		<path id="XMLID_183_" class="st64" d="M75.1,44.2h-6.4v-0.1c0-0.7,0.4-1.2,1-1.6c0.6-0.3,1.4-0.5,2.2-0.5s1.6,0.2,2.2,0.5
			C74.8,42.9,75.1,43.5,75.1,44.2L75.1,44.2z"/>
	</g>
	<path class="st40" d="M73.7,43.7h-0.9c-0.3,0-0.5-0.2-0.5-0.5c0-0.3,0.2-0.5,0.5-0.5h0.9c0.3,0,0.5,0.2,0.5,0.5
		C74.2,43.5,74,43.7,73.7,43.7z"/>
</g>
<g id="Capa_3">
</g>
</svg>
