<?xml version="1.0" encoding="utf-8"?>
<!-- Generator: Adobe Illustrator 23.0.6, SVG Export Plug-In . SVG Version: 6.00 Build 0)  -->
<svg version="1.1" xmlns="http://www.w3.org/2000/svg" xmlns:xlink="http://www.w3.org/1999/xlink" x="0px" y="0px"
	 viewBox="0 0 140 140" style="enable-background:new 0 0 140 140;" xml:space="preserve">
<style type="text/css">
	.st0{fill:#BE6D20;}
	.st1{fill:#BB513B;}
	.st2{fill:#7F3318;}
	.st3{fill:#C41A3B;}
	.st4{fill:#871A4F;}
	.st5{fill:#623284;}
	.st6{fill:#292C51;}
	.st7{fill:#4D5CA3;}
	.st8{fill:#5C95C9;}
	.st9{fill:#005460;}
	.st10{fill:#3BA08D;}
	.st11{fill:#74AC40;}
	.st12{fill:#497A3C;}
	.st13{fill:#B7CA47;}
	.st14{fill:#939054;}
	.st15{fill:#FFFFFF;stroke:#9EC37D;stroke-width:4.3502;stroke-miterlimit:10;}
	.st16{fill:#DCDCDC;}
	.st17{fill:#497B3C;stroke:#497B3C;stroke-width:0.522;stroke-miterlimit:10;}
	.st18{fill:#DB9825;}
	.st19{fill:#CA4D26;}
	.st20{fill:#6E4953;}
	.st21{fill:#4F3541;}
	.st22{fill:#932E1E;stroke:#932E1E;stroke-width:4.7249;stroke-miterlimit:10;}
	.st23{fill:#FFFFFF;}
	.st24{fill:#4A1917;}
	.st25{fill:#F9F9F9;}
	.st26{fill:#BA7B6A;}
	.st27{fill:none;stroke:#371C16;stroke-width:2.6204;stroke-linecap:round;stroke-linejoin:round;stroke-miterlimit:10;}
	.st28{fill:#FFFFFF;stroke:#FFFFFF;stroke-width:0.1754;stroke-miterlimit:10;}
	.st29{fill:#561827;}
	.st30{fill:#B48995;}
	.st31{fill:#30151C;}
	.st32{fill:#7B5568;}
	.st33{fill:none;stroke:#24121B;stroke-width:3.8462;stroke-linecap:round;stroke-linejoin:round;stroke-miterlimit:10;}
	.st34{fill:none;stroke:#F9F9F9;stroke-width:3.4966;stroke-linecap:round;stroke-linejoin:round;stroke-miterlimit:10;}
	.st35{fill:#24121B;stroke:#24121B;stroke-width:0.3497;stroke-miterlimit:10;}
	.st36{fill:none;stroke:#24121B;stroke-width:2.6224;stroke-linecap:round;stroke-linejoin:round;stroke-miterlimit:10;}
	.st37{fill:#FFFFFF;stroke:url(#);stroke-width:0.1743;stroke-miterlimit:10;}
	.st38{fill:#1B2A37;}
	.st39{fill:#85C1D2;}
	.st40{fill:none;stroke:#1C3236;stroke-width:2.9702;stroke-linecap:round;stroke-linejoin:round;stroke-miterlimit:10;}
	.st41{fill:#72B4E6;}
	.st42{fill:#1C3236;}
	.st43{fill:#B1CDEE;}
	.st44{fill:#C3DFE7;}
	.st45{fill:#2E4D44;}
	.st46{fill:#DEC34A;}
	.st47{fill:#6E5A21;}
	.st48{fill:#4C3E1D;}
	.st49{fill:none;stroke:#FFFFFF;stroke-width:2.8139;stroke-miterlimit:10;}
	.st50{fill:#FFFFFF;stroke:#FFFFFF;stroke-width:2.8139;stroke-miterlimit:10;}
	.st51{fill:#E4B3CB;}
	.st52{fill:#8E1135;}
	.st53{fill:#372C71;stroke:#372C71;stroke-width:0.175;stroke-miterlimit:10;}
	.st54{fill:#2E151D;}
	.st55{fill:#CB4A7C;}
	.st56{fill:#371529;}
	.st57{fill:#E2ADCC;}
	.st58{fill:#611740;}
	.st59{fill:none;stroke:#FFFFFF;stroke-width:3.4966;stroke-miterlimit:10;}
	.st60{fill:#FFFFFF;stroke:#FFFFFF;stroke-width:3.4966;stroke-miterlimit:10;}
	.st61{fill:#6B267F;}
	.st62{fill:#BFC5C5;}
	.st63{fill:#713787;}
	.st64{fill:#331E40;}
	.st65{fill:#545F2C;}
	.st66{fill:#212E20;}
	.st67{fill:#9FAD35;}
	.st68{fill:#D3DC7E;}
	.st69{fill:#3E3D21;}
	.st70{fill:#281C3B;}
	.st71{fill:#AA98C6;}
	.st72{fill:#FFFFFF;stroke:#292D50;stroke-width:4.3695;stroke-miterlimit:10;}
	.st73{fill:#FFFFFF;stroke:#2A4125;stroke-width:4.3017;stroke-miterlimit:10;}
	.st74{fill:#2A4027;stroke:#2A4027;stroke-width:0.5162;stroke-miterlimit:10;}
	.st75{fill:#FFFFFF;stroke:#4E5DA3;stroke-width:4.382;stroke-miterlimit:10;}
	.st76{fill:none;stroke:#1C3236;stroke-width:2.9682;stroke-linecap:round;stroke-linejoin:round;stroke-miterlimit:10;}
	.st77{fill:#FFFFFF;stroke:#DC9927;stroke-width:2.409;stroke-miterlimit:10;}
	.st78{fill:#A36F24;}
	.st79{fill:#EDC7A4;stroke:#EDC7A4;stroke-width:2.2749;stroke-miterlimit:10;}
	.st80{fill:#932E1E;stroke:#932E1E;stroke-width:2.0999;stroke-miterlimit:10;}
	.st81{fill:#932E1E;stroke:#932E1E;stroke-width:2.2749;stroke-miterlimit:10;}
	.st82{fill:#DC9359;stroke:#DC9359;stroke-width:2.2749;stroke-miterlimit:10;}
	.st83{fill:#A37025;stroke:#A37025;stroke-width:2.2369;stroke-miterlimit:10;}
	.st84{fill:#DC9359;stroke:#DC9359;stroke-width:2.2369;stroke-miterlimit:10;}
	.st85{fill:#FFFFFF;stroke:#FFFFFF;stroke-width:2.2369;stroke-miterlimit:10;}
	.st86{fill:#456131;}
	.st87{fill:none;stroke:#1C3236;stroke-width:2.9311;stroke-linecap:round;stroke-linejoin:round;stroke-miterlimit:10;}
	.st88{fill:#FFFFFF;stroke:#FFFFFF;stroke-width:3.2693;stroke-miterlimit:10;}
	.st89{fill:#878888;}
	.st90{fill:none;stroke:#30151C;stroke-width:4.6663;stroke-miterlimit:10;}
	.st91{fill:none;stroke:#331E40;stroke-width:4.84;stroke-miterlimit:10;}
	.st92{fill:#FFFFFF;stroke:#FFFFFF;stroke-width:3.2843;stroke-miterlimit:10;}
	.st93{fill:none;stroke:#331E40;stroke-width:5.197;stroke-miterlimit:10;}
	.st94{fill:#FFFFFF;stroke:#FFFFFF;stroke-width:3.2914;stroke-miterlimit:10;}
	.st95{fill:none;stroke:#1E333F;stroke-width:5.2381;stroke-miterlimit:10;}
	.st96{fill:#FFFFFF;stroke:#FFFFFF;stroke-width:3.3174;stroke-miterlimit:10;}
	.st97{fill:#FFFFFF;stroke:#FFFFFF;stroke-width:3.2837;stroke-miterlimit:10;}
	.st98{fill:#5C7487;}
	.st99{fill:none;stroke:#24121B;stroke-width:3.7855;stroke-linecap:round;stroke-linejoin:round;stroke-miterlimit:10;}
	.st100{fill:none;stroke:#24121B;stroke-width:2.581;stroke-linecap:round;stroke-linejoin:round;stroke-miterlimit:10;}
	.st101{fill:#24121B;stroke:#24121B;stroke-width:0.3441;stroke-miterlimit:10;}
	.st102{fill:none;stroke:#F9F9F9;stroke-width:3.4414;stroke-linecap:round;stroke-linejoin:round;stroke-miterlimit:10;}
	.st103{fill:none;stroke:#30151C;stroke-width:4.6459;stroke-miterlimit:10;}
	.st104{fill:none;stroke:#1E333F;stroke-width:5.1724;stroke-miterlimit:10;}
	.st105{fill:#FFFFFF;stroke:#FFFFFF;stroke-width:3.2759;stroke-miterlimit:10;}
	.st106{fill:none;stroke:#1E333F;stroke-width:5.1621;stroke-miterlimit:10;}
	.st107{fill:none;stroke:#30151C;stroke-width:4.6905;stroke-miterlimit:10;}
	.st108{fill:#FFFFFF;stroke:#FFFFFF;stroke-width:3.3007;stroke-miterlimit:10;}
</style>
<g id="Capa_1">
	<rect x="-0.2" y="-0.5" class="st18" width="140.9" height="140.9"/>
</g>
<g id="Capa_2">
	<path id="XMLID_282_" class="st23" d="M37.7,73.4c-6.5,0-11.7-5.3-11.7-11.7v-4.5c0-4.2,3.4-7.7,7.7-7.7h8.7c3.9,0,7.1,3.2,7.1,7.1
		v5.1C49.4,68.2,44.2,73.4,37.7,73.4z"/>
	<path id="XMLID_280_" class="st23" d="M55.2,95.4H20v-0.7c0-6.1,1.9-11.1,5.6-14.7c3.2-3.1,7.5-4.8,12-4.8c4.6,0,8.9,1.7,12,4.8
		c3.7,3.5,5.6,8.6,5.6,14.7V95.4z"/>
	<g id="XMLID_277_">
		<path id="XMLID_278_" class="st23" d="M101.4,73.5h-0.6c-2.9,0-5.6-1.1-7.7-3c-2.1-1.9-3.4-4.5-3.6-7.4c0-0.3,0-0.6,0-1v-4.7
			c0-1.9,0.7-3.7,2-5.2c0.5-0.6,1.1-1.1,1.8-1.5c1.2-0.7,2.5-1,3.9-1h7.9c4.2,0,7.7,3.5,7.7,7.7v4.7c0,0.4,0,0.7,0,1
			c-0.2,2.8-1.5,5.4-3.6,7.3C106.9,72.4,104.2,73.5,101.4,73.5z"/>
	</g>
	<g id="XMLID_232_">
		<path id="XMLID_233_" class="st23" d="M118.4,95.7h-36V95c0-6.2,2-11.4,5.7-15c3.3-3.2,7.6-4.9,12.3-4.9c4.7,0,9.1,1.7,12.3,4.9
			c3.7,3.6,5.7,8.8,5.7,15V95.7z"/>
	</g>
	<g id="XMLID_217_">
		<path id="XMLID_230_" class="st23" d="M72.2,64.1h-0.9c-4.1,0-8.1-1.5-11.1-4.4c-3-2.8-4.9-6.6-5.2-10.6c0-0.4-0.1-0.9-0.1-1.4
			v-6.8c0-2.8,1-5.4,2.9-7.5c0.8-0.8,1.7-1.6,2.7-2.2c1.7-1,3.6-1.5,5.6-1.5h11.4c6.1,0,11.1,5,11.1,11.1v6.8c0,0.5,0,1-0.1,1.4
			c-0.3,4.1-2.2,7.8-5.2,10.6C80.3,62.5,76.4,64.1,72.2,64.1z"/>
	</g>
	<g id="XMLID_214_">
		<path id="XMLID_215_" class="st77" d="M96.9,96.2H44.8v-1c0-9,2.9-16.5,8.3-21.7c4.7-4.6,11-7.1,17.8-7.1c6.8,0,13.1,2.5,17.8,7.1
			c5.4,5.2,8.3,12.8,8.3,21.7V96.2z"/>
	</g>
	<path class="st78" d="M112.3,87.2h-5.1c-1,0-1.8-0.8-1.8-1.8l0,0c0-1,0.8-1.8,1.8-1.8h5.1c1,0,1.8,0.8,1.8,1.8l0,0
		C114.1,86.4,113.3,87.2,112.3,87.2z"/>
	<path class="st78" d="M31.3,87.2h-5.1c-1,0-1.8-0.8-1.8-1.8l0,0c0-1,0.8-1.8,1.8-1.8h5.1c1,0,1.8,0.8,1.8,1.8l0,0
		C33.1,86.4,32.3,87.2,31.3,87.2z"/>
	<path class="st78" d="M86.5,85.4H77c-0.1,0-0.2-0.1-0.2-0.2v-3.6c0-0.1,0.1-0.2,0.2-0.2h9.5c0.1,0,0.2,0.1,0.2,0.2v3.6
		C86.7,85.3,86.6,85.4,86.5,85.4z"/>
	<path class="st83" d="M58.1,118.7H52c-0.2,0-0.4-0.2-0.4-0.4v-8.6c0-0.2,0.2-0.4,0.4-0.4h6.1c0.2,0,0.4,0.2,0.4,0.4v8.6
		C58.5,118.5,58.3,118.7,58.1,118.7z"/>
	<path class="st83" d="M69.2,118.7h-6.1c-0.2,0-0.4-0.2-0.4-0.4v-11.3c0-0.2,0.2-0.4,0.4-0.4h6.1c0.2,0,0.4,0.2,0.4,0.4v11.3
		C69.6,118.6,69.4,118.7,69.2,118.7z"/>
	<path class="st83" d="M80.2,118.8h-6.1c-0.2,0-0.4-0.2-0.4-0.4v-14.2c0-0.2,0.2-0.4,0.4-0.4h6.1c0.2,0,0.4,0.2,0.4,0.4v14.2
		C80.6,118.6,80.4,118.8,80.2,118.8z"/>
	<path class="st84" d="M91.3,118.8h-6.1c-0.2,0-0.4-0.2-0.4-0.4v-15c0-0.2,0.2-0.4,0.4-0.4h6.1c0.2,0,0.4,0.2,0.4,0.4v15
		C91.7,118.6,91.5,118.8,91.3,118.8z"/>
	<path class="st83" d="M91.4,118.7h-6.1c-0.2,0-0.4-0.2-0.4-0.4v-15c0-0.2,0.2-0.4,0.4-0.4h6.1c0.2,0,0.4,0.2,0.4,0.4v15
		C91.7,118.6,91.6,118.7,91.4,118.7z"/>
	<path class="st85" d="M56.3,118.7h-4.4c-0.1,0-0.3-0.1-0.3-0.3v-8.8c0-0.1,0.1-0.3,0.3-0.3h4.4c0.1,0,0.3,0.1,0.3,0.3v8.8
		C56.6,118.6,56.5,118.7,56.3,118.7z"/>
	<path class="st85" d="M67.4,118.8H63c-0.1,0-0.3-0.1-0.3-0.3V107c0-0.1,0.1-0.3,0.3-0.3h4.4c0.1,0,0.3,0.1,0.3,0.3v11.5
		C67.7,118.7,67.6,118.8,67.4,118.8z"/>
	<path class="st85" d="M89.6,118.8h-4.4c-0.1,0-0.3-0.1-0.3-0.3v-15.2c0-0.1,0.1-0.3,0.3-0.3h4.4c0.1,0,0.3,0.1,0.3,0.3v15.2
		C89.9,118.7,89.7,118.8,89.6,118.8z"/>
	<path class="st85" d="M78.5,118.8H74c-0.1,0-0.3-0.1-0.3-0.3v-14.4c0-0.1,0.1-0.3,0.3-0.3h4.4c0.1,0,0.3,0.1,0.3,0.3v14.4
		C78.7,118.7,78.6,118.8,78.5,118.8z"/>
	<path class="st83" d="M48.1,118.7H42c-0.2,0-0.4-0.2-0.4-0.4v-6c0-0.2,0.2-0.4,0.4-0.4h6.1c0.2,0,0.4,0.2,0.4,0.4v6
		C48.4,118.5,48.3,118.7,48.1,118.7z"/>
	<path class="st85" d="M46.3,118.7h-4.4c-0.1,0-0.3-0.1-0.3-0.3v-6.2c0-0.1,0.1-0.3,0.3-0.3h4.4c0.1,0,0.3,0.1,0.3,0.3v6.2
		C46.6,118.6,46.4,118.7,46.3,118.7z"/>
</g>
<g id="Capa_3">
	<g id="XMLID_11401_">
		<path id="XMLID_11405_" class="st23" d="M97.5,99.6c0-0.6-0.6-1-1.4-1H36.9c-0.8,0-1.4,0.4-1.4,1v22.5c0,0.6,0.6,1,1.4,1h59.2
			c0.8,0,1.4-0.4,1.4-1v-3.8h4.6c0.8,0,1.4-0.4,1.4-1v-12.9c0-0.6-0.6-1-1.4-1h-4.6V99.6z M100.7,116.3h-4.6c-0.8,0-1.4,0.4-1.4,1
			v3.8H38.3v-20.5h56.4v3.8c0,0.6,0.6,1,1.4,1h4.6V116.3z"/>
	</g>
</g>
</svg>
