<?xml version="1.0" encoding="utf-8"?>
<!-- Generator: Adobe Illustrator 23.0.6, SVG Export Plug-In . SVG Version: 6.00 Build 0)  -->
<svg version="1.1" xmlns="http://www.w3.org/2000/svg" xmlns:xlink="http://www.w3.org/1999/xlink" x="0px" y="0px"
	 viewBox="0 0 140 140" style="enable-background:new 0 0 140 140;" xml:space="preserve">
<style type="text/css">
	.st0{fill:#BE6D20;}
	.st1{fill:#BB513B;}
	.st2{fill:#7F3318;}
	.st3{fill:#C41A3B;}
	.st4{fill:#871A4F;}
	.st5{fill:#623284;}
	.st6{fill:#292C51;}
	.st7{fill:#4D5CA3;}
	.st8{fill:#5C95C9;}
	.st9{fill:#005460;}
	.st10{fill:#3BA08D;}
	.st11{fill:#74AC40;}
	.st12{fill:#497A3C;}
	.st13{fill:#B7CA47;}
	.st14{fill:#939054;}
	.st15{fill:#FFFFFF;stroke:#9EC37D;stroke-width:4.3502;stroke-miterlimit:10;}
	.st16{fill:#DCDCDC;}
	.st17{fill:#497B3C;stroke:#497B3C;stroke-width:0.522;stroke-miterlimit:10;}
	.st18{fill:#DB9825;}
	.st19{fill:#CA4D26;}
	.st20{fill:#6E4953;}
	.st21{fill:#4F3541;}
	.st22{fill:#932E1E;stroke:#932E1E;stroke-width:4.7249;stroke-miterlimit:10;}
	.st23{fill:#FFFFFF;}
	.st24{fill:#4A1917;}
	.st25{fill:#F9F9F9;}
	.st26{fill:#BA7B6A;}
	.st27{fill:none;stroke:#371C16;stroke-width:2.6204;stroke-linecap:round;stroke-linejoin:round;stroke-miterlimit:10;}
	.st28{fill:#FFFFFF;stroke:#FFFFFF;stroke-width:0.1754;stroke-miterlimit:10;}
	.st29{fill:#561827;}
	.st30{fill:#B48995;}
	.st31{fill:#30151C;}
	.st32{fill:#7B5568;}
	.st33{fill:none;stroke:#24121B;stroke-width:3.8462;stroke-linecap:round;stroke-linejoin:round;stroke-miterlimit:10;}
	.st34{fill:none;stroke:#F9F9F9;stroke-width:3.4966;stroke-linecap:round;stroke-linejoin:round;stroke-miterlimit:10;}
	.st35{fill:#24121B;stroke:#24121B;stroke-width:0.3497;stroke-miterlimit:10;}
	.st36{fill:none;stroke:#24121B;stroke-width:2.6224;stroke-linecap:round;stroke-linejoin:round;stroke-miterlimit:10;}
	.st37{fill:#FFFFFF;stroke:url(#);stroke-width:0.1743;stroke-miterlimit:10;}
	.st38{fill:#1B2A37;}
	.st39{fill:#85C1D2;}
	.st40{fill:none;stroke:#1C3236;stroke-width:2.9702;stroke-linecap:round;stroke-linejoin:round;stroke-miterlimit:10;}
	.st41{fill:#72B4E6;}
	.st42{fill:#1C3236;}
	.st43{fill:#B1CDEE;}
	.st44{fill:#C3DFE7;}
	.st45{fill:#2E4D44;}
	.st46{fill:#DEC34A;}
	.st47{fill:#6E5A21;}
	.st48{fill:#4C3E1D;}
	.st49{fill:none;stroke:#FFFFFF;stroke-width:2.8139;stroke-miterlimit:10;}
	.st50{fill:#FFFFFF;stroke:#FFFFFF;stroke-width:2.8139;stroke-miterlimit:10;}
	.st51{fill:#E4B3CB;}
	.st52{fill:#8E1135;}
	.st53{fill:#372C71;stroke:#372C71;stroke-width:0.175;stroke-miterlimit:10;}
	.st54{fill:#2E151D;}
	.st55{fill:#CB4A7C;}
	.st56{fill:#371529;}
	.st57{fill:#E2ADCC;}
	.st58{fill:#611740;}
	.st59{fill:none;stroke:#FFFFFF;stroke-width:3.4966;stroke-miterlimit:10;}
	.st60{fill:#FFFFFF;stroke:#FFFFFF;stroke-width:3.4966;stroke-miterlimit:10;}
	.st61{fill:#6B267F;}
	.st62{fill:#BFC5C5;}
	.st63{fill:#713787;}
	.st64{fill:#331E40;}
	.st65{fill:#545F2C;}
	.st66{fill:#212E20;}
	.st67{fill:#9FAD35;}
	.st68{fill:#D3DC7E;}
	.st69{fill:#3E3D21;}
	.st70{fill:#281C3B;}
	.st71{fill:#AA98C6;}
	.st72{fill:#FFFFFF;stroke:#292D50;stroke-width:4.3695;stroke-miterlimit:10;}
	.st73{fill:#FFFFFF;stroke:#2A4125;stroke-width:4.3017;stroke-miterlimit:10;}
	.st74{fill:#2A4027;stroke:#2A4027;stroke-width:0.5162;stroke-miterlimit:10;}
	.st75{fill:#FFFFFF;stroke:#4E5DA3;stroke-width:4.382;stroke-miterlimit:10;}
	.st76{fill:none;stroke:#1C3236;stroke-width:2.9682;stroke-linecap:round;stroke-linejoin:round;stroke-miterlimit:10;}
	.st77{fill:#FFFFFF;stroke:#DC9927;stroke-width:2.409;stroke-miterlimit:10;}
	.st78{fill:#A36F24;}
	.st79{fill:#EDC7A4;stroke:#EDC7A4;stroke-width:2.2749;stroke-miterlimit:10;}
	.st80{fill:#932E1E;stroke:#932E1E;stroke-width:2.0999;stroke-miterlimit:10;}
	.st81{fill:#932E1E;stroke:#932E1E;stroke-width:2.2749;stroke-miterlimit:10;}
	.st82{fill:#DC9359;stroke:#DC9359;stroke-width:2.2749;stroke-miterlimit:10;}
	.st83{fill:#A37025;stroke:#A37025;stroke-width:2.2369;stroke-miterlimit:10;}
	.st84{fill:#DC9359;stroke:#DC9359;stroke-width:2.2369;stroke-miterlimit:10;}
	.st85{fill:#FFFFFF;stroke:#FFFFFF;stroke-width:2.2369;stroke-miterlimit:10;}
	.st86{fill:#456131;}
	.st87{fill:none;stroke:#1C3236;stroke-width:2.9311;stroke-linecap:round;stroke-linejoin:round;stroke-miterlimit:10;}
	.st88{fill:#FFFFFF;stroke:#FFFFFF;stroke-width:3.2693;stroke-miterlimit:10;}
	.st89{fill:#878888;}
	.st90{fill:none;stroke:#30151C;stroke-width:4.6663;stroke-miterlimit:10;}
	.st91{fill:none;stroke:#331E40;stroke-width:4.84;stroke-miterlimit:10;}
	.st92{fill:#FFFFFF;stroke:#FFFFFF;stroke-width:3.2843;stroke-miterlimit:10;}
	.st93{fill:none;stroke:#331E40;stroke-width:5.197;stroke-miterlimit:10;}
	.st94{fill:#FFFFFF;stroke:#FFFFFF;stroke-width:3.2914;stroke-miterlimit:10;}
	.st95{fill:none;stroke:#1E333F;stroke-width:5.2381;stroke-miterlimit:10;}
	.st96{fill:#FFFFFF;stroke:#FFFFFF;stroke-width:3.3174;stroke-miterlimit:10;}
	.st97{fill:#FFFFFF;stroke:#FFFFFF;stroke-width:3.2837;stroke-miterlimit:10;}
	.st98{fill:#5C7487;}
	.st99{fill:none;stroke:#24121B;stroke-width:3.7855;stroke-linecap:round;stroke-linejoin:round;stroke-miterlimit:10;}
	.st100{fill:none;stroke:#24121B;stroke-width:2.581;stroke-linecap:round;stroke-linejoin:round;stroke-miterlimit:10;}
	.st101{fill:#24121B;stroke:#24121B;stroke-width:0.3441;stroke-miterlimit:10;}
	.st102{fill:none;stroke:#F9F9F9;stroke-width:3.4414;stroke-linecap:round;stroke-linejoin:round;stroke-miterlimit:10;}
	.st103{fill:none;stroke:#30151C;stroke-width:4.6459;stroke-miterlimit:10;}
	.st104{fill:none;stroke:#1E333F;stroke-width:5.1724;stroke-miterlimit:10;}
	.st105{fill:#FFFFFF;stroke:#FFFFFF;stroke-width:3.2759;stroke-miterlimit:10;}
	.st106{fill:none;stroke:#1E333F;stroke-width:5.1621;stroke-miterlimit:10;}
	.st107{fill:none;stroke:#30151C;stroke-width:4.6905;stroke-miterlimit:10;}
	.st108{fill:#FFFFFF;stroke:#FFFFFF;stroke-width:3.3007;stroke-miterlimit:10;}
</style>
<g id="Capa_1">
</g>
<g id="Capa_2">
	<rect class="st20" width="140" height="140"/>
	<g>
		<g>
			<g>
				<path class="st30" d="M111.4,83.2c-1.8,0-3.5,0.8-4.5,2.1V70.9H92.6c1.2,1,2,2.7,2,4.5c0,3.3-2.7,6-6,6c-3.3,0-6-2.7-6-6
					c0-1.8,0.8-3.5,2-4.5H70.6v14.2c-1-1.2-2.7-1.9-4.5-1.9c-3.3,0-6,2.7-6,6c0,3.3,2.7,6,6,6c1.7,0,3.5-0.7,4.5-1.9v14.1h36.4V93
					c1,1.3,2.6,2.1,4.5,2.1c3.3,0,6-2.7,6-6C117.3,85.8,114.7,83.2,111.4,83.2z"/>
			</g>
		</g>
		<g>
			<g>
				<path class="st23" d="M106.9,34.5H92.6c1.2-1,2-2.6,2-4.4c0-3.3-2.7-5.9-6-5.9c-3.3,0-6,2.6-6,5.9c0,1.8,0.8,3.5,2,4.4H70.6
					v13.7c1-1.3,2.6-2.1,4.5-2.1c3.3,0,5.9,2.7,5.9,6c0,3.3-2.6,6-5.9,6c-1.8,0-3.5-0.8-4.5-2.1v15h14.1c-1.2,1-2,2.7-2,4.5
					c0,3.3,2.7,6,6,6c3.3,0,6-2.7,6-6c0-1.8-0.8-3.5-2-4.5h14.3V34.5z"/>
			</g>
		</g>
		<g>
			<g>
				<path class="st31" d="M106.8,108.7H70.5c-0.8,0-1.4-0.5-1.4-1.4V96c-1,0.4-2,0.6-3,0.6c-4.1,0-7.5-3.3-7.5-7.4s3.4-7.4,7.5-7.4
					c1,0,2,0.2,3,0.6V71c0-0.8,0.6-1.6,1.4-1.6h14.2c0.6,0,1.2,0.4,1.4,1c0.2,0.6,0,1.3-0.5,1.7c-0.9,0.7-1.5,2-1.5,3.3
					c0,2.5,2,4.5,4.5,4.5s4.5-2,4.5-4.5c0-1.3-0.6-2.6-1.5-3.3c-0.5-0.4-0.7-1.1-0.5-1.7c0.2-0.6,0.8-1,1.4-1h14.2
					c0.8,0,1.6,0.8,1.6,1.6v11.4c0.7-0.4,1.9-0.6,3-0.6c4.1,0,7.4,3.3,7.4,7.4s-3.3,7.4-7.4,7.4c-1.1,0-2.3-0.2-3-0.6v11.4
					C108.4,108.2,107.6,108.7,106.8,108.7z M72,105.8h33.4V93c0-0.6,0.4-1.2,0.9-1.4c0.6-0.2,1.2,0,1.6,0.5c0.7,0.9,2,1.5,3.3,1.5
					c2.5,0,4.5-2,4.5-4.5c0-2.5-2-4.5-4.5-4.5c-1.3,0-2.6,0.6-3.3,1.5c-0.4,0.5-1,0.7-1.6,0.5c-0.6-0.2-0.9-0.8-0.9-1.4V72.3h-10
					c0.4,1,0.6,2,0.6,3.1c0,4.1-3.3,7.4-7.4,7.4c-4.1,0-7.4-3.4-7.4-7.5c0-1,0.2-2.1,0.6-3H72v12.7c0,0.6-0.4,1.2-1,1.4
					c-0.6,0.2-1.3,0-1.7-0.4c-0.7-0.8-2-1.4-3.3-1.4c-2.5,0-4.5,2-4.5,4.5c0,2.5,2,4.5,4.5,4.5c1.3,0,2.6-0.5,3.3-1.4
					c0.4-0.5,1.1-0.7,1.7-0.4c0.6,0.2,1,0.8,1,1.4V105.8z"/>
			</g>
		</g>
		<g>
			<g>
				<path class="st30" d="M75,46.1c-1.8,0-3.5,0.8-4.5,2.1V34.5H34.2V48c-1-1.2-2.7-1.9-4.5-1.9c-3.3,0-6,2.7-6,6c0,3.3,2.7,6,6,6
					c1.7,0,3.5-0.7,4.4-1.9v14.8h14.1c-1.2-1-2-2.6-2-4.4c0-3.3,2.7-5.9,6-5.9c3.3,0,6,2.6,6,5.9c0,1.8-0.8,3.5-2,4.4h14.3v-15
					c1,1.3,2.6,2.1,4.5,2.1c3.3,0,6-2.7,6-6C81,48.7,78.3,46.1,75,46.1z"/>
			</g>
		</g>
		<g>
			<g>
				<path class="st23" d="M66.1,83.2c1.7,0,3.5,0.7,4.5,1.9V70.9H56.2c1.2-1,2-2.6,2-4.4c0-3.3-2.7-5.9-6-5.9c-3.3,0-6,2.6-6,5.9
					c0,1.8,0.8,3.5,2,4.4H34.2v36.4h14.1c-1.2,1-2,2.7-2,4.5c0,3.3,2.7,6,6,6c3.3,0,6-2.7,6-6c0-1.8-0.8-3.5-2-4.5h14.3V93.2
					c-1,1.2-2.7,1.9-4.5,1.9c-3.3,0-6-2.7-6-6C60.1,85.8,62.8,83.2,66.1,83.2z"/>
			</g>
		</g>
		<g>
			<g>
				<path class="st31" d="M88.6,82.9c-4.1,0-7.4-3.4-7.4-7.5c0-1,0.2-2.1,0.6-3.1H70.5c-0.8,0-1.4-0.5-1.4-1.4V55.9
					c0-0.6,0.4-1.2,0.9-1.4c0.6-0.2,1.2,0,1.6,0.5c0.7,0.9,2,1.5,3.3,1.5c2.5,0,4.5-2,4.5-4.5c0-2.5-2-4.5-4.5-4.5
					c-1.4,0-2.6,0.6-3.4,1.5c-0.4,0.5-1,0.7-1.6,0.5c-0.6-0.2-0.9-0.8-0.9-1.4V34.6c0-0.8,0.6-1.6,1.4-1.6h11.4
					c-0.4-0.7-0.6-1.9-0.6-3c0-4.1,3.3-7.4,7.4-7.4c4.1,0,7.4,3.3,7.4,7.4c0,1-0.2,2.2-0.6,3h11.4c0.8,0,1.6,0.8,1.6,1.6V71
					c0,0.8-0.8,1.4-1.6,1.4H95.4c0.4,1,0.6,2,0.6,3.1C96.1,79.5,92.7,82.9,88.6,82.9z M72,69.4h12.7c0.6,0,1.2,0.4,1.4,1
					c0.2,0.6,0,1.3-0.5,1.7c-0.9,0.7-1.5,2-1.5,3.3c0,2.5,2,4.5,4.5,4.5s4.5-2,4.5-4.5c0-1.3-0.6-2.6-1.5-3.3
					c-0.5-0.4-0.7-1.1-0.5-1.7c0.2-0.6,0.8-1,1.4-1h12.9V36H92.6c-0.6,0-1.2-0.3-1.4-0.9c-0.2-0.6,0-1.2,0.5-1.6
					c0.9-0.7,1.5-2,1.5-3.3c0-2.5-2-4.5-4.5-4.5s-4.5,2-4.5,4.5c0,1.3,0.6,2.6,1.5,3.3c0.5,0.4,0.7,1,0.5,1.6
					c-0.2,0.6-0.8,0.9-1.4,0.9H72v9.3c0.7-0.4,1.9-0.7,3-0.7c4.1,0,7.4,3.3,7.4,7.4c0,4.1-3.3,7.4-7.4,7.4c-1.1,0-2.3-0.2-3-0.7
					V69.4z"/>
			</g>
		</g>
		<g>
			<g>
				<path class="st31" d="M70.5,72.3H56.3c-0.6,0-1.2-0.3-1.4-0.9c-0.2-0.6,0-1.2,0.5-1.6c0.9-0.7,1.5-2,1.5-3.3
					c0-2.5-2-4.5-4.5-4.5c-2.5,0-4.5,2-4.5,4.5c0,1.3,0.5,2.6,1.4,3.3c0.4,0.3,0.6,0.6,0.6,1.1c0,0.8-0.7,1.4-1.5,1.4c0,0,0,0,0,0
					H34.1c-0.8,0-1.4-0.5-1.4-1.4V58.9c-1,0.4-2,0.6-3,0.6c-4.1,0-7.5-3.3-7.5-7.4c0-4.1,3.4-7.4,7.5-7.4c1,0,2,0.2,3,0.6V34.6
					c0-0.8,0.6-1.6,1.4-1.6h36.4c0.8,0,1.6,0.8,1.6,1.6v10.6c0.7-0.4,1.9-0.7,3-0.7c4.1,0,7.4,3.3,7.4,7.4c0,4.1-3.3,7.4-7.4,7.4
					c-1.1,0-2.3-0.2-3-0.7V71C72,71.8,71.3,72.3,70.5,72.3z M59.1,69.4h10V55.9c0-0.6,0.4-1.2,0.9-1.4c0.6-0.2,1.2,0,1.6,0.5
					c0.7,0.9,2,1.5,3.3,1.5c2.5,0,4.5-2,4.5-4.5c0-2.5-2-4.5-4.5-4.5c-1.4,0-2.6,0.6-3.4,1.5c-0.4,0.5-1,0.7-1.6,0.5
					c-0.6-0.2-0.9-0.8-0.9-1.4V36H35.7v12c0,0.6-0.4,1.2-1,1.4c-0.6,0.2-1.3,0-1.7-0.4c-0.7-0.8-2-1.4-3.3-1.4c-2.5,0-4.5,2-4.5,4.5
					c0,2.5,2,4.5,4.5,4.5c1.3,0,2.6-0.5,3.3-1.4c0.4-0.5,1.1-0.7,1.7-0.4c0.6,0.2,1,0.8,1,1.4v13.4h9.8c-0.4-0.7-0.6-1.9-0.6-3
					c0-4.1,3.3-7.4,7.4-7.4c4.1,0,7.4,3.3,7.4,7.4C59.7,67.5,59.5,68.7,59.1,69.4z"/>
			</g>
		</g>
		<g>
			<g>
				<path class="st31" d="M52.3,119.2c-4.1,0-7.4-3.4-7.4-7.5c0-1,0.2-2.1,0.6-3H34.1c-0.8,0-1.4-0.5-1.4-1.4V71
					c0-0.8,0.6-1.6,1.4-1.6h11.4c-0.4-0.7-0.6-1.9-0.6-3c0-4.1,3.3-7.4,7.4-7.4c4.1,0,7.4,3.3,7.4,7.4c0,1-0.2,2.2-0.6,3h11.3
					c0.8,0,1.6,0.8,1.6,1.6v14.1c0,0.6-0.4,1.2-1,1.4c-0.6,0.2-1.3,0-1.7-0.4c-0.7-0.8-2-1.4-3.3-1.4c-2.5,0-4.5,2-4.5,4.5
					c0,2.5,2,4.5,4.5,4.5c1.3,0,2.6-0.5,3.3-1.4c0.4-0.5,1.1-0.7,1.7-0.4c0.6,0.2,1,0.8,1,1.4v14.2c0,0.8-0.8,1.4-1.6,1.4H59.1
					c0.4,1,0.6,2,0.6,3C59.7,115.8,56.4,119.2,52.3,119.2z M35.7,105.8h12.7c0.6,0,1.2,0.4,1.4,1c0.2,0.6,0,1.3-0.5,1.7
					c-0.9,0.7-1.5,2-1.5,3.3c0,2.5,2,4.5,4.5,4.5c2.5,0,4.5-2,4.5-4.5c0-1.3-0.6-2.6-1.5-3.3c-0.5-0.4-0.7-1.1-0.5-1.7
					c0.2-0.6,0.8-1,1.4-1h12.9V96c-1,0.4-2,0.6-3,0.6c-4.1,0-7.5-3.3-7.5-7.4s3.4-7.4,7.5-7.4c1,0,2,0.2,3,0.6v-9.9H56.2
					c-0.6,0-1.2-0.3-1.4-0.9c-0.2-0.6,0-1.2,0.5-1.6c0.9-0.7,1.5-2,1.5-3.3c0-2.5-2-4.5-4.5-4.5c-2.5,0-4.5,2-4.5,4.5
					c0,1.3,0.6,2.6,1.5,3.3c0.5,0.4,0.7,1,0.5,1.6c-0.2,0.6-0.8,0.9-1.4,0.9H35.7V105.8z"/>
			</g>
		</g>
	</g>
</g>
<g id="Capa_3">
</g>
</svg>
