<?xml version="1.0" encoding="utf-8"?>
<!-- Generator: Adobe Illustrator 23.0.6, SVG Export Plug-In . SVG Version: 6.00 Build 0)  -->
<svg version="1.1" xmlns="http://www.w3.org/2000/svg" xmlns:xlink="http://www.w3.org/1999/xlink" x="0px" y="0px"
	 viewBox="0 0 140 140" style="enable-background:new 0 0 140 140;" xml:space="preserve">
<style type="text/css">
	.st0{fill:#BE6D20;}
	.st1{fill:#BB513B;}
	.st2{fill:#7F3318;}
	.st3{fill:#C41A3B;}
	.st4{fill:#871A4F;}
	.st5{fill:#623284;}
	.st6{fill:#292C51;}
	.st7{fill:#4D5CA3;}
	.st8{fill:#5C95C9;}
	.st9{fill:#005460;}
	.st10{fill:#3BA08D;}
	.st11{fill:#74AC40;}
	.st12{fill:#497A3C;}
	.st13{fill:#B7CA47;}
	.st14{fill:#939054;}
	.st15{fill:#FFFFFF;stroke:#9EC37D;stroke-width:4.3502;stroke-miterlimit:10;}
	.st16{fill:#DCDCDC;}
	.st17{fill:#497B3C;stroke:#497B3C;stroke-width:0.522;stroke-miterlimit:10;}
	.st18{fill:#DB9825;}
	.st19{fill:#CA4D26;}
	.st20{fill:#6E4953;}
	.st21{fill:#4F3541;}
	.st22{fill:#932E1E;stroke:#932E1E;stroke-width:4.7249;stroke-miterlimit:10;}
	.st23{fill:#FFFFFF;}
	.st24{fill:#4A1917;}
	.st25{fill:#F9F9F9;}
	.st26{fill:#BA7B6A;}
	.st27{fill:none;stroke:#371C16;stroke-width:2.6204;stroke-linecap:round;stroke-linejoin:round;stroke-miterlimit:10;}
	.st28{fill:#FFFFFF;stroke:#FFFFFF;stroke-width:0.1754;stroke-miterlimit:10;}
	.st29{fill:#561827;}
	.st30{fill:#B48995;}
	.st31{fill:#30151C;}
	.st32{fill:#7B5568;}
	.st33{fill:none;stroke:#24121B;stroke-width:3.8462;stroke-linecap:round;stroke-linejoin:round;stroke-miterlimit:10;}
	.st34{fill:none;stroke:#F9F9F9;stroke-width:3.4966;stroke-linecap:round;stroke-linejoin:round;stroke-miterlimit:10;}
	.st35{fill:#24121B;stroke:#24121B;stroke-width:0.3497;stroke-miterlimit:10;}
	.st36{fill:none;stroke:#24121B;stroke-width:2.6224;stroke-linecap:round;stroke-linejoin:round;stroke-miterlimit:10;}
	.st37{fill:#FFFFFF;stroke:url(#);stroke-width:0.1743;stroke-miterlimit:10;}
	.st38{fill:#1B2A37;}
	.st39{fill:#85C1D2;}
	.st40{fill:none;stroke:#1C3236;stroke-width:2.9702;stroke-linecap:round;stroke-linejoin:round;stroke-miterlimit:10;}
	.st41{fill:#72B4E6;}
	.st42{fill:#1C3236;}
	.st43{fill:#B1CDEE;}
	.st44{fill:#C3DFE7;}
	.st45{fill:#2E4D44;}
	.st46{fill:#DEC34A;}
	.st47{fill:#6E5A21;}
	.st48{fill:#4C3E1D;}
	.st49{fill:none;stroke:#FFFFFF;stroke-width:2.8139;stroke-miterlimit:10;}
	.st50{fill:#FFFFFF;stroke:#FFFFFF;stroke-width:2.8139;stroke-miterlimit:10;}
	.st51{fill:#E4B3CB;}
	.st52{fill:#8E1135;}
	.st53{fill:#372C71;stroke:#372C71;stroke-width:0.175;stroke-miterlimit:10;}
	.st54{fill:#2E151D;}
	.st55{fill:#CB4A7C;}
	.st56{fill:#371529;}
	.st57{fill:#E2ADCC;}
	.st58{fill:#611740;}
	.st59{fill:none;stroke:#FFFFFF;stroke-width:3.4966;stroke-miterlimit:10;}
	.st60{fill:#FFFFFF;stroke:#FFFFFF;stroke-width:3.4966;stroke-miterlimit:10;}
	.st61{fill:#6B267F;}
	.st62{fill:#BFC5C5;}
	.st63{fill:#713787;}
	.st64{fill:#331E40;}
	.st65{fill:#545F2C;}
	.st66{fill:#212E20;}
	.st67{fill:#9FAD35;}
	.st68{fill:#D3DC7E;}
	.st69{fill:#3E3D21;}
	.st70{fill:#281C3B;}
	.st71{fill:#AA98C6;}
	.st72{fill:#FFFFFF;stroke:#292D50;stroke-width:4.3695;stroke-miterlimit:10;}
	.st73{fill:#FFFFFF;stroke:#2A4125;stroke-width:4.3017;stroke-miterlimit:10;}
	.st74{fill:#2A4027;stroke:#2A4027;stroke-width:0.5162;stroke-miterlimit:10;}
	.st75{fill:#FFFFFF;stroke:#4E5DA3;stroke-width:4.382;stroke-miterlimit:10;}
	.st76{fill:none;stroke:#1C3236;stroke-width:2.9682;stroke-linecap:round;stroke-linejoin:round;stroke-miterlimit:10;}
	.st77{fill:#FFFFFF;stroke:#DC9927;stroke-width:2.409;stroke-miterlimit:10;}
	.st78{fill:#A36F24;}
	.st79{fill:#EDC7A4;stroke:#EDC7A4;stroke-width:2.2749;stroke-miterlimit:10;}
	.st80{fill:#932E1E;stroke:#932E1E;stroke-width:2.0999;stroke-miterlimit:10;}
	.st81{fill:#932E1E;stroke:#932E1E;stroke-width:2.2749;stroke-miterlimit:10;}
	.st82{fill:#DC9359;stroke:#DC9359;stroke-width:2.2749;stroke-miterlimit:10;}
	.st83{fill:#A37025;stroke:#A37025;stroke-width:2.2369;stroke-miterlimit:10;}
	.st84{fill:#DC9359;stroke:#DC9359;stroke-width:2.2369;stroke-miterlimit:10;}
	.st85{fill:#FFFFFF;stroke:#FFFFFF;stroke-width:2.2369;stroke-miterlimit:10;}
	.st86{fill:#456131;}
	.st87{fill:none;stroke:#1C3236;stroke-width:2.9311;stroke-linecap:round;stroke-linejoin:round;stroke-miterlimit:10;}
	.st88{fill:#FFFFFF;stroke:#FFFFFF;stroke-width:3.2693;stroke-miterlimit:10;}
	.st89{fill:#878888;}
	.st90{fill:none;stroke:#30151C;stroke-width:4.6663;stroke-miterlimit:10;}
	.st91{fill:none;stroke:#331E40;stroke-width:4.84;stroke-miterlimit:10;}
	.st92{fill:#FFFFFF;stroke:#FFFFFF;stroke-width:3.2843;stroke-miterlimit:10;}
	.st93{fill:none;stroke:#331E40;stroke-width:5.197;stroke-miterlimit:10;}
	.st94{fill:#FFFFFF;stroke:#FFFFFF;stroke-width:3.2914;stroke-miterlimit:10;}
	.st95{fill:none;stroke:#1E333F;stroke-width:5.2381;stroke-miterlimit:10;}
	.st96{fill:#FFFFFF;stroke:#FFFFFF;stroke-width:3.3174;stroke-miterlimit:10;}
	.st97{fill:#FFFFFF;stroke:#FFFFFF;stroke-width:3.2837;stroke-miterlimit:10;}
	.st98{fill:#5C7487;}
	.st99{fill:none;stroke:#24121B;stroke-width:3.7855;stroke-linecap:round;stroke-linejoin:round;stroke-miterlimit:10;}
	.st100{fill:none;stroke:#24121B;stroke-width:2.581;stroke-linecap:round;stroke-linejoin:round;stroke-miterlimit:10;}
	.st101{fill:#24121B;stroke:#24121B;stroke-width:0.3441;stroke-miterlimit:10;}
	.st102{fill:none;stroke:#F9F9F9;stroke-width:3.4414;stroke-linecap:round;stroke-linejoin:round;stroke-miterlimit:10;}
	.st103{fill:none;stroke:#30151C;stroke-width:4.6459;stroke-miterlimit:10;}
	.st104{fill:none;stroke:#1E333F;stroke-width:5.1724;stroke-miterlimit:10;}
	.st105{fill:#FFFFFF;stroke:#FFFFFF;stroke-width:3.2759;stroke-miterlimit:10;}
	.st106{fill:none;stroke:#1E333F;stroke-width:5.1621;stroke-miterlimit:10;}
	.st107{fill:none;stroke:#30151C;stroke-width:4.6905;stroke-miterlimit:10;}
	.st108{fill:#FFFFFF;stroke:#FFFFFF;stroke-width:3.3007;stroke-miterlimit:10;}
</style>
<g id="Capa_1">
	<rect x="0.2" y="0.2" class="st10" width="139.6" height="139.6"/>
</g>
<g id="Capa_2">
	<g>
		<g>
			<g>
				<g>
					<path class="st44" d="M93.3,77.1h5.7c7.5,0,13.6-6.1,13.6-13.6c0-6.6-4.7-12.1-10.9-13.3c0-0.1,0-0.2,0-0.3
						c0-7.5-6.1-13.6-13.6-13.6c-1.4,0-2.7,0.2-4,0.6c-1.9-6.5-8-11.3-15.1-11.3s-13.2,4.8-15.1,11.3c-1.3-0.4-2.6-0.6-4-0.6
						c-7.5,0-13.6,6.1-13.6,13.6c0,0.1,0,0.2,0,0.3c-6.2,1.3-10.9,6.8-10.9,13.3c0,7.5,6.1,13.6,13.6,13.6h45.1H93.3z"/>
				</g>
			</g>
		</g>
		<g>
			<g>
				<g>
					<path class="st44" d="M98.9,78.5H39c-8.3,0-15.1-6.8-15.1-15.1c0-6.7,4.5-12.6,10.9-14.5c0.5-7.9,7-14.2,15.1-14.2
						c1,0,2,0.1,3,0.3c2.6-6.5,9-11,16.1-11c7.1,0,13.5,4.5,16.1,11c1-0.2,2-0.3,3-0.3c8,0,14.6,6.3,15.1,14.2
						c6.4,1.9,10.9,7.8,10.9,14.5C114,71.8,107.3,78.5,98.9,78.5z M49.9,37.7c-6.7,0-12.1,5.4-12.1,12.1c0,0,0,0.1,0,0.1l0,0.1
						c0,0.7-0.5,1.3-1.2,1.5c-5.6,1.2-9.7,6.2-9.7,11.9c0,6.7,5.4,12.1,12.1,12.1h59.9c6.7,0,12.1-5.4,12.1-12.1
						c0-5.7-4.1-10.7-9.7-11.9c-0.7-0.1-1.2-0.8-1.2-1.5l0-0.1c0,0,0-0.1,0-0.1c0-6.7-5.4-12.1-12.1-12.1c-1.2,0-2.4,0.2-3.5,0.5
						c-0.4,0.1-0.8,0.1-1.1-0.1c-0.3-0.2-0.6-0.5-0.7-0.9C80.9,31.2,75.3,27,69,27c-6.3,0-11.9,4.2-13.7,10.2
						c-0.1,0.4-0.4,0.7-0.7,0.9c-0.3,0.2-0.8,0.2-1.1,0.1C52.3,37.8,51.1,37.7,49.9,37.7z"/>
				</g>
			</g>
		</g>
	</g>
	<g id="XMLID_159_">
		<g id="XMLID_160_">
			<polygon id="XMLID_285_" class="st45" points="87.6,63.1 71,76.2 43.2,62.5 49,57.9 			"/>
			<polygon id="XMLID_284_" class="st45" points="95.7,73.3 79.1,86.4 86,116.7 91.8,112.1 			"/>
			<g id="XMLID_211_">
				<path id="XMLID_212_" class="st45" d="M102.5,68.9L75.7,90c-6,4.7-12.7,8.4-19.8,10.9l-3.4,1.2c-1,0.3-2,0-2.6-0.7
					c-0.6-0.8-0.7-1.9-0.1-2.7l1.8-2.8c4.2-6.6,9.4-12.4,15.5-17.2l26.5-21c3-2.4,10.7-4.6,13.3-1.4
					C109.5,59.5,105.5,66.5,102.5,68.9z"/>
			</g>
			<g id="XMLID_165_">
				<polygon id="XMLID_210_" class="st45" points="50,99.2 38.2,90.9 43.5,86.7 57.2,88.5 57.1,89.7 43.8,87.9 40.2,90.8 50.7,98.2 
									"/>
			</g>
			<g id="XMLID_163_">
				<polygon id="XMLID_164_" class="st45" points="62.7,111 57.4,115.2 52,101.7 53.1,101.3 57.9,113.2 61.5,110.4 62.9,97.1 
					64.1,97.2 				"/>
			</g>
			<polygon id="XMLID_162_" class="st45" points="64.7,89.4 51.1,96 37.9,91 42.7,88.7 			"/>
			<polygon id="XMLID_161_" class="st45" points="61.5,90.8 55.6,100.6 60.5,111.9 62.6,108.5 			"/>
			
				<rect x="54.9" y="100.6" transform="matrix(0.9239 -0.3825 0.3825 0.9239 -36.5542 29.919)" class="st45" width="4.1" height="12.6"/>
			
				<rect x="47.7" y="83.3" transform="matrix(0.1268 -0.9919 0.9919 0.1268 -45.8495 127.0873)" class="st45" width="3.1" height="12.6"/>
			<rect x="46.7" y="88.8" transform="matrix(0.5 -0.866 0.866 0.5 -58.2217 89.29)" class="st45" width="3.1" height="12.6"/>
			
				<rect x="58.6" y="95.9" transform="matrix(0.9978 6.670287e-02 -6.670287e-02 0.9978 6.9551 -3.8177)" class="st45" width="4.1" height="12.6"/>
		</g>
	</g>
	<g>
		<g>
			<g id="XMLID_156_">
				<path id="XMLID_158_" class="st88" d="M49.1,54.1H31.3c-0.6,0-1.1-0.5-1.1-1.1V37.1h19.9V53C50.1,53.6,49.6,54.1,49.1,54.1z"/>
				<g id="XMLID_157_">
					<path class="st88" d="M45.1,29.3c0.1,0.1,0.2,0.2,0.3,0.4c0.2,0,0.4-0.1,0.5-0.1c-1.3-1.8-3.4-2.9-5.7-2.9
						c-3.9,0-7.2,3.2-7.2,7.2v3.1h0.5v-3.1c0-3.7,3-6.7,6.7-6.7C42.1,27.2,43.9,28,45.1,29.3z"/>
				</g>
			</g>
			<g>
				<g>
					<path class="st89" d="M43.4,38.7v8.9c0,2.7-1.5,4.8-3.3,4.8h5.3c1.8,0,3-2.1,3-4.8v-8.9H43.4z"/>
				</g>
			</g>
			<rect x="45.2" y="46.2" class="st89" width="3.2" height="6.3"/>
		</g>
	</g>
	<g>
		<g id="XMLID_153_">
			<path id="XMLID_155_" class="st106" d="M49.6,53.6H31.8c-0.6,0-1.1-0.5-1.1-1.1V36.6h19.9v15.9C50.6,53.1,50.2,53.6,49.6,53.6z"
				/>
			<g id="XMLID_154_">
				<path class="st106" d="M45.6,28.8c0.1,0.1,0.2,0.2,0.3,0.4c0.2,0,0.4-0.1,0.5-0.1c-1.3-1.8-3.4-2.9-5.7-2.9
					c-3.9,0-7.2,3.2-7.2,7.2v3.1H34v-3.1c0-3.7,3-6.7,6.7-6.7C42.6,26.7,44.4,27.5,45.6,28.8z"/>
			</g>
		</g>
		<g>
			<g>
				<path class="st106" d="M43.9,38.3v8.9c0,2.7-1.5,4.8-3.3,4.8h5.3c1.8,0,3-2.1,3-4.8v-8.9H43.9z"/>
			</g>
		</g>
		<rect x="45.7" y="45.7" class="st106" width="3.2" height="6.3"/>
	</g>
	<g>
		<g>
			<path class="st86" d="M42.8,38.2v8.6c0,2.6-1.4,4.7-3,4.7h4.8c1.6,0,2.8-2.1,2.8-4.7v-8.6H42.8z"/>
		</g>
	</g>
	<g>
		<g>
			<g id="XMLID_150_">
				<path id="XMLID_152_" class="st88" d="M48.5,53.3H30.8c-0.6,0-1.1-0.5-1.1-1.1V36.3h19.9v15.9C49.6,52.8,49.1,53.3,48.5,53.3z"
					/>
				<g id="XMLID_151_">
					<path class="st88" d="M44.6,28.5c0.1,0.1,0.2,0.2,0.3,0.4c0.2,0,0.4-0.1,0.5-0.1c-1.3-1.8-3.4-2.9-5.7-2.9
						c-3.9,0-7.2,3.2-7.2,7.2v3.1H33V33c0-3.7,3-6.7,6.7-6.7C41.6,26.4,43.3,27.2,44.6,28.5z"/>
				</g>
			</g>
			<g>
				<g>
					<path class="st89" d="M42.9,37.9v8.9c0,2.7-1.5,4.8-3.3,4.8h5.3c1.8,0,3-2.1,3-4.8v-8.9H42.9z"/>
				</g>
			</g>
			<rect x="44.7" y="45.4" class="st89" width="3.2" height="6.3"/>
		</g>
	</g>
</g>
<g id="Capa_3">
</g>
</svg>
