<?xml version="1.0" encoding="utf-8"?>
<!-- Generator: Adobe Illustrator 23.0.6, SVG Export Plug-In . SVG Version: 6.00 Build 0)  -->
<svg version="1.1" xmlns="http://www.w3.org/2000/svg" xmlns:xlink="http://www.w3.org/1999/xlink" x="0px" y="0px"
	 viewBox="0 0 140 140" style="enable-background:new 0 0 140 140;" xml:space="preserve">
<style type="text/css">
	.st0{fill:#BE6D20;}
	.st1{fill:#BB513B;}
	.st2{fill:#7F3318;}
	.st3{fill:#C41A3B;}
	.st4{fill:#871A4F;}
	.st5{fill:#623284;}
	.st6{fill:#292C51;}
	.st7{fill:#4D5CA3;}
	.st8{fill:#5C95C9;}
	.st9{fill:#005460;}
	.st10{fill:#3BA08D;}
	.st11{fill:#74AC40;}
	.st12{fill:#497A3C;}
	.st13{fill:#B7CA47;}
	.st14{fill:#939054;}
	.st15{fill:#FFFFFF;stroke:#9EC37D;stroke-width:4.3502;stroke-miterlimit:10;}
	.st16{fill:#DCDCDC;}
	.st17{fill:#497B3C;stroke:#497B3C;stroke-width:0.522;stroke-miterlimit:10;}
	.st18{fill:#DB9825;}
	.st19{fill:#CA4D26;}
	.st20{fill:#6E4953;}
	.st21{fill:#4F3541;}
	.st22{fill:#932E1E;stroke:#932E1E;stroke-width:4.7249;stroke-miterlimit:10;}
	.st23{fill:#FFFFFF;}
	.st24{fill:#4A1917;}
	.st25{fill:#F9F9F9;}
	.st26{fill:#BA7B6A;}
	.st27{fill:none;stroke:#371C16;stroke-width:2.6204;stroke-linecap:round;stroke-linejoin:round;stroke-miterlimit:10;}
	.st28{fill:#FFFFFF;stroke:#FFFFFF;stroke-width:0.1754;stroke-miterlimit:10;}
	.st29{fill:#561827;}
	.st30{fill:#B48995;}
	.st31{fill:#30151C;}
	.st32{fill:#7B5568;}
	.st33{fill:none;stroke:#24121B;stroke-width:3.8462;stroke-linecap:round;stroke-linejoin:round;stroke-miterlimit:10;}
	.st34{fill:none;stroke:#F9F9F9;stroke-width:3.4966;stroke-linecap:round;stroke-linejoin:round;stroke-miterlimit:10;}
	.st35{fill:#24121B;stroke:#24121B;stroke-width:0.3497;stroke-miterlimit:10;}
	.st36{fill:none;stroke:#24121B;stroke-width:2.6224;stroke-linecap:round;stroke-linejoin:round;stroke-miterlimit:10;}
	.st37{fill:#FFFFFF;stroke:url(#);stroke-width:0.1743;stroke-miterlimit:10;}
	.st38{fill:#1B2A37;}
	.st39{fill:#85C1D2;}
	.st40{fill:none;stroke:#1C3236;stroke-width:2.9702;stroke-linecap:round;stroke-linejoin:round;stroke-miterlimit:10;}
	.st41{fill:#72B4E6;}
	.st42{fill:#1C3236;}
	.st43{fill:#B1CDEE;}
	.st44{fill:#C3DFE7;}
	.st45{fill:#2E4D44;}
	.st46{fill:#DEC34A;}
	.st47{fill:#6E5A21;}
	.st48{fill:#4C3E1D;}
	.st49{fill:none;stroke:#FFFFFF;stroke-width:2.8139;stroke-miterlimit:10;}
	.st50{fill:#FFFFFF;stroke:#FFFFFF;stroke-width:2.8139;stroke-miterlimit:10;}
	.st51{fill:#E4B3CB;}
	.st52{fill:#8E1135;}
	.st53{fill:#372C71;stroke:#372C71;stroke-width:0.175;stroke-miterlimit:10;}
	.st54{fill:#2E151D;}
	.st55{fill:#CB4A7C;}
	.st56{fill:#371529;}
	.st57{fill:#E2ADCC;}
	.st58{fill:#611740;}
	.st59{fill:none;stroke:#FFFFFF;stroke-width:3.4966;stroke-miterlimit:10;}
	.st60{fill:#FFFFFF;stroke:#FFFFFF;stroke-width:3.4966;stroke-miterlimit:10;}
	.st61{fill:#6B267F;}
	.st62{fill:#BFC5C5;}
	.st63{fill:#713787;}
	.st64{fill:#331E40;}
	.st65{fill:#545F2C;}
	.st66{fill:#212E20;}
	.st67{fill:#9FAD35;}
	.st68{fill:#D3DC7E;}
	.st69{fill:#3E3D21;}
	.st70{fill:#281C3B;}
	.st71{fill:#AA98C6;}
	.st72{fill:#FFFFFF;stroke:#292D50;stroke-width:4.3695;stroke-miterlimit:10;}
	.st73{fill:#FFFFFF;stroke:#2A4125;stroke-width:4.3017;stroke-miterlimit:10;}
	.st74{fill:#2A4027;stroke:#2A4027;stroke-width:0.5162;stroke-miterlimit:10;}
	.st75{fill:#FFFFFF;stroke:#4E5DA3;stroke-width:4.382;stroke-miterlimit:10;}
	.st76{fill:none;stroke:#1C3236;stroke-width:2.9682;stroke-linecap:round;stroke-linejoin:round;stroke-miterlimit:10;}
	.st77{fill:#FFFFFF;stroke:#DC9927;stroke-width:2.409;stroke-miterlimit:10;}
	.st78{fill:#A36F24;}
	.st79{fill:#EDC7A4;stroke:#EDC7A4;stroke-width:2.2749;stroke-miterlimit:10;}
	.st80{fill:#932E1E;stroke:#932E1E;stroke-width:2.0999;stroke-miterlimit:10;}
	.st81{fill:#932E1E;stroke:#932E1E;stroke-width:2.2749;stroke-miterlimit:10;}
	.st82{fill:#DC9359;stroke:#DC9359;stroke-width:2.2749;stroke-miterlimit:10;}
	.st83{fill:#A37025;stroke:#A37025;stroke-width:2.2369;stroke-miterlimit:10;}
	.st84{fill:#DC9359;stroke:#DC9359;stroke-width:2.2369;stroke-miterlimit:10;}
	.st85{fill:#FFFFFF;stroke:#FFFFFF;stroke-width:2.2369;stroke-miterlimit:10;}
	.st86{fill:#456131;}
	.st87{fill:none;stroke:#1C3236;stroke-width:2.9311;stroke-linecap:round;stroke-linejoin:round;stroke-miterlimit:10;}
	.st88{fill:#FFFFFF;stroke:#FFFFFF;stroke-width:3.2693;stroke-miterlimit:10;}
	.st89{fill:#878888;}
	.st90{fill:none;stroke:#30151C;stroke-width:4.6663;stroke-miterlimit:10;}
	.st91{fill:none;stroke:#331E40;stroke-width:4.84;stroke-miterlimit:10;}
	.st92{fill:#FFFFFF;stroke:#FFFFFF;stroke-width:3.2843;stroke-miterlimit:10;}
	.st93{fill:none;stroke:#331E40;stroke-width:5.197;stroke-miterlimit:10;}
	.st94{fill:#FFFFFF;stroke:#FFFFFF;stroke-width:3.2914;stroke-miterlimit:10;}
	.st95{fill:none;stroke:#1E333F;stroke-width:5.2381;stroke-miterlimit:10;}
	.st96{fill:#FFFFFF;stroke:#FFFFFF;stroke-width:3.3174;stroke-miterlimit:10;}
	.st97{fill:#FFFFFF;stroke:#FFFFFF;stroke-width:3.2837;stroke-miterlimit:10;}
	.st98{fill:#5C7487;}
	.st99{fill:none;stroke:#24121B;stroke-width:3.7855;stroke-linecap:round;stroke-linejoin:round;stroke-miterlimit:10;}
	.st100{fill:none;stroke:#24121B;stroke-width:2.581;stroke-linecap:round;stroke-linejoin:round;stroke-miterlimit:10;}
	.st101{fill:#24121B;stroke:#24121B;stroke-width:0.3441;stroke-miterlimit:10;}
	.st102{fill:none;stroke:#F9F9F9;stroke-width:3.4414;stroke-linecap:round;stroke-linejoin:round;stroke-miterlimit:10;}
	.st103{fill:none;stroke:#30151C;stroke-width:4.6459;stroke-miterlimit:10;}
	.st104{fill:none;stroke:#1E333F;stroke-width:5.1724;stroke-miterlimit:10;}
	.st105{fill:#FFFFFF;stroke:#FFFFFF;stroke-width:3.2759;stroke-miterlimit:10;}
	.st106{fill:none;stroke:#1E333F;stroke-width:5.1621;stroke-miterlimit:10;}
	.st107{fill:none;stroke:#30151C;stroke-width:4.6905;stroke-miterlimit:10;}
	.st108{fill:#FFFFFF;stroke:#FFFFFF;stroke-width:3.3007;stroke-miterlimit:10;}
</style>
<g id="Capa_1">
	<rect x="0" y="0.1" class="st19" width="139.8" height="139.8"/>
</g>
<g id="Capa_2">
	<g>
		<g>
			<path class="st22" d="M45.3,84.2c-8.7,4.3-19.3,0.6-23.6-8.1c-4.3-8.7-0.6-19.2,8.1-23.5c6.8-3.3,14.9-1.9,20.2,3.4l61.6-30.3
				c2.8-1.4,6.2-0.2,7.6,2.6c1.4,2.9,0.3,6.2-2.5,7.6l-1.8,0.9l3,6.1c1.2,2.5,0.2,5.4-2.3,6.6c-2.5,1.2-5.4,0.2-6.6-2.3l-3-6.1
				l-3.3,1.6l3,6.1c1.2,2.5,0.2,5.4-2.3,6.6c-2.5,1.2-5.4,0.2-6.6-2.3l-3-6.1L55,66.2c0.4,3.4-0.1,6.8-1.7,10
				C51.6,79.7,48.8,82.4,45.3,84.2z"/>
		</g>
	</g>
	<g>
		<g>
			<path class="st79" d="M45.2,81.2c-8.7,4.3-19.3,0.6-23.6-8.1c-4.3-8.7-0.6-19.2,8.1-23.5c6.8-3.3,14.9-1.9,20.2,3.4l61.6-30.3
				c2.8-1.4,6.2-0.2,7.6,2.6c1.4,2.9,0.3,6.2-2.5,7.6l-1.8,0.9l3,6.1c1.2,2.5,0.2,5.4-2.3,6.6c-2.5,1.2-5.4,0.2-6.6-2.3l-3-6.1
				l-3.3,1.6l3,6.1c1.2,2.5,0.2,5.4-2.3,6.6c-2.5,1.2-5.4,0.2-6.6-2.3l-3-6.1l-38.6,19c0.4,3.4-0.1,6.8-1.7,10
				C51.6,76.7,48.8,79.5,45.2,81.2z"/>
		</g>
	</g>
	<ellipse transform="matrix(0.7071 -0.7071 0.7071 0.7071 -36.2765 46.1537)" class="st80" cx="37.6" cy="66.9" rx="9.2" ry="9.2"/>
	<path class="st81" d="M30.8,119.4h-9.6c-0.3,0-0.6-0.3-0.6-0.6V98.6c0-0.3,0.3-0.6,0.6-0.6h9.6c0.3,0,0.6,0.3,0.6,0.6v20.2
		C31.4,119.1,31.1,119.4,30.8,119.4z"/>
	<path class="st81" d="M48.3,119.4h-9.6c-0.3,0-0.6-0.3-0.6-0.6V98.6c0-0.3,0.3-0.6,0.6-0.6h9.6c0.3,0,0.6,0.3,0.6,0.6v20.2
		C48.9,119.1,48.6,119.4,48.3,119.4z"/>
	<path class="st81" d="M65.6,119.5H56c-0.3,0-0.6-0.3-0.6-0.6V98.7c0-0.3,0.3-0.6,0.6-0.6h9.6c0.3,0,0.6,0.3,0.6,0.6v20.2
		C66.2,119.3,65.9,119.5,65.6,119.5z"/>
	<path class="st82" d="M83.1,119.5h-9.6c-0.3,0-0.6-0.3-0.6-0.6V98.7c0-0.3,0.3-0.6,0.6-0.6h9.6c0.3,0,0.6,0.3,0.6,0.6v20.2
		C83.7,119.3,83.4,119.5,83.1,119.5z"/>
	<path class="st81" d="M83.2,119.5h-9.6c-0.3,0-0.6-0.3-0.6-0.6V98.7c0-0.3,0.3-0.6,0.6-0.6h9.6c0.3,0,0.6,0.3,0.6,0.6v20.2
		C83.8,119.2,83.5,119.5,83.2,119.5z"/>
	<path class="st81" d="M100.7,119.5h-9.6c-0.3,0-0.6-0.3-0.6-0.6V98.7c0-0.3,0.3-0.6,0.6-0.6h9.6c0.3,0,0.6,0.3,0.6,0.6v20.2
		C101.3,119.2,101,119.5,100.7,119.5z"/>
	<path class="st81" d="M118,119.6h-9.6c-0.3,0-0.6-0.3-0.6-0.6V98.8c0-0.3,0.3-0.6,0.6-0.6h9.6c0.3,0,0.6,0.3,0.6,0.6V119
		C118.6,119.3,118.3,119.6,118,119.6z"/>
	<path class="st79" d="M28,119.4h-7c-0.2,0-0.4-0.2-0.4-0.4V98.4c0-0.2,0.2-0.4,0.4-0.4h7c0.2,0,0.4,0.2,0.4,0.4V119
		C28.4,119.2,28.2,119.4,28,119.4z"/>
	<ellipse transform="matrix(0.7071 -0.7071 0.7071 0.7071 -35.1475 45.6861)" class="st19" cx="37.6" cy="65.3" rx="9.2" ry="9.2"/>
	<path class="st79" d="M45.5,119.5h-7c-0.2,0-0.4-0.2-0.4-0.4V98.6c0-0.2,0.2-0.4,0.4-0.4l7,0c0.2,0,0.4,0.2,0.4,0.4v20.5
		C45.9,119.3,45.7,119.5,45.5,119.5z"/>
	<path class="st79" d="M62.8,119.5h-7c-0.2,0-0.4-0.2-0.4-0.4V98.6c0-0.2,0.2-0.4,0.4-0.4h7c0.2,0,0.4,0.2,0.4,0.4v20.5
		C63.2,119.3,63,119.5,62.8,119.5z"/>
	<path class="st79" d="M80.6,119.6h-7c-0.2,0-0.4-0.2-0.4-0.4V98.6c0-0.2,0.2-0.4,0.4-0.4h7c0.2,0,0.4,0.2,0.4,0.4v20.5
		C81,119.4,80.8,119.6,80.6,119.6z"/>
	<path class="st79" d="M98,119.6h-7c-0.2,0-0.4-0.2-0.4-0.4V98.7c0-0.2,0.2-0.4,0.4-0.4h7c0.2,0,0.4,0.2,0.4,0.4v20.5
		C98.4,119.5,98.2,119.6,98,119.6z"/>
	<path class="st79" d="M115.2,119.8h-7c-0.2,0-0.4-0.2-0.4-0.4V98.8c0-0.2,0.2-0.4,0.4-0.4h7c0.2,0,0.4,0.2,0.4,0.4v20.5
		C115.6,119.6,115.4,119.8,115.2,119.8z"/>
</g>
<g id="Capa_3">
</g>
</svg>
