<?xml version="1.0" encoding="utf-8"?>
<!-- Generator: Adobe Illustrator 23.0.6, SVG Export Plug-In . SVG Version: 6.00 Build 0)  -->
<svg version="1.1" xmlns="http://www.w3.org/2000/svg" xmlns:xlink="http://www.w3.org/1999/xlink" x="0px" y="0px"
	 viewBox="0 0 140 140" style="enable-background:new 0 0 140 140;" xml:space="preserve">
<style type="text/css">
	.st0{fill:#BE6D20;}
	.st1{fill:#BB513B;}
	.st2{fill:#7F3318;}
	.st3{fill:#C41A3B;}
	.st4{fill:#871A4F;}
	.st5{fill:#623284;}
	.st6{fill:#292C51;}
	.st7{fill:#4D5CA3;}
	.st8{fill:#5C95C9;}
	.st9{fill:#005460;}
	.st10{fill:#3BA08D;}
	.st11{fill:#74AC40;}
	.st12{fill:#497A3C;}
	.st13{fill:#B7CA47;}
	.st14{fill:#939054;}
	.st15{fill:#FFFFFF;stroke:#9EC37D;stroke-width:4.3502;stroke-miterlimit:10;}
	.st16{fill:#DCDCDC;}
	.st17{fill:#497B3C;stroke:#497B3C;stroke-width:0.522;stroke-miterlimit:10;}
	.st18{fill:#DB9825;}
	.st19{fill:#CA4D26;}
	.st20{fill:#6E4953;}
	.st21{fill:#4F3541;}
	.st22{fill:#932E1E;stroke:#932E1E;stroke-width:4.7249;stroke-miterlimit:10;}
	.st23{fill:#FFFFFF;}
	.st24{fill:#4A1917;}
	.st25{fill:#F9F9F9;}
	.st26{fill:#BA7B6A;}
	.st27{fill:none;stroke:#371C16;stroke-width:2.6204;stroke-linecap:round;stroke-linejoin:round;stroke-miterlimit:10;}
	.st28{fill:#FFFFFF;stroke:#FFFFFF;stroke-width:0.1754;stroke-miterlimit:10;}
	.st29{fill:#561827;}
	.st30{fill:#B48995;}
	.st31{fill:#30151C;}
	.st32{fill:#7B5568;}
	.st33{fill:none;stroke:#24121B;stroke-width:3.8462;stroke-linecap:round;stroke-linejoin:round;stroke-miterlimit:10;}
	.st34{fill:none;stroke:#F9F9F9;stroke-width:3.4966;stroke-linecap:round;stroke-linejoin:round;stroke-miterlimit:10;}
	.st35{fill:#24121B;stroke:#24121B;stroke-width:0.3497;stroke-miterlimit:10;}
	.st36{fill:none;stroke:#24121B;stroke-width:2.6224;stroke-linecap:round;stroke-linejoin:round;stroke-miterlimit:10;}
	.st37{fill:#FFFFFF;stroke:url(#);stroke-width:0.1743;stroke-miterlimit:10;}
	.st38{fill:#1B2A37;}
	.st39{fill:#85C1D2;}
	.st40{fill:none;stroke:#1C3236;stroke-width:2.9702;stroke-linecap:round;stroke-linejoin:round;stroke-miterlimit:10;}
	.st41{fill:#72B4E6;}
	.st42{fill:#1C3236;}
	.st43{fill:#B1CDEE;}
	.st44{fill:#C3DFE7;}
	.st45{fill:#2E4D44;}
	.st46{fill:#DEC34A;}
	.st47{fill:#6E5A21;}
	.st48{fill:#4C3E1D;}
	.st49{fill:none;stroke:#FFFFFF;stroke-width:2.8139;stroke-miterlimit:10;}
	.st50{fill:#FFFFFF;stroke:#FFFFFF;stroke-width:2.8139;stroke-miterlimit:10;}
	.st51{fill:#E4B3CB;}
	.st52{fill:#8E1135;}
	.st53{fill:#372C71;stroke:#372C71;stroke-width:0.175;stroke-miterlimit:10;}
	.st54{fill:#2E151D;}
	.st55{fill:#CB4A7C;}
	.st56{fill:#371529;}
	.st57{fill:#E2ADCC;}
	.st58{fill:#611740;}
	.st59{fill:none;stroke:#FFFFFF;stroke-width:3.4966;stroke-miterlimit:10;}
	.st60{fill:#FFFFFF;stroke:#FFFFFF;stroke-width:3.4966;stroke-miterlimit:10;}
	.st61{fill:#6B267F;}
	.st62{fill:#BFC5C5;}
	.st63{fill:#713787;}
	.st64{fill:#331E40;}
	.st65{fill:#545F2C;}
	.st66{fill:#212E20;}
	.st67{fill:#9FAD35;}
	.st68{fill:#D3DC7E;}
	.st69{fill:#3E3D21;}
	.st70{fill:#281C3B;}
	.st71{fill:#AA98C6;}
	.st72{fill:#FFFFFF;stroke:#292D50;stroke-width:4.3695;stroke-miterlimit:10;}
	.st73{fill:#FFFFFF;stroke:#2A4125;stroke-width:4.3017;stroke-miterlimit:10;}
	.st74{fill:#2A4027;stroke:#2A4027;stroke-width:0.5162;stroke-miterlimit:10;}
	.st75{fill:#FFFFFF;stroke:#4E5DA3;stroke-width:4.382;stroke-miterlimit:10;}
	.st76{fill:none;stroke:#1C3236;stroke-width:2.9682;stroke-linecap:round;stroke-linejoin:round;stroke-miterlimit:10;}
	.st77{fill:#FFFFFF;stroke:#DC9927;stroke-width:2.409;stroke-miterlimit:10;}
	.st78{fill:#A36F24;}
	.st79{fill:#EDC7A4;stroke:#EDC7A4;stroke-width:2.2749;stroke-miterlimit:10;}
	.st80{fill:#932E1E;stroke:#932E1E;stroke-width:2.0999;stroke-miterlimit:10;}
	.st81{fill:#932E1E;stroke:#932E1E;stroke-width:2.2749;stroke-miterlimit:10;}
	.st82{fill:#DC9359;stroke:#DC9359;stroke-width:2.2749;stroke-miterlimit:10;}
	.st83{fill:#A37025;stroke:#A37025;stroke-width:2.2369;stroke-miterlimit:10;}
	.st84{fill:#DC9359;stroke:#DC9359;stroke-width:2.2369;stroke-miterlimit:10;}
	.st85{fill:#FFFFFF;stroke:#FFFFFF;stroke-width:2.2369;stroke-miterlimit:10;}
	.st86{fill:#456131;}
	.st87{fill:none;stroke:#1C3236;stroke-width:2.9311;stroke-linecap:round;stroke-linejoin:round;stroke-miterlimit:10;}
	.st88{fill:#FFFFFF;stroke:#FFFFFF;stroke-width:3.2693;stroke-miterlimit:10;}
	.st89{fill:#878888;}
	.st90{fill:none;stroke:#30151C;stroke-width:4.6663;stroke-miterlimit:10;}
	.st91{fill:none;stroke:#331E40;stroke-width:4.84;stroke-miterlimit:10;}
	.st92{fill:#FFFFFF;stroke:#FFFFFF;stroke-width:3.2843;stroke-miterlimit:10;}
	.st93{fill:none;stroke:#331E40;stroke-width:5.197;stroke-miterlimit:10;}
	.st94{fill:#FFFFFF;stroke:#FFFFFF;stroke-width:3.2914;stroke-miterlimit:10;}
	.st95{fill:none;stroke:#1E333F;stroke-width:5.2381;stroke-miterlimit:10;}
	.st96{fill:#FFFFFF;stroke:#FFFFFF;stroke-width:3.3174;stroke-miterlimit:10;}
	.st97{fill:#FFFFFF;stroke:#FFFFFF;stroke-width:3.2837;stroke-miterlimit:10;}
	.st98{fill:#5C7487;}
	.st99{fill:none;stroke:#24121B;stroke-width:3.7855;stroke-linecap:round;stroke-linejoin:round;stroke-miterlimit:10;}
	.st100{fill:none;stroke:#24121B;stroke-width:2.581;stroke-linecap:round;stroke-linejoin:round;stroke-miterlimit:10;}
	.st101{fill:#24121B;stroke:#24121B;stroke-width:0.3441;stroke-miterlimit:10;}
	.st102{fill:none;stroke:#F9F9F9;stroke-width:3.4414;stroke-linecap:round;stroke-linejoin:round;stroke-miterlimit:10;}
	.st103{fill:none;stroke:#30151C;stroke-width:4.6459;stroke-miterlimit:10;}
	.st104{fill:none;stroke:#1E333F;stroke-width:5.1724;stroke-miterlimit:10;}
	.st105{fill:#FFFFFF;stroke:#FFFFFF;stroke-width:3.2759;stroke-miterlimit:10;}
	.st106{fill:none;stroke:#1E333F;stroke-width:5.1621;stroke-miterlimit:10;}
	.st107{fill:none;stroke:#30151C;stroke-width:4.6905;stroke-miterlimit:10;}
	.st108{fill:#FFFFFF;stroke:#FFFFFF;stroke-width:3.3007;stroke-miterlimit:10;}
</style>
<g id="Capa_1">
	<rect x="-0.2" y="-0.2" class="st9" width="140.5" height="140.5"/>
</g>
<g id="Capa_2">
	<g>
		<path class="st23" d="M116.6,104H38.2c-3.6,0-6.5-2.9-6.5-6.5V43.8h84.9V104z"/>
		<path class="st39" d="M58.7,42.3h-27v-5.8c0-3.2,2.6-5.8,5.8-5.8h16c1.9,0,3.5,1.4,3.8,3.2L58.7,42.3z"/>
		<path class="st39" d="M85.7,42.3h-27L57.3,34c-0.3-1.9-1.9-3.2-3.8-3.2h27c1.9,0,3.5,1.4,3.8,3.2L85.7,42.3z"/>
		<path class="st25" d="M116.6,36.5v5.8H85.7L84.3,34c-0.3-1.9-1.9-3.2-3.8-3.2h30.3C114,30.7,116.6,33.3,116.6,36.5z"/>
		<path class="st87" d="M112.6,104h-77c-2.2,0-3.9-1.8-3.9-3.9V34.7c0-2.2,1.8-3.9,3.9-3.9h77c2.2,0,3.9,1.8,3.9,3.9v65.4
			C116.6,102.3,114.8,104,112.6,104z"/>
		<line class="st87" x1="31.4" y1="42.3" x2="116.2" y2="42.3"/>
		<path class="st87" d="M49.1,30.7h4.4c1.9,0,3.5,1.4,3.8,3.2l1.4,8.3H51"/>
		<path class="st87" d="M76.1,30.7h4.4c1.9,0,3.5,1.4,3.8,3.2l1.4,8.3H78"/>
		<path class="st39" d="M51.8,55.8H37.2c-0.2,0-0.4-0.2-0.4-0.4v-6.9c0-0.2,0.2-0.4,0.4-0.4h14.6c0.2,0,0.4,0.2,0.4,0.4v6.9
			C52.2,55.6,52,55.8,51.8,55.8z"/>
		<path class="st39" d="M71.8,55.8H57.2c-0.2,0-0.4-0.2-0.4-0.4v-6.9c0-0.2,0.2-0.4,0.4-0.4h14.6c0.2,0,0.4,0.2,0.4,0.4v6.9
			C72.2,55.6,72,55.8,71.8,55.8z"/>
		<path class="st39" d="M91.1,55.8H76.5c-0.2,0-0.4-0.2-0.4-0.4v-6.9c0-0.2,0.2-0.4,0.4-0.4h14.6c0.2,0,0.4,0.2,0.4,0.4v6.9
			C91.5,55.6,91.3,55.8,91.1,55.8z"/>
		<path class="st39" d="M110.4,55.8H95.8c-0.2,0-0.4-0.2-0.4-0.4v-6.9c0-0.2,0.2-0.4,0.4-0.4h14.6c0.2,0,0.4,0.2,0.4,0.4v6.9
			C110.8,55.6,110.6,55.8,110.4,55.8z"/>
		<g>
			<g>
				<g>
					<circle class="st41" cx="101" cy="88.1" r="22.5"/>
				</g>
			</g>
			<g>
				<g>
					<circle class="st23" cx="101" cy="88.1" r="18.8"/>
				</g>
			</g>
			<g>
				<g>
					<path class="st42" d="M101,107.7c-10.8,0-19.6-8.8-19.6-19.6s8.8-19.6,19.6-19.6c10.8,0,19.6,8.8,19.6,19.6
						S111.8,107.7,101,107.7z M101,70.1c-9.9,0-18,8.1-18,18s8.1,18,18,18c9.9,0,18-8.1,18-18S110.9,70.1,101,70.1z"/>
				</g>
			</g>
			<g>
				<g>
					<path class="st42" d="M101,111.4c-12.8,0-23.3-10.4-23.3-23.3S88.1,64.8,101,64.8c12.8,0,23.3,10.4,23.3,23.3
						S113.8,111.4,101,111.4z M101,66.4c-11.9,0-21.7,9.7-21.7,21.7s9.7,21.7,21.7,21.7c11.9,0,21.7-9.7,21.7-21.7
						S112.9,66.4,101,66.4z"/>
				</g>
			</g>
			<g>
				<g>
					<path class="st42" d="M107.5,88.8H101c-0.4,0-0.8-0.3-0.8-0.8V74.7c0-0.4,0.4-0.8,0.8-0.8c0.4,0,0.8,0.4,0.8,0.8v12.5h5.6
						c0.4,0,0.8,0.4,0.8,0.8C108.3,88.5,107.9,88.8,107.5,88.8z"/>
				</g>
			</g>
			<g>
				<g>
					<path class="st43" d="M103.2,88.1c0,1.2-1,2.2-2.2,2.2c-1.2,0-2.2-1-2.2-2.2s1-2.2,2.2-2.2C102.2,85.8,103.2,86.8,103.2,88.1z"
						/>
				</g>
			</g>
			<g>
				<g>
					<path class="st42" d="M101,91.1c-1.7,0-3-1.4-3-3c0-1.7,1.4-3,3-3c1.7,0,3,1.4,3,3C104,89.8,102.7,91.1,101,91.1z M101,86.6
						c-0.8,0-1.4,0.6-1.4,1.4c0,0.8,0.6,1.4,1.4,1.4c0.8,0,1.4-0.6,1.4-1.4C102.4,87.3,101.8,86.6,101,86.6z"/>
				</g>
			</g>
		</g>
	</g>
	<g>
		<g id="XMLID_54_">
			<path id="XMLID_56_" class="st104" d="M42.8,47.9H25.6c-0.6,0-1-0.5-1-1V31.4h19.3v15.5C43.9,47.4,43.4,47.9,42.8,47.9z"/>
			<g id="XMLID_55_">
				<path class="st104" d="M39,23.8c0.1,0.1,0.2,0.2,0.3,0.4c0.2,0,0.4-0.1,0.5-0.1c-1.3-1.7-3.3-2.8-5.6-2.8c-3.8,0-7,3.1-7,7v3
					h0.5v-3c0-3.6,2.9-6.5,6.5-6.5C36.1,21.7,37.8,22.5,39,23.8z"/>
			</g>
		</g>
		<g>
			<g>
				<path class="st104" d="M37.4,32.9v8.7c0,2.6-1.5,4.7-3.2,4.7h5.2c1.7,0,2.9-2.1,2.9-4.7v-8.7H37.4z"/>
			</g>
		</g>
		<rect x="39.1" y="40.2" class="st104" width="3.1" height="6.1"/>
	</g>
	<g>
		<g>
			<path class="st86" d="M36.4,32.9v8.4c0,2.5-1.3,4.6-2.9,4.6h4.7c1.6,0,2.7-2,2.7-4.6v-8.4H36.4z"/>
		</g>
	</g>
	<g>
		<g>
			<g id="XMLID_51_">
				<path id="XMLID_53_" class="st105" d="M41.8,47.6H24.6c-0.6,0-1-0.5-1-1V31h19.3v15.5C42.9,47.1,42.4,47.6,41.8,47.6z"/>
				<g id="XMLID_52_">
					<path class="st105" d="M38,23.4c0.1,0.1,0.2,0.2,0.3,0.4c0.2,0,0.4-0.1,0.5-0.1c-1.3-1.7-3.3-2.8-5.6-2.8c-3.8,0-7,3.1-7,7v3
						h0.5v-3c0-3.6,2.9-6.5,6.5-6.5C35.1,21.3,36.8,22.1,38,23.4z"/>
				</g>
			</g>
			<g>
				<g>
					<path class="st89" d="M36.4,32.6v8.7c0,2.6-1.5,4.7-3.2,4.7h5.2c1.7,0,2.9-2.1,2.9-4.7v-8.7H36.4z"/>
				</g>
			</g>
			<rect x="38.1" y="39.9" class="st89" width="3.1" height="6.1"/>
		</g>
	</g>
</g>
<g id="Capa_3">
</g>
</svg>
