<?xml version="1.0" encoding="utf-8"?>
<!-- Generator: Adobe Illustrator 23.0.6, SVG Export Plug-In . SVG Version: 6.00 Build 0)  -->
<svg version="1.1" xmlns="http://www.w3.org/2000/svg" xmlns:xlink="http://www.w3.org/1999/xlink" x="0px" y="0px"
	 viewBox="0 0 140 140" style="enable-background:new 0 0 140 140;" xml:space="preserve">
<style type="text/css">
	.st0{fill:#BE6D20;}
	.st1{fill:#BB513B;}
	.st2{fill:#7F3318;}
	.st3{fill:#C41A3B;}
	.st4{fill:#871A4F;}
	.st5{fill:#623284;}
	.st6{fill:#292C51;}
	.st7{fill:#4D5CA3;}
	.st8{fill:#5C95C9;}
	.st9{fill:#005460;}
	.st10{fill:#3BA08D;}
	.st11{fill:#74AC40;}
	.st12{fill:#497A3C;}
	.st13{fill:#B7CA47;}
	.st14{fill:#939054;}
	.st15{fill:#FFFFFF;stroke:#9EC37D;stroke-width:4.3502;stroke-miterlimit:10;}
	.st16{fill:#DCDCDC;}
	.st17{fill:#497B3C;stroke:#497B3C;stroke-width:0.522;stroke-miterlimit:10;}
	.st18{fill:#DB9825;}
	.st19{fill:#CA4D26;}
	.st20{fill:#6E4953;}
	.st21{fill:#4F3541;}
	.st22{fill:#932E1E;stroke:#932E1E;stroke-width:4.7249;stroke-miterlimit:10;}
	.st23{fill:#FFFFFF;}
	.st24{fill:#4A1917;}
	.st25{fill:#F9F9F9;}
	.st26{fill:#BA7B6A;}
	.st27{fill:none;stroke:#371C16;stroke-width:2.6204;stroke-linecap:round;stroke-linejoin:round;stroke-miterlimit:10;}
	.st28{fill:#FFFFFF;stroke:#FFFFFF;stroke-width:0.1754;stroke-miterlimit:10;}
	.st29{fill:#561827;}
	.st30{fill:#B48995;}
	.st31{fill:#30151C;}
	.st32{fill:#7B5568;}
	.st33{fill:none;stroke:#24121B;stroke-width:3.8462;stroke-linecap:round;stroke-linejoin:round;stroke-miterlimit:10;}
	.st34{fill:none;stroke:#F9F9F9;stroke-width:3.4966;stroke-linecap:round;stroke-linejoin:round;stroke-miterlimit:10;}
	.st35{fill:#24121B;stroke:#24121B;stroke-width:0.3497;stroke-miterlimit:10;}
	.st36{fill:none;stroke:#24121B;stroke-width:2.6224;stroke-linecap:round;stroke-linejoin:round;stroke-miterlimit:10;}
	.st37{fill:#FFFFFF;stroke:url(#);stroke-width:0.1743;stroke-miterlimit:10;}
	.st38{fill:#1B2A37;}
	.st39{fill:#85C1D2;}
	.st40{fill:none;stroke:#1C3236;stroke-width:2.9702;stroke-linecap:round;stroke-linejoin:round;stroke-miterlimit:10;}
	.st41{fill:#72B4E6;}
	.st42{fill:#1C3236;}
	.st43{fill:#B1CDEE;}
	.st44{fill:#C3DFE7;}
	.st45{fill:#2E4D44;}
	.st46{fill:#DEC34A;}
	.st47{fill:#6E5A21;}
	.st48{fill:#4C3E1D;}
	.st49{fill:none;stroke:#FFFFFF;stroke-width:2.8139;stroke-miterlimit:10;}
	.st50{fill:#FFFFFF;stroke:#FFFFFF;stroke-width:2.8139;stroke-miterlimit:10;}
	.st51{fill:#E4B3CB;}
	.st52{fill:#8E1135;}
	.st53{fill:#372C71;stroke:#372C71;stroke-width:0.175;stroke-miterlimit:10;}
	.st54{fill:#2E151D;}
	.st55{fill:#CB4A7C;}
	.st56{fill:#371529;}
	.st57{fill:#E2ADCC;}
	.st58{fill:#611740;}
	.st59{fill:none;stroke:#FFFFFF;stroke-width:3.4966;stroke-miterlimit:10;}
	.st60{fill:#FFFFFF;stroke:#FFFFFF;stroke-width:3.4966;stroke-miterlimit:10;}
	.st61{fill:#6B267F;}
	.st62{fill:#BFC5C5;}
	.st63{fill:#713787;}
	.st64{fill:#331E40;}
	.st65{fill:#545F2C;}
	.st66{fill:#212E20;}
	.st67{fill:#9FAD35;}
	.st68{fill:#D3DC7E;}
	.st69{fill:#3E3D21;}
	.st70{fill:#281C3B;}
	.st71{fill:#AA98C6;}
	.st72{fill:#FFFFFF;stroke:#292D50;stroke-width:4.3695;stroke-miterlimit:10;}
	.st73{fill:#FFFFFF;stroke:#2A4125;stroke-width:4.3017;stroke-miterlimit:10;}
	.st74{fill:#2A4027;stroke:#2A4027;stroke-width:0.5162;stroke-miterlimit:10;}
	.st75{fill:#FFFFFF;stroke:#4E5DA3;stroke-width:4.382;stroke-miterlimit:10;}
	.st76{fill:none;stroke:#1C3236;stroke-width:2.9682;stroke-linecap:round;stroke-linejoin:round;stroke-miterlimit:10;}
	.st77{fill:#FFFFFF;stroke:#DC9927;stroke-width:2.409;stroke-miterlimit:10;}
	.st78{fill:#A36F24;}
	.st79{fill:#EDC7A4;stroke:#EDC7A4;stroke-width:2.2749;stroke-miterlimit:10;}
	.st80{fill:#932E1E;stroke:#932E1E;stroke-width:2.0999;stroke-miterlimit:10;}
	.st81{fill:#932E1E;stroke:#932E1E;stroke-width:2.2749;stroke-miterlimit:10;}
	.st82{fill:#DC9359;stroke:#DC9359;stroke-width:2.2749;stroke-miterlimit:10;}
	.st83{fill:#A37025;stroke:#A37025;stroke-width:2.2369;stroke-miterlimit:10;}
	.st84{fill:#DC9359;stroke:#DC9359;stroke-width:2.2369;stroke-miterlimit:10;}
	.st85{fill:#FFFFFF;stroke:#FFFFFF;stroke-width:2.2369;stroke-miterlimit:10;}
	.st86{fill:#456131;}
	.st87{fill:none;stroke:#1C3236;stroke-width:2.9311;stroke-linecap:round;stroke-linejoin:round;stroke-miterlimit:10;}
	.st88{fill:#FFFFFF;stroke:#FFFFFF;stroke-width:3.2693;stroke-miterlimit:10;}
	.st89{fill:#878888;}
	.st90{fill:none;stroke:#30151C;stroke-width:4.6663;stroke-miterlimit:10;}
	.st91{fill:none;stroke:#331E40;stroke-width:4.84;stroke-miterlimit:10;}
	.st92{fill:#FFFFFF;stroke:#FFFFFF;stroke-width:3.2843;stroke-miterlimit:10;}
	.st93{fill:none;stroke:#331E40;stroke-width:5.197;stroke-miterlimit:10;}
	.st94{fill:#FFFFFF;stroke:#FFFFFF;stroke-width:3.2914;stroke-miterlimit:10;}
	.st95{fill:none;stroke:#1E333F;stroke-width:5.2381;stroke-miterlimit:10;}
	.st96{fill:#FFFFFF;stroke:#FFFFFF;stroke-width:3.3174;stroke-miterlimit:10;}
	.st97{fill:#FFFFFF;stroke:#FFFFFF;stroke-width:3.2837;stroke-miterlimit:10;}
	.st98{fill:#5C7487;}
	.st99{fill:none;stroke:#24121B;stroke-width:3.7855;stroke-linecap:round;stroke-linejoin:round;stroke-miterlimit:10;}
	.st100{fill:none;stroke:#24121B;stroke-width:2.581;stroke-linecap:round;stroke-linejoin:round;stroke-miterlimit:10;}
	.st101{fill:#24121B;stroke:#24121B;stroke-width:0.3441;stroke-miterlimit:10;}
	.st102{fill:none;stroke:#F9F9F9;stroke-width:3.4414;stroke-linecap:round;stroke-linejoin:round;stroke-miterlimit:10;}
	.st103{fill:none;stroke:#30151C;stroke-width:4.6459;stroke-miterlimit:10;}
	.st104{fill:none;stroke:#1E333F;stroke-width:5.1724;stroke-miterlimit:10;}
	.st105{fill:#FFFFFF;stroke:#FFFFFF;stroke-width:3.2759;stroke-miterlimit:10;}
	.st106{fill:none;stroke:#1E333F;stroke-width:5.1621;stroke-miterlimit:10;}
	.st107{fill:none;stroke:#30151C;stroke-width:4.6905;stroke-miterlimit:10;}
	.st108{fill:#FFFFFF;stroke:#FFFFFF;stroke-width:3.3007;stroke-miterlimit:10;}
</style>
<g id="Capa_1">
	<rect x="-0.3" class="st10" width="140.3" height="140"/>
</g>
<g id="Capa_2">
	<g>
		<g>
			<g>
				<g>
					<path class="st44" d="M94.1,77.3h5.7c7.6,0,13.8-6.2,13.8-13.8c0-6.7-4.7-12.3-11-13.6c0-0.1,0-0.2,0-0.3
						c0-7.6-6.2-13.8-13.8-13.8c-1.4,0-2.8,0.2-4,0.6c-2-6.6-8.1-11.5-15.4-11.5c-7.3,0-13.4,4.8-15.4,11.5c-1.3-0.4-2.6-0.6-4-0.6
						c-7.6,0-13.8,6.2-13.8,13.8c0,0.1,0,0.2,0,0.3c-6.3,1.3-11,6.9-11,13.6c0,7.6,6.2,13.8,13.8,13.8h45.8H94.1z"/>
				</g>
			</g>
		</g>
		<g>
			<g>
				<g>
					<path class="st44" d="M99.9,78.8H39c-8.5,0-15.4-6.9-15.4-15.4c0-6.8,4.6-12.8,11-14.7c0.5-8.1,7.2-14.5,15.3-14.5
						c1,0,2.1,0.1,3.1,0.3c2.6-6.6,9.1-11.2,16.4-11.2c7.2,0,13.8,4.5,16.4,11.2c1-0.2,2-0.3,3.1-0.3c8.2,0,14.9,6.4,15.3,14.5
						c6.5,1.9,11,7.9,11,14.7C115.2,71.9,108.3,78.8,99.9,78.8z M50,37.2c-6.8,0-12.3,5.5-12.3,12.3c0,0,0,0.1,0,0.1l0,0.1
						c0,0.7-0.5,1.4-1.2,1.5c-5.7,1.2-9.8,6.3-9.8,12.1c0,6.8,5.5,12.3,12.3,12.3h60.9c6.8,0,12.3-5.5,12.3-12.3
						c0-5.8-4.1-10.9-9.8-12.1c-0.7-0.1-1.2-0.8-1.2-1.5l0-0.1c0,0,0-0.1,0-0.1c0-6.8-5.5-12.3-12.3-12.3c-1.2,0-2.4,0.2-3.6,0.5
						c-0.4,0.1-0.8,0.1-1.2-0.1c-0.4-0.2-0.6-0.5-0.7-0.9c-1.8-6.1-7.6-10.4-13.9-10.4c-6.4,0-12.1,4.3-13.9,10.4
						c-0.1,0.4-0.4,0.7-0.7,0.9c-0.4,0.2-0.8,0.2-1.2,0.1C52.4,37.4,51.2,37.2,50,37.2z"/>
				</g>
			</g>
		</g>
	</g>
	<g id="XMLID_176_">
		<g id="XMLID_177_">
			<polygon id="XMLID_194_" class="st45" points="89.4,61.6 72.6,75 44.3,61 50.2,56.4 			"/>
			<polygon id="XMLID_193_" class="st45" points="97.7,72.1 80.8,85.4 87.8,116.1 93.8,111.4 			"/>
			<g id="XMLID_190_">
				<path id="XMLID_191_" class="st45" d="M104.6,67.5L77.4,89c-6.1,4.8-12.9,8.5-20.2,11.1l-3.4,1.2c-1,0.3-2,0-2.6-0.8
					c-0.6-0.8-0.7-1.9-0.1-2.8l1.8-2.9c4.2-6.7,9.5-12.6,15.7-17.5l27-21.3c3.1-2.4,10.9-4.7,13.5-1.4
					C111.7,58,107.6,65.1,104.6,67.5z"/>
			</g>
			<g id="XMLID_188_">
				<polygon id="XMLID_189_" class="st45" points="51.3,98.4 39.2,89.9 44.6,85.6 58.6,87.5 58.4,88.7 44.9,86.9 41.3,89.8 52,97.4 
									"/>
			</g>
			<g id="XMLID_180_">
				<polygon id="XMLID_181_" class="st45" points="64.1,110.3 58.7,114.6 53.3,100.9 54.4,100.4 59.3,112.6 63,109.7 64.3,96.2 
					65.6,96.3 				"/>
			</g>
			<polygon id="XMLID_179_" class="st45" points="66.2,88.4 52.3,95.1 39,90 43.8,87.6 			"/>
			<polygon id="XMLID_178_" class="st45" points="62.9,89.8 57,99.8 62,111.3 64,107.8 			"/>
			
				<rect x="56.2" y="99.7" transform="matrix(0.9239 -0.3825 0.3825 0.9239 -36.1715 30.3829)" class="st45" width="4.2" height="12.8"/>
			
				<rect x="48.9" y="82.2" transform="matrix(0.1268 -0.9919 0.9919 0.1268 -43.7681 127.4193)" class="st45" width="3.1" height="12.8"/>
			<rect x="47.9" y="87.7" transform="matrix(0.5 -0.866 0.866 0.5 -56.8129 89.8789)" class="st45" width="3.1" height="12.8"/>
			
				<rect x="60" y="95" transform="matrix(0.9978 6.668723e-02 -6.668723e-02 0.9978 6.9025 -3.9131)" class="st45" width="4.2" height="12.8"/>
		</g>
	</g>
</g>
<g id="Capa_3">
</g>
</svg>
