<?xml version="1.0" encoding="utf-8"?>
<!-- Generator: Adobe Illustrator 23.0.6, SVG Export Plug-In . SVG Version: 6.00 Build 0)  -->
<svg version="1.1" xmlns="http://www.w3.org/2000/svg" xmlns:xlink="http://www.w3.org/1999/xlink" x="0px" y="0px"
	 viewBox="0 0 140 140" style="enable-background:new 0 0 140 140;" xml:space="preserve">
<style type="text/css">
	.st0{fill:#BE6D20;}
	.st1{fill:#BB513B;}
	.st2{fill:#7F3318;}
	.st3{fill:#C41A3B;}
	.st4{fill:#871A4F;}
	.st5{fill:#623284;}
	.st6{fill:#292C51;}
	.st7{fill:#4D5CA3;}
	.st8{fill:#5C95C9;}
	.st9{fill:#005460;}
	.st10{fill:#3BA08D;}
	.st11{fill:#74AC40;}
	.st12{fill:#497A3C;}
	.st13{fill:#B7CA47;}
	.st14{fill:#939054;}
	.st15{fill:#FFFFFF;stroke:#9EC37D;stroke-width:4.3502;stroke-miterlimit:10;}
	.st16{fill:#DCDCDC;}
	.st17{fill:#497B3C;stroke:#497B3C;stroke-width:0.522;stroke-miterlimit:10;}
	.st18{fill:#DB9825;}
	.st19{fill:#CA4D26;}
	.st20{fill:#6E4953;}
	.st21{fill:#4F3541;}
	.st22{fill:#932E1E;stroke:#932E1E;stroke-width:4.7249;stroke-miterlimit:10;}
	.st23{fill:#FFFFFF;}
	.st24{fill:#4A1917;}
	.st25{fill:#F9F9F9;}
	.st26{fill:#BA7B6A;}
	.st27{fill:none;stroke:#371C16;stroke-width:2.6204;stroke-linecap:round;stroke-linejoin:round;stroke-miterlimit:10;}
	.st28{fill:#FFFFFF;stroke:#FFFFFF;stroke-width:0.1754;stroke-miterlimit:10;}
	.st29{fill:#561827;}
	.st30{fill:#B48995;}
	.st31{fill:#30151C;}
	.st32{fill:#7B5568;}
	.st33{fill:none;stroke:#24121B;stroke-width:3.8462;stroke-linecap:round;stroke-linejoin:round;stroke-miterlimit:10;}
	.st34{fill:none;stroke:#F9F9F9;stroke-width:3.4966;stroke-linecap:round;stroke-linejoin:round;stroke-miterlimit:10;}
	.st35{fill:#24121B;stroke:#24121B;stroke-width:0.3497;stroke-miterlimit:10;}
	.st36{fill:none;stroke:#24121B;stroke-width:2.6224;stroke-linecap:round;stroke-linejoin:round;stroke-miterlimit:10;}
	.st37{fill:#FFFFFF;stroke:url(#);stroke-width:0.1743;stroke-miterlimit:10;}
	.st38{fill:#1B2A37;}
	.st39{fill:#85C1D2;}
	.st40{fill:none;stroke:#1C3236;stroke-width:2.9702;stroke-linecap:round;stroke-linejoin:round;stroke-miterlimit:10;}
	.st41{fill:#72B4E6;}
	.st42{fill:#1C3236;}
	.st43{fill:#B1CDEE;}
	.st44{fill:#C3DFE7;}
	.st45{fill:#2E4D44;}
	.st46{fill:#DEC34A;}
	.st47{fill:#6E5A21;}
	.st48{fill:#4C3E1D;}
	.st49{fill:none;stroke:#FFFFFF;stroke-width:2.8139;stroke-miterlimit:10;}
	.st50{fill:#FFFFFF;stroke:#FFFFFF;stroke-width:2.8139;stroke-miterlimit:10;}
	.st51{fill:#E4B3CB;}
	.st52{fill:#8E1135;}
	.st53{fill:#372C71;stroke:#372C71;stroke-width:0.175;stroke-miterlimit:10;}
	.st54{fill:#2E151D;}
	.st55{fill:#CB4A7C;}
	.st56{fill:#371529;}
	.st57{fill:#E2ADCC;}
	.st58{fill:#611740;}
	.st59{fill:none;stroke:#FFFFFF;stroke-width:3.4966;stroke-miterlimit:10;}
	.st60{fill:#FFFFFF;stroke:#FFFFFF;stroke-width:3.4966;stroke-miterlimit:10;}
	.st61{fill:#6B267F;}
	.st62{fill:#BFC5C5;}
	.st63{fill:#713787;}
	.st64{fill:#331E40;}
	.st65{fill:#545F2C;}
	.st66{fill:#212E20;}
	.st67{fill:#9FAD35;}
	.st68{fill:#D3DC7E;}
	.st69{fill:#3E3D21;}
	.st70{fill:#281C3B;}
	.st71{fill:#AA98C6;}
	.st72{fill:#FFFFFF;stroke:#292D50;stroke-width:4.3695;stroke-miterlimit:10;}
	.st73{fill:#FFFFFF;stroke:#2A4125;stroke-width:4.3017;stroke-miterlimit:10;}
	.st74{fill:#2A4027;stroke:#2A4027;stroke-width:0.5162;stroke-miterlimit:10;}
	.st75{fill:#FFFFFF;stroke:#4E5DA3;stroke-width:4.382;stroke-miterlimit:10;}
	.st76{fill:none;stroke:#1C3236;stroke-width:2.9682;stroke-linecap:round;stroke-linejoin:round;stroke-miterlimit:10;}
	.st77{fill:#FFFFFF;stroke:#DC9927;stroke-width:2.409;stroke-miterlimit:10;}
	.st78{fill:#A36F24;}
	.st79{fill:#EDC7A4;stroke:#EDC7A4;stroke-width:2.2749;stroke-miterlimit:10;}
	.st80{fill:#932E1E;stroke:#932E1E;stroke-width:2.0999;stroke-miterlimit:10;}
	.st81{fill:#932E1E;stroke:#932E1E;stroke-width:2.2749;stroke-miterlimit:10;}
	.st82{fill:#DC9359;stroke:#DC9359;stroke-width:2.2749;stroke-miterlimit:10;}
	.st83{fill:#A37025;stroke:#A37025;stroke-width:2.2369;stroke-miterlimit:10;}
	.st84{fill:#DC9359;stroke:#DC9359;stroke-width:2.2369;stroke-miterlimit:10;}
	.st85{fill:#FFFFFF;stroke:#FFFFFF;stroke-width:2.2369;stroke-miterlimit:10;}
	.st86{fill:#456131;}
	.st87{fill:none;stroke:#1C3236;stroke-width:2.9311;stroke-linecap:round;stroke-linejoin:round;stroke-miterlimit:10;}
	.st88{fill:#FFFFFF;stroke:#FFFFFF;stroke-width:3.2693;stroke-miterlimit:10;}
	.st89{fill:#878888;}
	.st90{fill:none;stroke:#30151C;stroke-width:4.6663;stroke-miterlimit:10;}
	.st91{fill:none;stroke:#331E40;stroke-width:4.84;stroke-miterlimit:10;}
	.st92{fill:#FFFFFF;stroke:#FFFFFF;stroke-width:3.2843;stroke-miterlimit:10;}
	.st93{fill:none;stroke:#331E40;stroke-width:5.197;stroke-miterlimit:10;}
	.st94{fill:#FFFFFF;stroke:#FFFFFF;stroke-width:3.2914;stroke-miterlimit:10;}
	.st95{fill:none;stroke:#1E333F;stroke-width:5.2381;stroke-miterlimit:10;}
	.st96{fill:#FFFFFF;stroke:#FFFFFF;stroke-width:3.3174;stroke-miterlimit:10;}
	.st97{fill:#FFFFFF;stroke:#FFFFFF;stroke-width:3.2837;stroke-miterlimit:10;}
	.st98{fill:#5C7487;}
	.st99{fill:none;stroke:#24121B;stroke-width:3.7855;stroke-linecap:round;stroke-linejoin:round;stroke-miterlimit:10;}
	.st100{fill:none;stroke:#24121B;stroke-width:2.581;stroke-linecap:round;stroke-linejoin:round;stroke-miterlimit:10;}
	.st101{fill:#24121B;stroke:#24121B;stroke-width:0.3441;stroke-miterlimit:10;}
	.st102{fill:none;stroke:#F9F9F9;stroke-width:3.4414;stroke-linecap:round;stroke-linejoin:round;stroke-miterlimit:10;}
	.st103{fill:none;stroke:#30151C;stroke-width:4.6459;stroke-miterlimit:10;}
	.st104{fill:none;stroke:#1E333F;stroke-width:5.1724;stroke-miterlimit:10;}
	.st105{fill:#FFFFFF;stroke:#FFFFFF;stroke-width:3.2759;stroke-miterlimit:10;}
	.st106{fill:none;stroke:#1E333F;stroke-width:5.1621;stroke-miterlimit:10;}
	.st107{fill:none;stroke:#30151C;stroke-width:4.6905;stroke-miterlimit:10;}
	.st108{fill:#FFFFFF;stroke:#FFFFFF;stroke-width:3.3007;stroke-miterlimit:10;}
</style>
<g id="Capa_1">
	<rect y="0.1" class="st5" width="139.9" height="139.9"/>
</g>
<g id="Capa_2">
	<g id="XMLID_253_">
		<path id="XMLID_312_" class="st70" d="M93.2,106L93.2,106c0.4,0,0.8-0.1,1.1-0.4l17-16.1c0.3-0.3,0.5-0.7,0.5-1.1
			c0.2-0.3,0.3-0.6,0.3-1V27.9c0-3.7-3-6.7-6.7-6.7H48.7c-3.7,0-6.7,3-6.7,6.7v71.8c0,3.7,3,6.7,6.7,6.7h43.4
			C92.5,106.4,92.9,106.3,93.2,106z M94.8,100.7v-6.2c0-2.5,2.1-4.6,4.6-4.6h6.8L94.8,100.7z"/>
		<path id="XMLID_296_" class="st71" d="M56.5,46h41.1c1,0,1.9-0.8,1.9-1.9v-3.3c0-1-0.8-1.9-1.9-1.9H56.5c-1,0-1.9,0.8-1.9,1.9v3.3
			C54.6,45.2,55.5,46,56.5,46z M56.9,41.2h40.4v2.6H56.9V41.2z"/>
		<path id="XMLID_293_" class="st71" d="M56.5,57.7h41.1c1,0,1.9-0.8,1.9-1.9v-3.3c0-1-0.8-1.9-1.9-1.9H56.5c-1,0-1.9,0.8-1.9,1.9
			v3.3C54.6,56.9,55.5,57.7,56.5,57.7z M56.9,52.9h40.4v2.6H56.9V52.9z"/>
		<path id="XMLID_254_" class="st70" d="M99.5,67.5v-3.3c0-1-0.8-1.9-1.9-1.9H56.5c-1,0-1.9,0.8-1.9,1.9v3.3c0,1,0.8,1.9,1.9,1.9
			h41.1C98.6,69.4,99.5,68.6,99.5,67.5z M97.2,67.2H56.9v-2.6h40.4V67.2z"/>
	</g>
	<g id="XMLID_120_">
		<path id="XMLID_251_" class="st23" d="M64.9,86.2c-0.4-0.1-0.9,0-1.3,0.3c-0.4,0.3-0.6,0.6-0.7,1.1l-1.4,7.5
			c-0.2,0.9,0.4,1.8,1.4,2l2.9,0.6c0.1,1.6,0.5,3.2,1,4.7l-2.5,1.7c-0.4,0.3-0.6,0.6-0.7,1.1c-0.1,0.4,0,0.9,0.3,1.3l4.3,6.4
			c0.3,0.4,0.6,0.6,1.1,0.7c0.4,0.1,0.9,0,1.3-0.3l2.5-1.7c1.2,1,2.6,1.9,4,2.6l-0.6,2.9c-0.2,0.9,0.4,1.8,1.4,2l7.5,1.4
			c0.1,0,0.2,0,0.3,0c0.8,0,1.5-0.6,1.7-1.4l0.6-2.9c1.6-0.1,3.2-0.5,4.7-1l1.7,2.5c0.3,0.4,0.6,0.6,1.1,0.7c0.4,0.1,0.9,0,1.3-0.3
			l6.4-4.3c0.8-0.5,1-1.6,0.5-2.4l-1.7-2.5c1-1.2,1.9-2.6,2.6-4l2.9,0.6c0.9,0.2,1.8-0.4,2-1.4l1.4-7.5c0.1-0.4,0-0.9-0.3-1.3
			c-0.3-0.4-0.6-0.6-1.1-0.7l-2.9-0.6c-0.1-1.6-0.5-3.2-1-4.7l2.5-1.7c0.8-0.5,1-1.6,0.5-2.4l-4.3-6.4c-0.3-0.4-0.6-0.6-1.1-0.7
			c-0.4-0.1-0.9,0-1.3,0.3l-2.5,1.7c-1.2-1-2.6-1.9-4-2.6l0.6-2.9c0.2-0.9-0.4-1.8-1.4-2l-7.5-1.4c-0.4-0.1-0.9,0-1.3,0.3
			c-0.4,0.3-0.6,0.6-0.7,1.1l-0.6,2.9c-1.6,0.1-3.2,0.5-4.7,1l-1.7-2.5c-0.3-0.4-0.6-0.6-1.1-0.7c-0.4-0.1-0.9,0-1.3,0.3L69.2,78
			c-0.4,0.3-0.6,0.6-0.7,1.1c-0.1,0.4,0,0.9,0.3,1.3l1.7,2.5c-1,1.2-1.9,2.6-2.6,4L64.9,86.2z"/>
		<path id="XMLID_248_" class="st23" d="M83.8,108L83.8,108c0.8,0.1,1.5,0.2,2.3,0.2c5.8,0,10.9-4.1,12.1-10
			c1.3-6.7-3.1-13.1-9.8-14.4c-3.2-0.6-6.5,0.1-9.2,1.9c-2.7,1.8-4.5,4.6-5.2,7.9c-0.6,3.2,0.1,6.5,1.9,9.2
			C77.8,105.5,80.5,107.4,83.8,108z M77.4,94.3c0.4-2.3,1.8-4.3,3.7-5.7c1.5-1,3.2-1.5,5-1.5c0.6,0,1.1,0.1,1.7,0.2
			c4.8,0.9,8,5.6,7,10.4c-0.4,2.3-1.8,4.3-3.7,5.7c-2,1.3-4.3,1.8-6.6,1.4h0c-2.3-0.4-4.3-1.8-5.7-3.7
			C77.4,98.9,76.9,96.6,77.4,94.3z"/>
		<path id="XMLID_246_" class="st23" d="M21.6,78.3c0.1,0.7,0.8,1.2,1.5,1.1l2.3-0.3c0.5,1.2,1.2,2.2,1.9,3.2L26,84.2
			c-0.2,0.3-0.3,0.6-0.3,1c0.1,0.4,0.2,0.7,0.5,0.9l4.8,3.6c0.6,0.4,1.4,0.3,1.9-0.3l1.4-1.9c1.2,0.5,2.4,0.8,3.7,0.9l0.3,2.3
			c0.1,0.4,0.2,0.7,0.5,0.9c0.2,0.2,0.5,0.3,0.8,0.3c0.1,0,0.1,0,0.2,0l6-0.9c0.7-0.1,1.2-0.8,1.1-1.5l-0.3-2.3
			c1.2-0.5,2.2-1.2,3.2-1.9l1.9,1.4c0.6,0.4,1.4,0.3,1.9-0.3l3.6-4.8c0.4-0.6,0.3-1.4-0.3-1.9l-1.9-1.4c0.5-1.2,0.8-2.4,0.9-3.7
			l2.3-0.3c0.4-0.1,0.7-0.2,0.9-0.5c0.2-0.3,0.3-0.6,0.3-1l-0.9-6c-0.1-0.7-0.8-1.2-1.5-1.1L54.8,66c-0.5-1.2-1.2-2.2-1.9-3.2
			l1.4-1.9c0.2-0.3,0.3-0.6,0.3-1c-0.1-0.4-0.2-0.7-0.5-0.9l-4.8-3.6c-0.3-0.2-0.6-0.3-1-0.3c-0.4,0.1-0.7,0.2-0.9,0.5l-1.4,1.9
			c-1.2-0.5-2.4-0.8-3.7-0.9l-0.3-2.3c-0.1-0.7-0.8-1.2-1.5-1.1l-6,0.9c-0.4,0.1-0.7,0.2-0.9,0.5c-0.2,0.3-0.3,0.6-0.3,1l0.3,2.3
			c-1.2,0.5-2.2,1.2-3.2,1.9l-1.9-1.4c-0.3-0.2-0.6-0.3-1-0.3c-0.4,0.1-0.7,0.2-0.9,0.5L23,63.5c-0.2,0.3-0.3,0.6-0.3,1
			c0.1,0.4,0.2,0.7,0.5,0.9l1.9,1.4c-0.5,1.2-0.8,2.4-0.9,3.7l-2.3,0.3c-0.4,0.1-0.7,0.2-0.9,0.5c-0.2,0.3-0.3,0.6-0.3,1L21.6,78.3z
			"/>
		<path id="XMLID_123_" class="st23" d="M40.1,82.2c0.5,0,0.9,0,1.4-0.1c5.3-0.8,9-5.7,8.2-11c-0.8-5.3-5.7-9-11-8.2
			c-5.3,0.8-9,5.7-8.2,11C31.3,78.8,35.4,82.2,40.1,82.2z M47.1,71.6c0.5,3.8-2.1,7.4-5.9,7.9c-3.8,0.5-7.4-2.1-7.9-5.9
			c-0.5-3.8,2.1-7.4,5.9-7.9c0.3,0,0.7-0.1,1-0.1C43.6,65.6,46.6,68.1,47.1,71.6z"/>
		<path id="XMLID_121_" class="st23" d="M29.7,111.4c0.1,0.4,0.4,0.7,0.9,0.6l1.3-0.2c0.3,0.7,0.7,1.3,1.1,1.8l-0.8,1.1
			c-0.1,0.2-0.2,0.4-0.1,0.6c0,0.2,0.1,0.4,0.3,0.5l2.7,2.1c0.3,0.3,0.8,0.2,1.1-0.2l0.8-1.1c0.7,0.3,1.4,0.4,2.1,0.5l0.2,1.3
			c0,0.2,0.1,0.4,0.3,0.5c0.1,0.1,0.3,0.2,0.5,0.2c0,0,0.1,0,0.1,0l3.4-0.5c0.4-0.1,0.7-0.4,0.6-0.9l-0.2-1.3
			c0.7-0.3,1.3-0.7,1.8-1.1l1.1,0.8c0.3,0.3,0.8,0.2,1.1-0.2l2.1-2.7c0.3-0.3,0.2-0.8-0.2-1.1l-1.1-0.8c0.3-0.7,0.4-1.4,0.5-2.1
			l1.3-0.2c0.2,0,0.4-0.1,0.5-0.3c0.1-0.2,0.2-0.4,0.1-0.6l-0.5-3.4c-0.1-0.4-0.4-0.7-0.9-0.6l-1.3,0.2c-0.3-0.7-0.7-1.3-1.1-1.8
			l0.8-1.1c0.1-0.2,0.2-0.4,0.1-0.6c0-0.2-0.1-0.4-0.3-0.5l-2.7-2.1c-0.2-0.1-0.4-0.2-0.6-0.1c-0.2,0-0.4,0.1-0.5,0.3l-0.8,1.1
			c-0.7-0.3-1.4-0.4-2.1-0.5l-0.2-1.3c-0.1-0.4-0.4-0.7-0.9-0.6l-3.4,0.5c-0.2,0-0.4,0.1-0.5,0.3c-0.1,0.2-0.2,0.4-0.1,0.6l0.2,1.3
			c-0.7,0.3-1.3,0.7-1.8,1.1l-1.1-0.8c-0.2-0.1-0.4-0.2-0.6-0.1c-0.2,0-0.4,0.1-0.5,0.3l-2,2.7c-0.1,0.2-0.2,0.4-0.1,0.6
			c0,0.2,0.1,0.4,0.3,0.5l1.1,0.8c-0.3,0.7-0.4,1.4-0.5,2.1l-1.3,0.2c-0.2,0-0.4,0.1-0.5,0.3c-0.1,0.2-0.2,0.4-0.1,0.6L29.7,111.4z"
			/>
	</g>
	<circle class="st70" cx="40" cy="72.4" r="9.6"/>
	
		<ellipse transform="matrix(0.7071 -0.7071 0.7071 0.7071 -42.6224 88.9517)" class="st70" cx="86.1" cy="95.9" rx="11.4" ry="11.4"/>
	<circle class="st70" cx="40" cy="108.2" r="5.5"/>
</g>
<g id="Capa_3">
</g>
</svg>
