<?xml version="1.0" encoding="utf-8"?>
<!-- Generator: Adobe Illustrator 23.0.6, SVG Export Plug-In . SVG Version: 6.00 Build 0)  -->
<svg version="1.1" xmlns="http://www.w3.org/2000/svg" xmlns:xlink="http://www.w3.org/1999/xlink" x="0px" y="0px"
	 viewBox="0 0 140 140" style="enable-background:new 0 0 140 140;" xml:space="preserve">
<style type="text/css">
	.st0{fill:#BE6D20;}
	.st1{fill:#BB513B;}
	.st2{fill:#7F3318;}
	.st3{fill:#C41A3B;}
	.st4{fill:#871A4F;}
	.st5{fill:#623284;}
	.st6{fill:#292C51;}
	.st7{fill:#4D5CA3;}
	.st8{fill:#5C95C9;}
	.st9{fill:#005460;}
	.st10{fill:#3BA08D;}
	.st11{fill:#74AC40;}
	.st12{fill:#497A3C;}
	.st13{fill:#B7CA47;}
	.st14{fill:#939054;}
	.st15{fill:#FFFFFF;stroke:#9EC37D;stroke-width:4.3502;stroke-miterlimit:10;}
	.st16{fill:#DCDCDC;}
	.st17{fill:#497B3C;stroke:#497B3C;stroke-width:0.522;stroke-miterlimit:10;}
	.st18{fill:#DB9825;}
	.st19{fill:#CA4D26;}
	.st20{fill:#6E4953;}
	.st21{fill:#4F3541;}
	.st22{fill:#932E1E;stroke:#932E1E;stroke-width:4.7249;stroke-miterlimit:10;}
	.st23{fill:#FFFFFF;}
	.st24{fill:#4A1917;}
	.st25{fill:#F9F9F9;}
	.st26{fill:#BA7B6A;}
	.st27{fill:none;stroke:#371C16;stroke-width:2.6204;stroke-linecap:round;stroke-linejoin:round;stroke-miterlimit:10;}
	.st28{fill:#FFFFFF;stroke:#FFFFFF;stroke-width:0.1754;stroke-miterlimit:10;}
	.st29{fill:#561827;}
	.st30{fill:#B48995;}
	.st31{fill:#30151C;}
	.st32{fill:#7B5568;}
	.st33{fill:none;stroke:#24121B;stroke-width:3.8462;stroke-linecap:round;stroke-linejoin:round;stroke-miterlimit:10;}
	.st34{fill:none;stroke:#F9F9F9;stroke-width:3.4966;stroke-linecap:round;stroke-linejoin:round;stroke-miterlimit:10;}
	.st35{fill:#24121B;stroke:#24121B;stroke-width:0.3497;stroke-miterlimit:10;}
	.st36{fill:none;stroke:#24121B;stroke-width:2.6224;stroke-linecap:round;stroke-linejoin:round;stroke-miterlimit:10;}
	.st37{fill:#FFFFFF;stroke:url(#);stroke-width:0.1743;stroke-miterlimit:10;}
	.st38{fill:#1B2A37;}
	.st39{fill:#85C1D2;}
	.st40{fill:none;stroke:#1C3236;stroke-width:2.9702;stroke-linecap:round;stroke-linejoin:round;stroke-miterlimit:10;}
	.st41{fill:#72B4E6;}
	.st42{fill:#1C3236;}
	.st43{fill:#B1CDEE;}
	.st44{fill:#C3DFE7;}
	.st45{fill:#2E4D44;}
	.st46{fill:#DEC34A;}
	.st47{fill:#6E5A21;}
	.st48{fill:#4C3E1D;}
	.st49{fill:none;stroke:#FFFFFF;stroke-width:2.8139;stroke-miterlimit:10;}
	.st50{fill:#FFFFFF;stroke:#FFFFFF;stroke-width:2.8139;stroke-miterlimit:10;}
	.st51{fill:#E4B3CB;}
	.st52{fill:#8E1135;}
	.st53{fill:#372C71;stroke:#372C71;stroke-width:0.175;stroke-miterlimit:10;}
	.st54{fill:#2E151D;}
	.st55{fill:#CB4A7C;}
	.st56{fill:#371529;}
	.st57{fill:#E2ADCC;}
	.st58{fill:#611740;}
	.st59{fill:none;stroke:#FFFFFF;stroke-width:3.4966;stroke-miterlimit:10;}
	.st60{fill:#FFFFFF;stroke:#FFFFFF;stroke-width:3.4966;stroke-miterlimit:10;}
	.st61{fill:#6B267F;}
	.st62{fill:#BFC5C5;}
	.st63{fill:#713787;}
	.st64{fill:#331E40;}
	.st65{fill:#545F2C;}
	.st66{fill:#212E20;}
	.st67{fill:#9FAD35;}
	.st68{fill:#D3DC7E;}
	.st69{fill:#3E3D21;}
	.st70{fill:#281C3B;}
	.st71{fill:#AA98C6;}
	.st72{fill:#FFFFFF;stroke:#292D50;stroke-width:4.3695;stroke-miterlimit:10;}
	.st73{fill:#FFFFFF;stroke:#2A4125;stroke-width:4.3017;stroke-miterlimit:10;}
	.st74{fill:#2A4027;stroke:#2A4027;stroke-width:0.5162;stroke-miterlimit:10;}
	.st75{fill:#FFFFFF;stroke:#4E5DA3;stroke-width:4.382;stroke-miterlimit:10;}
	.st76{fill:none;stroke:#1C3236;stroke-width:2.9682;stroke-linecap:round;stroke-linejoin:round;stroke-miterlimit:10;}
	.st77{fill:#FFFFFF;stroke:#DC9927;stroke-width:2.409;stroke-miterlimit:10;}
	.st78{fill:#A36F24;}
	.st79{fill:#EDC7A4;stroke:#EDC7A4;stroke-width:2.2749;stroke-miterlimit:10;}
	.st80{fill:#932E1E;stroke:#932E1E;stroke-width:2.0999;stroke-miterlimit:10;}
	.st81{fill:#932E1E;stroke:#932E1E;stroke-width:2.2749;stroke-miterlimit:10;}
	.st82{fill:#DC9359;stroke:#DC9359;stroke-width:2.2749;stroke-miterlimit:10;}
	.st83{fill:#A37025;stroke:#A37025;stroke-width:2.2369;stroke-miterlimit:10;}
	.st84{fill:#DC9359;stroke:#DC9359;stroke-width:2.2369;stroke-miterlimit:10;}
	.st85{fill:#FFFFFF;stroke:#FFFFFF;stroke-width:2.2369;stroke-miterlimit:10;}
	.st86{fill:#456131;}
	.st87{fill:none;stroke:#1C3236;stroke-width:2.9311;stroke-linecap:round;stroke-linejoin:round;stroke-miterlimit:10;}
	.st88{fill:#FFFFFF;stroke:#FFFFFF;stroke-width:3.2693;stroke-miterlimit:10;}
	.st89{fill:#878888;}
	.st90{fill:none;stroke:#30151C;stroke-width:4.6663;stroke-miterlimit:10;}
	.st91{fill:none;stroke:#331E40;stroke-width:4.84;stroke-miterlimit:10;}
	.st92{fill:#FFFFFF;stroke:#FFFFFF;stroke-width:3.2843;stroke-miterlimit:10;}
	.st93{fill:none;stroke:#331E40;stroke-width:5.197;stroke-miterlimit:10;}
	.st94{fill:#FFFFFF;stroke:#FFFFFF;stroke-width:3.2914;stroke-miterlimit:10;}
	.st95{fill:none;stroke:#1E333F;stroke-width:5.2381;stroke-miterlimit:10;}
	.st96{fill:#FFFFFF;stroke:#FFFFFF;stroke-width:3.3174;stroke-miterlimit:10;}
	.st97{fill:#FFFFFF;stroke:#FFFFFF;stroke-width:3.2837;stroke-miterlimit:10;}
	.st98{fill:#5C7487;}
	.st99{fill:none;stroke:#24121B;stroke-width:3.7855;stroke-linecap:round;stroke-linejoin:round;stroke-miterlimit:10;}
	.st100{fill:none;stroke:#24121B;stroke-width:2.581;stroke-linecap:round;stroke-linejoin:round;stroke-miterlimit:10;}
	.st101{fill:#24121B;stroke:#24121B;stroke-width:0.3441;stroke-miterlimit:10;}
	.st102{fill:none;stroke:#F9F9F9;stroke-width:3.4414;stroke-linecap:round;stroke-linejoin:round;stroke-miterlimit:10;}
	.st103{fill:none;stroke:#30151C;stroke-width:4.6459;stroke-miterlimit:10;}
	.st104{fill:none;stroke:#1E333F;stroke-width:5.1724;stroke-miterlimit:10;}
	.st105{fill:#FFFFFF;stroke:#FFFFFF;stroke-width:3.2759;stroke-miterlimit:10;}
	.st106{fill:none;stroke:#1E333F;stroke-width:5.1621;stroke-miterlimit:10;}
	.st107{fill:none;stroke:#30151C;stroke-width:4.6905;stroke-miterlimit:10;}
	.st108{fill:#FFFFFF;stroke:#FFFFFF;stroke-width:3.3007;stroke-miterlimit:10;}
</style>
<g id="Capa_1">
	<rect x="-0.2" class="st21" width="140.2" height="140.2"/>
</g>
<g id="Capa_2">
</g>
<g id="Capa_3">
	<g>
		<g>
			<path class="st32" d="M106.7,117.1H43.3c-1.7,0-3-1.3-3-3V35.4c0-1.7,1.3-3,3-3h63.4c1.7,0,3,1.3,3,3v78.7
				C109.7,115.8,108.4,117.1,106.7,117.1z"/>
			
				<rect x="33.9" y="46.2" transform="matrix(-1.836970e-16 1 -1 -1.836970e-16 151.0498 1.5895)" class="st25" width="81.6" height="60.1"/>
			<path class="st99" d="M106.1,118.9H43.3c-1.7,0-3-1.3-3-3v-79c0-1.7,1.3-3,3-3h62.8c1.7,0,3,1.3,3,3v79
				C109.1,117.6,107.7,118.9,106.1,118.9z"/>
			<circle class="st21" cx="74.3" cy="76" r="23.5"/>
			<g>
				<path class="st25" d="M119.3,59.2l-6.9-4l4.7-8.2c0.1-0.2,0.4-0.3,0.6-0.2l6.1,3.5c0.2,0.1,0.3,0.4,0.2,0.6L119.3,59.2z"/>
				<path class="st32" d="M89.9,104.7l-1.8,0.5l-0.5-1.8c-1.1-4.1-0.5-8.4,1.6-12l20.5-35.5c0.5-0.9,1.8-1.3,2.7-0.7l6.9,4
					c0.9,0.5,1.3,1.8,0.7,2.7L99.5,97.4C97.4,101,94,103.7,89.9,104.7z"/>
				<rect x="105" y="63.8" transform="matrix(0.866 0.5 -0.5 0.866 47.7401 -46.6458)" class="st25" width="11.9" height="4"/>
				<path class="st100" d="M89.9,104.7l-1.8,0.5l-0.5-1.8c-1.1-4.1-0.5-8.4,1.6-12l20.5-35.5c0.5-0.9,1.8-1.3,2.7-0.7l6.9,4
					c0.9,0.5,1.3,1.8,0.7,2.7L99.5,97.4C97.4,101,94,103.7,89.9,104.7z"/>
				<path class="st100" d="M119.3,59.2l-6.9-4l4.7-8.2c0.1-0.2,0.4-0.3,0.6-0.2l6.1,3.5c0.2,0.1,0.3,0.4,0.2,0.6L119.3,59.2z"/>
				<path class="st100" d="M118,65.3l3.4,2c1.9,1.1,2.5,3.5,1.5,5.4L117,83"/>
			</g>
			<g>
				<path class="st101" d="M91.2,38.1h-2l-4-2H69.4l-4,2h-2c-1.1,0-2-0.9-2-2v-5.9c0-1.1,0.9-2,2-2h27.7c1.1,0,2,0.9,2,2v5.9
					C93.1,37.2,92.3,38.1,91.2,38.1z"/>
				<path class="st101" d="M91.2,38.1h-2l-4-2H69.4l-4,2h-2c-1.1,0-2-0.9-2-2v-5.9c0-1.1,0.9-2,2-2h27.7c1.1,0,2,0.9,2,2v5.9
					C93.1,37.2,92.3,38.1,91.2,38.1z"/>
			</g>
			<g>
				<path class="st102" d="M73.6,75.6c-2.7,0-4.9-2.2-4.9-4.9c0-2.7,2.2-4.9,4.9-4.9s4.9,2.2,4.9,4.9"/>
				<path class="st102" d="M73.6,75.6c2.7,0,4.9,2.2,4.9,4.9c0,2.7-2.2,4.9-4.9,4.9s-4.9-2.2-4.9-4.9"/>
				<line class="st102" x1="73.6" y1="65.9" x2="73.6" y2="63.5"/>
				<line class="st102" x1="73.6" y1="85.4" x2="73.6" y2="87.8"/>
			</g>
		</g>
		<g>
			<g>
				<g>
					<path class="st98" d="M47.1,30.1v8.6c0,2.6-1.5,4.6-3.2,4.6H49c1.7,0,2.9-2,2.9-4.6v-8.6H47.1z"/>
				</g>
			</g>
			<rect x="48.8" y="37.3" class="st98" width="3.1" height="6"/>
			<g>
				<g id="XMLID_234_">
					<path id="XMLID_273_" class="st107" d="M53.3,44.8H36.5c-0.6,0-1-0.5-1-1V28.7h18.9v15.1C54.3,44.3,53.8,44.8,53.3,44.8z"/>
					<g id="XMLID_235_">
						<path id="XMLID_236_" class="st107" d="M51.7,28.5h-0.5v-2.9c0-3.5-2.8-6.3-6.3-6.3c-3.5,0-6.3,2.8-6.3,6.3v2.9h-0.5v-2.9
							c0-3.7,3-6.8,6.8-6.8c3.7,0,6.8,3,6.8,6.8V28.5z"/>
					</g>
				</g>
				<g>
					<g id="XMLID_223_">
						<path id="XMLID_226_" class="st107" d="M53.8,45.4H36.2c-0.6,0-1.1-0.5-1.1-1.1V28.5h19.7v15.8C54.9,44.9,54.4,45.4,53.8,45.4
							z"/>
						<g id="XMLID_224_">
							<path id="XMLID_225_" class="st107" d="M52.1,28.3h-0.5v-3c0-3.7-3-6.6-6.6-6.6c-3.7,0-6.6,3-6.6,6.6v3h-0.5v-3
								c0-3.9,3.2-7.1,7.1-7.1c3.9,0,7.1,3.2,7.1,7.1V28.3z"/>
						</g>
					</g>
					<g>
						<g>
							<path class="st107" d="M48.7,30v8.9c0,2.7-1.4,4.8-3.1,4.8h5c1.7,0,2.8-2.1,2.8-4.8V30H48.7z"/>
						</g>
					</g>
					<rect x="49.3" y="33.4" class="st107" width="4" height="10.4"/>
				</g>
			</g>
			<g>
				<g id="XMLID_108_">
					<path id="XMLID_204_" class="st108" d="M52.8,44.8H36c-0.6,0-1-0.5-1-1V28.7h18.9v15.1C53.8,44.3,53.3,44.8,52.8,44.8z"/>
					<g id="XMLID_109_">
						<path id="XMLID_203_" class="st108" d="M51.2,28.5h-0.5v-2.9c0-3.5-2.8-6.3-6.3-6.3c-3.5,0-6.3,2.8-6.3,6.3v2.9h-0.5v-2.9
							c0-3.7,3-6.8,6.8-6.8c3.7,0,6.8,3,6.8,6.8V28.5z"/>
					</g>
				</g>
				<g>
					<g id="XMLID_104_">
						<path id="XMLID_107_" class="st108" d="M53.3,45.4H35.7c-0.6,0-1.1-0.5-1.1-1.1V28.5h19.7v15.8C54.4,44.9,53.9,45.4,53.3,45.4
							z"/>
						<g id="XMLID_105_">
							<path id="XMLID_106_" class="st108" d="M51.6,28.3h-0.5v-3c0-3.7-3-6.6-6.6-6.6c-3.7,0-6.6,3-6.6,6.6v3h-0.5v-3
								c0-3.9,3.2-7.1,7.1-7.1c3.9,0,7.1,3.2,7.1,7.1V28.3z"/>
						</g>
					</g>
					<g>
						<g>
							<path class="st89" d="M48.2,30v8.9c0,2.7-1.4,4.8-3.1,4.8h5c1.7,0,2.8-2.1,2.8-4.8V30H48.2z"/>
						</g>
					</g>
					<rect x="48.8" y="33.4" class="st89" width="4" height="10.4"/>
				</g>
			</g>
		</g>
	</g>
</g>
</svg>
