<?xml version="1.0" encoding="utf-8"?>
<!-- Generator: Adobe Illustrator 24.0.2, SVG Export Plug-In . SVG Version: 6.00 Build 0)  -->
<svg version="1.1" xmlns="http://www.w3.org/2000/svg" xmlns:xlink="http://www.w3.org/1999/xlink" x="0px" y="0px"
	 viewBox="0 0 800 800" style="enable-background:new 0 0 800 800;" xml:space="preserve">
<style type="text/css">
	.st0{fill:#E9C43B;}
	.st1{fill:#D65037;}
	.st2{fill:#92300E;}
	.st3{fill:#E5133A;}
	.st4{fill:#A70933;}
	.st5{fill:#794852;}
	.st6{fill:#9F134F;}
	.st7{fill:#56323F;}
	.st8{fill:#7B2182;}
	.st9{fill:#702E88;}
	.st10{fill:#222851;}
	.st11{fill:#445CA7;}
	.st12{fill:#2D97CD;}
	.st13{fill:#005461;}
	.st14{fill:#00A18E;}
	.st15{fill:#B0CC36;}
	.st16{fill:#959150;}
	.st17{fill:#F09A04;}
	.st18{fill:#E84B1E;}
	.st19{fill:#A71737;}
	.st20{fill:#4DBCC0;}
	.st21{fill:#AA2A17;stroke:#AA2A17;stroke-width:27;stroke-miterlimit:10;}
	.st22{fill:#FFFFFF;}
	.st23{fill:#54120F;}
	.st24{fill:#F9FAFA;}
	.st25{fill:#CE7C6A;}
	.st26{fill:none;stroke:#3C160E;stroke-width:2;stroke-linecap:round;stroke-linejoin:round;stroke-miterlimit:10;}
	.st27{fill:#FFFFFF;stroke:#FFFFFF;stroke-miterlimit:10;}
	.st28{fill:#631123;}
	.st29{fill:#392874;stroke:#392874;stroke-miterlimit:10;}
	.st30{fill:#310D17;}
	.st31{fill:#C48A97;}
	.st32{fill:#340D16;}
	.st33{fill:none;stroke:#240914;stroke-width:2;stroke-linecap:round;stroke-linejoin:round;stroke-miterlimit:10;}
	.st34{fill:none;stroke:#F9FAFA;stroke-width:2;stroke-linecap:round;stroke-linejoin:round;stroke-miterlimit:10;}
	.st35{fill:#240914;stroke:#240914;stroke-width:0.5;stroke-miterlimit:10;}
	.st36{fill:#F9FAFA;stroke:#240914;stroke-miterlimit:10;}
	.st37{fill:#875569;}
	.st38{fill:none;stroke:#240914;stroke-linecap:round;stroke-linejoin:round;stroke-miterlimit:10;}
	.st39{fill:#FFFFFF;stroke:url(#);stroke-miterlimit:10;}
	.st40{fill:#072634;}
	.st41{fill:#61C3D4;}
	.st42{fill:none;stroke:#002E33;stroke-width:2;stroke-linecap:round;stroke-linejoin:round;stroke-miterlimit:10;}
	.st43{fill:#3FB6E9;}
	.st44{fill:#002E33;}
	.st45{fill:#A5CFF0;}
	.st46{fill:#B8E0E8;}
	.st47{fill:#094C42;}
	.st48{fill:#755A14;}
	.st49{fill:#503C14;}
	.st50{fill:none;stroke:#FFFFFF;stroke-width:16;stroke-miterlimit:10;}
	.st51{fill:#FFFFFF;stroke:#FFFFFF;stroke-width:16;stroke-miterlimit:10;}
	.st52{fill:#F5B4CD;}
	.st53{fill:#E9487F;}
	.st54{fill:#3C0D26;}
	.st55{fill:#F4AFCF;}
	.st56{fill:#721040;}
	.st57{fill:none;stroke:#FFFFFF;stroke-width:2;stroke-miterlimit:10;}
	.st58{fill:#FFFFFF;stroke:#FFFFFF;stroke-width:2;stroke-miterlimit:10;}
	.st59{fill:#BFC6C7;}
	.st60{fill:#81338B;}
	.st61{fill:#36183F;}
	.st62{fill:#4E5F23;}
	.st63{fill:#122A19;}
	.st64{fill:#9AAF20;}
	.st65{fill:#D1DD78;}
	.st66{fill:#3C3A19;}
	.st67{fill:#281639;}
	.st68{fill:#B299C9;}
	.st69{fill:#FFFFFF;stroke:#222950;stroke-width:3;stroke-miterlimit:10;}
	.st70{fill:#DDDDDD;}
	.st71{fill:#FFFFFF;stroke:#455DA7;stroke-width:3;stroke-miterlimit:10;}
	.st72{fill:none;stroke:#002E33;stroke-width:17;stroke-linecap:round;stroke-linejoin:round;stroke-miterlimit:10;}
	.st73{fill:#FFFFFF;stroke:#F19B09;stroke-width:14;stroke-miterlimit:10;}
	.st74{fill:#B57015;}
	.st75{fill:#FAC8A4;stroke:#FAC8A4;stroke-width:13;stroke-miterlimit:10;}
	.st76{fill:#AA2A17;stroke:#AA2A17;stroke-width:12;stroke-miterlimit:10;}
	.st77{fill:#AA2A17;stroke:#AA2A17;stroke-width:13;stroke-miterlimit:10;}
	.st78{fill:#F39454;stroke:#F39454;stroke-width:13;stroke-miterlimit:10;}
	.st79{fill:#B57016;stroke:#B57016;stroke-width:13;stroke-miterlimit:10;}
	.st80{fill:#FFFFFF;stroke:#FFFFFF;stroke-width:13;stroke-miterlimit:10;}
	.st81{fill:#326129;}
	.st82{fill:none;stroke:#36183F;stroke-width:30;stroke-miterlimit:10;}
	.st83{fill:none;stroke:#36183F;stroke-width:28;stroke-miterlimit:10;}
	.st84{fill:#FFFFFF;stroke:#FFFFFF;stroke-width:19;stroke-miterlimit:10;}
	.st85{fill:#888989;}
	.st86{fill:#4F7589;}
	.st87{fill:none;stroke:#240914;stroke-width:22;stroke-linecap:round;stroke-linejoin:round;stroke-miterlimit:10;}
	.st88{fill:none;stroke:#240914;stroke-width:15;stroke-linecap:round;stroke-linejoin:round;stroke-miterlimit:10;}
	.st89{fill:#240914;stroke:#240914;stroke-width:2;stroke-miterlimit:10;}
	.st90{fill:none;stroke:#F9FAFA;stroke-width:20;stroke-linecap:round;stroke-linejoin:round;stroke-miterlimit:10;}
	.st91{fill:none;stroke:#340D16;stroke-width:27;stroke-miterlimit:10;}
	.st92{fill:none;stroke:#04303D;stroke-width:30;stroke-miterlimit:10;}
	.st93{fill:#D56D0D;}
	.st94{fill:#50AE32;}
	.st95{fill:#FFFFFF;stroke:#153E20;stroke-width:3;stroke-miterlimit:10;}
	.st96{fill:#1A7B34;}
	.st97{fill:#FFFFFF;stroke:#8EC479;stroke-width:3;stroke-miterlimit:10;}
	.st98{fill:#300F18;}
	.st99{fill:#E72F73;}
	.st100{fill:#024444;}
	.st101{fill:#EA4F93;}
	.st102{fill:#BCE2EB;}
</style>
<g id="Capa_1">
	<rect x="-9.82" y="-15.98" class="st20" width="823.9" height="823.9"/>
</g>
<g id="Capa_2">
	<path id="XMLID_322_" class="st29" d="M360.89,381.58c-0.03-4.05-2.13-6.94-6.26-8.63v16.89l0.73-0.31
		C359.08,387.65,360.9,385,360.89,381.58z"/>
	<path class="st22" d="M212.55,376.24l169.47,133.28c24.41,19.2,28.64,54.56,9.44,78.97l0,0c-19.2,24.41-54.56,28.64-78.97,9.44
		L143.02,464.65c-24.41-19.2-28.64-54.56-9.44-78.97l0,0C152.78,361.27,188.14,357.04,212.55,376.24z"/>
	<path class="st22" d="M709.05,408.33c-2.08-2.87-5.41-4.57-8.97-4.57c-30.66,0-51.45-16.45-75.53-35.5
		c-5.22-4.13-10.49-8.3-15.92-12.33c-22.02-16.4-49.94-33.17-89.99-33.17c-16.98,0-30.7,0.17-41.58,0.52h-47.77
		c-0.01-0.26-0.02-0.52-0.03-0.78c-1.83,4.62-3.95,9.15-5.92,13.69c-2.11,4.86-3.55,9.9-4.77,15c0,0.2,0.01,0.41,0.01,0.61
		c0.12,13.21,0.11,28.19-3.48,41.66h55.71c10.68,2.31,18.34,12.46,18.34,24.5c0,8.66-4.17,16.66-10.98,21.2
		c-3.46,0.98-11.16,3.16-21.31,6.02l-7.93,2.24c-9.83,2.52-20.03,5.4-30.09,8.5l-1.99,0.56c-43.31,12.21-70.85,19.9-78.23,21.83
		c-2.3,0.09-4.42,0-6.18-0.27l-20.05-13.86c2.38-0.26,4.75-0.6,7.11-1c-0.79-0.4-1.55-0.89-2.27-1.45
		c-22.11-17.48-48.43-28.43-71.78-44.04c-1.17,7.17-8.95,13.4-15.94,15.86c-5.9,2.08-12.65,2.21-19.11,0.77
		c-2.12,6.14-3.85,12.44-5.66,18.47c-0.01,0.05-0.03,0.1-0.04,0.15c1.05,16.84,0.73,33.45-7.38,48.42
		c-1.09,2.02-2.55,3.33-4.17,4.05l147.31,113.88c1,0.78,2.09,1.35,3.22,1.74l1.56,0.65c0.2,0.09,0.41,0.16,0.61,0.24
		c9.91,3.64,18.97,4.26,28.62,2.25c0.22-0.05,0.44-0.1,0.66-0.16l0.97-0.27c90.16-24.48,210-56.9,268.98-72.4
		c0.45-0.12,0.89-0.27,1.33-0.44l3.99-1.57c21.99-5.87,39.55-9.1,49.49-9.1c6.13,0,11.1-4.97,11.1-11.1v-8.11
		c0.13-0.69,0.19-1.38,0.17-2.09L711,416.81C711.53,413.85,710.85,410.79,709.05,408.33z"/>
	<g id="XMLID_9138_">
		<path id="XMLID_9144_" class="st100" d="M363.35,404.98c14.85,0,26.96-12.05,27.01-26.92l0.49-149.29
			c0.05-14.89-12.03-27.05-26.92-27.1l-245.27-0.8c-0.03,0-0.06,0-0.09,0c-14.85,0-26.97,12.06-27.02,26.92l-0.48,149.3
			c-0.02,7.22,2.76,14.01,7.84,19.13c5.09,5.12,11.86,7.95,19.07,7.97l245.27,0.8C363.28,404.98,363.32,404.98,363.35,404.98z"/>
		<path id="XMLID_9141_" class="st20" d="M349.45,224.52h-56.87c-1.57,0-2.84,1.27-2.84,2.84v75.56c0,1.57,1.27,2.84,2.84,2.84
			h56.87c1.57,0,2.84-1.28,2.84-2.84v-75.56C352.29,225.79,351.02,224.52,349.45,224.52z"/>
		<path id="XMLID_9140_" class="st20" d="M137.63,327.23h88.14c3.14,0,5.69-2.55,5.69-5.68c0-3.14-2.54-5.69-5.69-5.69h-88.14
			c-3.14,0-5.69,2.55-5.69,5.69C131.94,324.68,134.48,327.23,137.63,327.23z"/>
		<path id="XMLID_9139_" class="st20" d="M266.99,348.56H137.63c-3.14,0-5.69,2.54-5.69,5.68c0,3.14,2.54,5.69,5.69,5.69h129.37
			c3.14,0,5.69-2.54,5.69-5.69C272.68,351.1,270.13,348.56,266.99,348.56z"/>
	</g>
	<path class="st22" d="M337.62,322.49h181.85c4.24,0,7.68,3.44,7.68,7.68v55.31c0,4.24-3.44,7.68-7.68,7.68H337.62
		c-4.24,0-7.68-3.44-7.68-7.68v-55.31C329.94,325.92,333.38,322.49,337.62,322.49z"/>
</g>
<g id="Capa_3">
</g>
</svg>
