<?xml version="1.0" encoding="utf-8"?>
<!-- Generator: Adobe Illustrator 23.0.6, SVG Export Plug-In . SVG Version: 6.00 Build 0)  -->
<svg version="1.1" xmlns="http://www.w3.org/2000/svg" xmlns:xlink="http://www.w3.org/1999/xlink" x="0px" y="0px"
	 viewBox="0 0 140 140" style="enable-background:new 0 0 140 140;" xml:space="preserve">
<style type="text/css">
	.st0{fill:#BE6D20;}
	.st1{fill:#BB513B;}
	.st2{fill:#7F3318;}
	.st3{fill:#C41A3B;}
	.st4{fill:#871A4F;}
	.st5{fill:#623284;}
	.st6{fill:#292C51;}
	.st7{fill:#4D5CA3;}
	.st8{fill:#5C95C9;}
	.st9{fill:#005460;}
	.st10{fill:#3BA08D;}
	.st11{fill:#74AC40;}
	.st12{fill:#497A3C;}
	.st13{fill:#B7CA47;}
	.st14{fill:#939054;}
	.st15{fill:#FFFFFF;stroke:#9EC37D;stroke-width:4.3502;stroke-miterlimit:10;}
	.st16{fill:#DCDCDC;}
	.st17{fill:#497B3C;stroke:#497B3C;stroke-width:0.522;stroke-miterlimit:10;}
	.st18{fill:#DB9825;}
	.st19{fill:#CA4D26;}
	.st20{fill:#6E4953;}
	.st21{fill:#4F3541;}
	.st22{fill:#932E1E;stroke:#932E1E;stroke-width:4.7249;stroke-miterlimit:10;}
	.st23{fill:#FFFFFF;}
	.st24{fill:#4A1917;}
	.st25{fill:#F9F9F9;}
	.st26{fill:#BA7B6A;}
	.st27{fill:none;stroke:#371C16;stroke-width:2.6204;stroke-linecap:round;stroke-linejoin:round;stroke-miterlimit:10;}
	.st28{fill:#FFFFFF;stroke:#FFFFFF;stroke-width:0.1754;stroke-miterlimit:10;}
	.st29{fill:#561827;}
	.st30{fill:#B48995;}
	.st31{fill:#30151C;}
	.st32{fill:#7B5568;}
	.st33{fill:none;stroke:#24121B;stroke-width:3.8462;stroke-linecap:round;stroke-linejoin:round;stroke-miterlimit:10;}
	.st34{fill:none;stroke:#F9F9F9;stroke-width:3.4966;stroke-linecap:round;stroke-linejoin:round;stroke-miterlimit:10;}
	.st35{fill:#24121B;stroke:#24121B;stroke-width:0.3497;stroke-miterlimit:10;}
	.st36{fill:none;stroke:#24121B;stroke-width:2.6224;stroke-linecap:round;stroke-linejoin:round;stroke-miterlimit:10;}
	.st37{fill:#FFFFFF;stroke:url(#);stroke-width:0.1743;stroke-miterlimit:10;}
	.st38{fill:#1B2A37;}
	.st39{fill:#85C1D2;}
	.st40{fill:none;stroke:#1C3236;stroke-width:2.9702;stroke-linecap:round;stroke-linejoin:round;stroke-miterlimit:10;}
	.st41{fill:#72B4E6;}
	.st42{fill:#1C3236;}
	.st43{fill:#B1CDEE;}
	.st44{fill:#C3DFE7;}
	.st45{fill:#2E4D44;}
	.st46{fill:#DEC34A;}
	.st47{fill:#6E5A21;}
	.st48{fill:#4C3E1D;}
	.st49{fill:none;stroke:#FFFFFF;stroke-width:2.8139;stroke-miterlimit:10;}
	.st50{fill:#FFFFFF;stroke:#FFFFFF;stroke-width:2.8139;stroke-miterlimit:10;}
	.st51{fill:#E4B3CB;}
	.st52{fill:#8E1135;}
	.st53{fill:#372C71;stroke:#372C71;stroke-width:0.175;stroke-miterlimit:10;}
	.st54{fill:#2E151D;}
	.st55{fill:#CB4A7C;}
	.st56{fill:#371529;}
	.st57{fill:#E2ADCC;}
	.st58{fill:#611740;}
	.st59{fill:none;stroke:#FFFFFF;stroke-width:3.4966;stroke-miterlimit:10;}
	.st60{fill:#FFFFFF;stroke:#FFFFFF;stroke-width:3.4966;stroke-miterlimit:10;}
	.st61{fill:#6B267F;}
	.st62{fill:#BFC5C5;}
	.st63{fill:#713787;}
	.st64{fill:#331E40;}
	.st65{fill:#545F2C;}
	.st66{fill:#212E20;}
	.st67{fill:#9FAD35;}
	.st68{fill:#D3DC7E;}
	.st69{fill:#3E3D21;}
	.st70{fill:#281C3B;}
	.st71{fill:#AA98C6;}
	.st72{fill:#FFFFFF;stroke:#292D50;stroke-width:4.3695;stroke-miterlimit:10;}
	.st73{fill:#FFFFFF;stroke:#2A4125;stroke-width:4.3017;stroke-miterlimit:10;}
	.st74{fill:#2A4027;stroke:#2A4027;stroke-width:0.5162;stroke-miterlimit:10;}
	.st75{fill:#FFFFFF;stroke:#4E5DA3;stroke-width:4.382;stroke-miterlimit:10;}
	.st76{fill:none;stroke:#1C3236;stroke-width:2.9682;stroke-linecap:round;stroke-linejoin:round;stroke-miterlimit:10;}
	.st77{fill:#FFFFFF;stroke:#DC9927;stroke-width:2.409;stroke-miterlimit:10;}
	.st78{fill:#A36F24;}
	.st79{fill:#EDC7A4;stroke:#EDC7A4;stroke-width:2.2749;stroke-miterlimit:10;}
	.st80{fill:#932E1E;stroke:#932E1E;stroke-width:2.0999;stroke-miterlimit:10;}
	.st81{fill:#932E1E;stroke:#932E1E;stroke-width:2.2749;stroke-miterlimit:10;}
	.st82{fill:#DC9359;stroke:#DC9359;stroke-width:2.2749;stroke-miterlimit:10;}
	.st83{fill:#A37025;stroke:#A37025;stroke-width:2.2369;stroke-miterlimit:10;}
	.st84{fill:#DC9359;stroke:#DC9359;stroke-width:2.2369;stroke-miterlimit:10;}
	.st85{fill:#FFFFFF;stroke:#FFFFFF;stroke-width:2.2369;stroke-miterlimit:10;}
	.st86{fill:#456131;}
	.st87{fill:none;stroke:#1C3236;stroke-width:2.9311;stroke-linecap:round;stroke-linejoin:round;stroke-miterlimit:10;}
	.st88{fill:#FFFFFF;stroke:#FFFFFF;stroke-width:3.2693;stroke-miterlimit:10;}
	.st89{fill:#878888;}
	.st90{fill:none;stroke:#30151C;stroke-width:4.6663;stroke-miterlimit:10;}
	.st91{fill:none;stroke:#331E40;stroke-width:4.84;stroke-miterlimit:10;}
	.st92{fill:#FFFFFF;stroke:#FFFFFF;stroke-width:3.2843;stroke-miterlimit:10;}
	.st93{fill:none;stroke:#331E40;stroke-width:5.197;stroke-miterlimit:10;}
	.st94{fill:#FFFFFF;stroke:#FFFFFF;stroke-width:3.2914;stroke-miterlimit:10;}
	.st95{fill:none;stroke:#1E333F;stroke-width:5.2381;stroke-miterlimit:10;}
	.st96{fill:#FFFFFF;stroke:#FFFFFF;stroke-width:3.3174;stroke-miterlimit:10;}
	.st97{fill:#FFFFFF;stroke:#FFFFFF;stroke-width:3.2837;stroke-miterlimit:10;}
	.st98{fill:#5C7487;}
	.st99{fill:none;stroke:#24121B;stroke-width:3.7855;stroke-linecap:round;stroke-linejoin:round;stroke-miterlimit:10;}
	.st100{fill:none;stroke:#24121B;stroke-width:2.581;stroke-linecap:round;stroke-linejoin:round;stroke-miterlimit:10;}
	.st101{fill:#24121B;stroke:#24121B;stroke-width:0.3441;stroke-miterlimit:10;}
	.st102{fill:none;stroke:#F9F9F9;stroke-width:3.4414;stroke-linecap:round;stroke-linejoin:round;stroke-miterlimit:10;}
	.st103{fill:none;stroke:#30151C;stroke-width:4.6459;stroke-miterlimit:10;}
	.st104{fill:none;stroke:#1E333F;stroke-width:5.1724;stroke-miterlimit:10;}
	.st105{fill:#FFFFFF;stroke:#FFFFFF;stroke-width:3.2759;stroke-miterlimit:10;}
	.st106{fill:none;stroke:#1E333F;stroke-width:5.1621;stroke-miterlimit:10;}
	.st107{fill:none;stroke:#30151C;stroke-width:4.6905;stroke-miterlimit:10;}
	.st108{fill:#FFFFFF;stroke:#FFFFFF;stroke-width:3.3007;stroke-miterlimit:10;}
</style>
<g id="Capa_1">
</g>
<g id="Capa_2">
	<g>
		<rect y="0.1" class="st52" width="140" height="140"/>
		<path id="XMLID_290_" class="st53" d="M60.5,76.5c0-0.7-0.4-1.2-1.1-1.5v2.9l0.1-0.1C60.2,77.5,60.5,77.1,60.5,76.5z"/>
		<path class="st23" d="M120.7,81.1c-0.4-0.5-0.9-0.8-1.6-0.8c-5.3,0-8.9-2.8-13.1-6.1c-0.9-0.7-1.8-1.4-2.8-2.1
			c-3.8-2.8-8.6-5.7-15.6-5.7c-2.9,0-5.3,0-7.2,0.1h-8.3c0,0,0-0.1,0-0.1c-0.3,0.8-0.7,1.6-1,2.4c-0.4,0.8-0.6,1.7-0.8,2.6
			c0,0,0,0.1,0,0.1c0,2.3,0,4.9-0.6,7.2h9.6c1.8,0.4,3.2,2.2,3.2,4.2c0,1.5-0.7,2.9-1.9,3.7c-0.6,0.2-1.9,0.5-3.7,1l-1.4,0.4
			c-1.7,0.4-3.5,0.9-5.2,1.5l-0.3,0.1c-7.5,2.1-12.2,3.4-13.5,3.8c-0.4,0-0.8,0-1.1,0l-3.5-2.4c0.4,0,0.8-0.1,1.2-0.2
			c-0.1-0.1-0.3-0.2-0.4-0.3c-3.8-3-8.4-4.9-12.4-7.6C40.4,84,39,85,37.8,85.5c-1,0.4-2.2,0.4-3.3,0.1c-0.4,1.1-0.7,2.2-1,3.2
			c0,0,0,0,0,0c0.2,2.9,0.1,5.8-1.3,8.4c-0.2,0.3-0.4,0.6-0.7,0.7L57,117.6c0.2,0.1,0.4,0.2,0.6,0.3l0.3,0.1c0,0,0.1,0,0.1,0
			c1.7,0.6,3.3,0.7,4.9,0.4c0,0,0.1,0,0.1,0l0.2,0c15.6-4.2,36.3-9.8,46.5-12.5c0.1,0,0.2,0,0.2-0.1l0.7-0.3c3.8-1,6.8-1.6,8.6-1.6
			c1.1,0,1.9-0.9,1.9-1.9v-1.4c0-0.1,0-0.2,0-0.4l0-17.7C121.2,82.1,121,81.5,120.7,81.1z"/>
		<ellipse class="st54" cx="48.3" cy="61" rx="22.1" ry="23.4"/>
		<path class="st23" d="M34.9,75.6l29.3,23c4.2,3.3,5,9.4,1.6,13.7l0,0c-3.3,4.2-9.4,5-13.7,1.6l-29.3-23c-4.2-3.3-5-9.4-1.6-13.7
			l0,0C24.6,73,30.7,72.2,34.9,75.6z"/>
		<g>
			<g>
				<g>
					<path class="st55" d="M48.7,48.5c0.7,0,1.2,0.6,1.2,1.2v0.6c1.7,0.2,3.2,0.8,4.5,1.6c0.5,0.3,0.9,0.7,0.9,1.4
						c0,0.9-0.7,1.6-1.6,1.6c-0.3,0-0.6-0.1-0.9-0.3c-1-0.6-2-1-3-1.3V59c4.4,1.1,6.3,2.9,6.3,6c0,3.2-2.5,5.3-6.2,5.7v1.7
						c0,0.7-0.6,1.2-1.2,1.2c-0.7,0-1.3-0.6-1.3-1.2v-1.8c-2.2-0.2-4.2-1-5.9-2.3C41,68,40.7,67.6,40.7,67c0-0.9,0.7-1.6,1.6-1.6
						c0.3,0,0.7,0.1,1,0.3c1.4,1,2.7,1.7,4.3,1.9v-5.7c-4.2-1.1-6.2-2.7-6.2-6c0-3.1,2.5-5.3,6.1-5.5v-0.6
						C47.4,49.1,48,48.5,48.7,48.5z M47.5,58.4v-5.1c-1.9,0.2-2.8,1.2-2.8,2.4C44.7,56.9,45.3,57.7,47.5,58.4z M49.8,62.5v5.3
						c1.9-0.2,2.9-1.1,2.9-2.5C52.7,63.9,52.1,63.2,49.8,62.5z"/>
				</g>
			</g>
		</g>
		<path class="st23" d="M55.8,66.3h32.8c0.4,0,0.6,0.3,0.6,0.6v10.9c0,0.4-0.3,0.6-0.6,0.6H55.8c-0.4,0-0.6-0.3-0.6-0.6V66.9
			C55.2,66.6,55.5,66.3,55.8,66.3z"/>
	</g>
</g>
<g id="Capa_3">
</g>
</svg>
